<svg width="70" height="68" viewBox="0 0 70 68" fill="none" xmlns="http://www.w3.org/2000/svg">
<mask id="mask0_763_1528" style="mask-type:alpha" maskUnits="userSpaceOnUse" x="0" y="0" width="70" height="68">
<rect width="70" height="68" fill="#D9D9D9"/>
</mask>
<g mask="url(#mask0_763_1528)">
<rect x="7" y="7" width="55" height="55" rx="10" fill="url(#paint0_radial_763_1528)"/>
<path fill-rule="evenodd" clip-rule="evenodd" d="M30.1794 3.90923C27.6216 4.36724 25.3328 5.86506 23.8867 8.02702C23.2456 8.98566 22.4364 10.8431 22.4364 11.3561C22.4364 11.7863 22.7778 12.3345 23.1516 12.5048C24.0027 12.8926 24.6659 12.5483 25.0506 11.5191C26.0444 8.86018 27.7745 7.20511 30.2085 6.58528C33.6705 5.70364 37.2321 7.97382 38.7749 12.0455C39.2403 13.2743 39.6318 13.7067 40.2784 13.7067C40.9291 13.7067 41.3414 13.2667 41.8309 12.0499C42.0673 11.4621 42.4617 10.6411 42.7074 10.2255C43.2899 9.23989 44.9371 7.58418 45.7781 7.13884C49.7495 5.03596 54.613 7.51608 55.7098 12.2035C56.0293 13.5688 55.9202 15.8158 55.4731 17.0798C54.3252 20.3246 52.0874 22.768 43.5037 30.1487L40.455 32.7702L37.0335 29.8793C31.4386 25.1519 28.8186 22.7233 27.3925 20.9423C26.7202 20.1028 26.5454 19.9808 26.0138 19.9808C25.2727 19.9808 24.6585 20.5997 24.6585 21.3465C24.6585 22.1119 27.5963 25.231 31.3901 28.4931C36.5913 32.9656 39.8628 35.6716 40.1582 35.7457C40.3322 35.7895 40.612 35.7907 40.78 35.7485C41.1105 35.6656 48.7239 29.1552 51.2165 26.8242C55.6541 22.6741 57.657 19.7668 58.3341 16.4924C58.6203 15.1084 58.5198 12.4618 58.1298 11.1148C57.5848 9.23257 56.5475 7.54483 55.1276 6.23014C52.5804 3.87198 48.7595 3.14667 45.5164 4.40594C43.7607 5.08772 42.1368 6.44019 40.8994 8.25106C40.3698 9.02618 40.2621 9.1233 40.149 8.92762C40.0764 8.80201 39.6816 8.24727 39.2717 7.69489C37.4577 5.25085 35.0388 3.93446 32.1743 3.83251C31.4554 3.80689 30.5577 3.84139 30.1794 3.90923ZM22.7501 15.7196C22.2611 16.2086 22.1884 16.6299 22.4919 17.2169C23.1055 18.4034 24.9199 17.8754 24.9199 16.5104C24.9199 16.0024 24.1505 15.2752 23.6128 15.2752C23.3114 15.2752 23.0703 15.3994 22.7501 15.7196ZM1.97329 33.2286L1.5226 33.6793V45.7897C1.5226 58.9432 1.49475 58.438 2.23785 58.7765C2.66749 58.9723 11.0291 58.9956 11.7226 58.8029C12.713 58.5278 13.596 57.7777 14.2776 56.6327C14.4141 56.4034 14.4567 56.4033 15.5152 56.6308C17.3637 57.028 18.0475 57.3572 22.2403 59.8685C26.5863 62.4714 27.7468 63.0496 29.6503 63.5601C33.4062 64.5674 36.9027 64.3215 40.6 62.7902C45.0166 60.9609 66.0798 51.5647 66.4741 51.2478C67.2098 50.6565 67.9057 49.6588 68.1795 48.8026L68.4303 48.0183C68.4303 48.0183 68.5225 47.7947 68.5225 47.5332C68.5225 47.3372 68.5225 47.2065 68.5225 47.0758C68.5222 46.945 68.4445 46.6298 68.431 46.5529C68.4095 46.4308 68.4053 46.4222 68.3604 46.2386C68.3078 45.6556 67.4216 44.0808 66.8802 43.5915C65.8294 42.6423 64.1399 42.0906 62.852 42.2762C62.5142 42.3249 59.4145 43.3338 55.9638 44.5183C52.513 45.7027 49.6008 46.6985 49.492 46.7312C49.3307 46.7798 49.3035 46.6771 49.3438 46.1703C49.5385 43.723 47.6828 41.3055 45.2064 40.7801C44.7684 40.6871 42.8208 40.6332 39.91 40.6332H35.3062L31.9103 38.719C30.0426 37.6663 28.0937 36.6037 27.5795 36.3577C25.7743 35.4944 25.7873 35.4959 19.8016 35.4388L14.3566 35.3869L14.1948 34.9961C13.953 34.4125 12.9686 33.4638 12.2697 33.1408C11.6783 32.8677 11.4607 32.8543 7.03834 32.8169L2.42398 32.7779L1.97329 33.2286ZM1.58534 45.8616C1.58534 52.5834 1.60115 55.3332 1.62063 51.9723C1.63997 48.6114 1.63997 43.1117 1.62063 39.7509C1.60115 36.3899 1.58534 39.1398 1.58534 45.8616ZM4.13682 45.8616V56.3185H7.54184C11.2393 56.3185 11.5187 56.2718 11.8233 55.6032C11.9397 55.3476 11.9795 52.8512 11.9795 45.777V36.2935L11.5351 35.8491L11.0906 35.4047H7.61373H4.13682V45.8616ZM7.19546 38.4634C6.70647 38.9523 6.63379 39.3736 6.9373 39.9606C7.55086 41.1471 9.36526 40.6192 9.36526 39.2542C9.36526 38.7461 8.5959 38.0189 8.05815 38.0189C7.75673 38.0189 7.5157 38.1431 7.19546 38.4634ZM14.5937 45.9085V53.812L15.1492 53.8998C16.1852 54.0637 17.7232 54.4772 18.597 54.8268C19.0757 55.0183 21.0324 56.1152 22.9452 57.2644C27.4218 59.9538 28.0839 60.3125 29.3918 60.7564C31.2212 61.3774 31.8946 61.4786 34.135 61.4689C35.9475 61.461 36.392 61.4153 37.4681 61.1263C38.5857 60.8262 43.445 58.7272 62.6755 50.2379C63.779 49.7509 64.8482 49.2122 65.0516 49.041C66.2319 48.0479 65.9549 45.805 64.5697 45.138C63.5621 44.6528 63.3291 44.713 54.7874 47.6663C50.402 49.1826 46.4023 50.5719 45.899 50.7539L44.984 51.0846L37.699 51.0873L30.4139 51.09L29.9936 50.7145C29.672 50.4272 29.5732 50.2315 29.5732 49.8817C29.5732 49.327 29.9154 48.7697 30.3597 48.6006C30.5537 48.5269 33.5666 48.4758 37.7175 48.4758H44.7468L45.323 48.1717C46.8763 47.3516 47.2023 45.2696 45.9704 44.0377C45.2146 43.2819 44.9452 43.2474 39.7939 43.2474C36.303 43.2474 35.0135 43.2042 34.5769 43.0729C34.258 42.9768 32.3023 41.9412 30.2311 40.7714C28.1598 39.6016 26.1321 38.5185 25.7252 38.3644C25.0214 38.098 24.7311 38.0823 19.7895 38.0447L14.5937 38.0051V45.9085Z" fill="#142535"/>
<path d="M65.7771 50.2783C66.6267 49.8862 67.3456 48.5791 67.3456 47.7948C67.4109 47.2066 67.3211 46.7874 67.1749 46.2467C67.0287 45.7061 66.7643 45.203 66.4023 44.7769C66.0402 44.3507 65.5904 44.013 65.088 43.7902C64.5855 43.5673 64.0441 43.4653 63.5059 43.4921" stroke="black" stroke-width="2.3528"/>
</g>
<defs>
<radialGradient id="paint0_radial_763_1528" cx="0" cy="0" r="1" gradientUnits="userSpaceOnUse" gradientTransform="translate(34.5 34.5) rotate(90) scale(27.5)">
<stop stop-color="#ADEEEE"/>
<stop offset="1" stop-color="#DBF4F4" stop-opacity="0"/>
</radialGradient>
</defs>
</svg>
