<svg width="70" height="68" viewBox="0 0 70 68" fill="none" xmlns="http://www.w3.org/2000/svg">
<mask id="mask0_763_1524" style="mask-type:alpha" maskUnits="userSpaceOnUse" x="0" y="0" width="70" height="68">
<rect width="70" height="68" fill="#D9D9D9"/>
</mask>
<g mask="url(#mask0_763_1524)">
<rect x="8" y="7" width="55" height="55" rx="10" fill="url(#paint0_radial_763_1524)"/>
<path fill-rule="evenodd" clip-rule="evenodd" d="M19.6874 0.609525C18.4297 0.947388 17.6044 1.43826 16.5785 2.45843C15.1011 3.92757 14.4032 5.6254 14.4032 7.75042C14.4032 10.0095 15.3405 12.0193 17.4851 14.3583C18.3794 15.3336 20.248 16.9633 23.8511 19.9104C26.5376 22.1079 26.8363 22.3168 27.2899 22.3168C27.7436 22.3168 28.0425 22.1077 30.7288 19.9113C36.7518 14.9867 38.181 13.5388 39.3911 11.1355C40.444 9.04489 40.4412 6.50815 39.3838 4.28129C38.8597 3.17747 37.3308 1.62183 36.2912 1.1343C34.1949 0.151263 31.8053 0.155517 29.9422 1.14565C29.5824 1.33681 28.8384 1.93687 28.289 2.47918L27.2899 3.46531L26.2909 2.47918C25.1971 1.39972 24.3865 0.902915 23.2249 0.600372C22.281 0.354548 20.6202 0.358802 19.6874 0.609525ZM20.3333 3.17966C18.5725 3.67182 17.4482 4.95354 17.0949 6.87102C16.7018 9.00416 17.7357 11.0465 20.5314 13.6608C21.9044 14.9444 27.1055 19.2231 27.293 19.2231C27.5472 19.2231 33.0394 14.6308 34.4618 13.2289C37.0184 10.7091 37.8958 8.82549 37.4713 6.76854C37.0747 4.8468 35.9466 3.6316 34.1264 3.16522C31.9687 2.61247 30.0979 3.68033 28.8863 6.15623C28.2009 7.55706 27.9575 7.80907 27.2899 7.80907C26.6218 7.80907 26.3781 7.55628 25.6961 6.15623C24.4797 3.65893 22.5164 2.56916 20.3333 3.17966ZM45.1467 10.2779C42.7966 11.0264 41.3308 13.3234 41.5016 15.9898C41.661 18.4771 42.869 20.0878 47.6325 24.1642C50.7308 26.8156 50.2777 26.811 53.2969 24.2226C58.1068 20.099 59.3251 18.4781 59.4845 15.9898C59.6395 13.572 58.4944 11.5133 56.4582 10.5488C55.6658 10.1736 55.4713 10.1352 54.3602 10.1352C53.3036 10.1352 53.0354 10.1822 52.4041 10.4781C52.0018 10.6668 51.4071 11.0656 51.0828 11.3647L50.4931 11.9083L49.9033 11.3647C49.0148 10.5456 48.0614 10.1584 46.8192 10.1121C46.1367 10.0867 45.5712 10.1428 45.1467 10.2779ZM45.788 12.8425C45.0731 13.0953 44.489 13.7752 44.2344 14.6508C43.8419 16.0012 44.2711 17.2637 45.6377 18.7777C46.4091 19.6323 50.3022 23.0903 50.4931 23.0903C50.684 23.0903 54.5771 19.6323 55.3484 18.7777C56.7218 17.2561 57.1446 16.0025 56.7464 14.6328C56.4846 13.7322 55.8171 13.001 55.0663 12.7926C54.3685 12.599 54.1236 12.6148 53.5224 12.8933C52.8153 13.2206 52.3799 13.721 51.9203 14.7347C51.4778 15.7105 51.151 16.0004 50.4931 16.0004C49.8351 16.0004 49.5083 15.7105 49.0658 14.7347C48.6063 13.721 48.1708 13.2206 47.4638 12.8933C46.85 12.609 46.4798 12.5978 45.788 12.8425ZM10.2536 32.4044C10.0648 32.5636 8.13614 35.362 5.96742 38.6232C1.58642 45.2111 1.62238 45.1377 2.4011 45.9166L2.7779 46.2934H6.26829H9.75869V55.9713V65.6492L10.1355 66.026L10.5123 66.4028H35.0243H59.5363L59.9131 66.026L60.2899 65.6492V55.9713V46.2934H63.7874H67.2849L67.7191 45.8331C68.0663 45.4648 68.1532 45.2672 68.1532 44.8447C68.1532 44.5544 68.1145 44.3554 68.0674 44.4027C68.0202 44.4499 66.2168 41.8346 64.0598 38.5911C61.9028 35.3476 59.9838 32.5636 59.7951 32.4044C59.4615 32.123 59.3708 32.115 56.5095 32.1143L53.567 32.1137L53.1902 32.4905C52.6596 33.0211 52.6596 33.7844 53.1902 34.315L53.567 34.6918L55.9294 34.6954L58.2919 34.699L61.2891 39.2072L64.2864 43.7153L53.877 43.7116L43.4677 43.708L40.4705 39.1999L37.4731 34.6918H40.2547H43.0363L43.4131 34.315C43.9437 33.7844 43.9437 33.0211 43.4131 32.4905L43.0363 32.1137L26.8165 32.1143L10.5966 32.115L10.2536 32.4044ZM47.3894 32.4905C47.0939 32.7861 47.0126 32.9828 47.0126 33.4028C47.0126 33.8227 47.0939 34.0194 47.3894 34.315C48.2198 35.1453 49.5907 34.5772 49.5907 33.4028C49.5907 32.649 49.0554 32.1137 48.3017 32.1137C47.8817 32.1137 47.685 32.195 47.3894 32.4905ZM8.75953 39.2072L5.76221 43.7153L16.1716 43.7116L26.581 43.708L29.5782 39.1999L32.5755 34.6918L22.166 34.6954L11.7567 34.699L8.75953 39.2072ZM30.9779 41.8464C29.4968 44.0763 28.1501 45.989 27.9854 46.0971C27.7255 46.2673 26.6674 46.2934 20.0112 46.2934H12.3368V55.059V63.8246H23.036H33.7352V50.8051C33.7352 43.6444 33.7207 37.787 33.703 37.7889C33.6854 37.7907 32.4589 39.6166 30.9779 41.8464ZM36.3134 50.7733V63.8246H47.0126H57.7118V55.059V46.2934L50.0097 46.2927L42.3075 46.2921L41.9646 46.0027C41.776 45.8435 40.4274 43.9152 38.9676 41.7176L36.3134 37.7218V50.7733ZM2.05937 45.0043C2.05937 45.3234 2.08451 45.4539 2.11532 45.2944C2.146 45.1348 2.146 44.8739 2.11532 44.7143C2.08451 44.5547 2.05937 44.6853 2.05937 45.0043Z" fill="#142535"/>
</g>
<defs>
<radialGradient id="paint0_radial_763_1524" cx="0" cy="0" r="1" gradientUnits="userSpaceOnUse" gradientTransform="translate(35.5 34.5) rotate(90) scale(27.5)">
<stop stop-color="#ADEEEE"/>
<stop offset="1" stop-color="#DBF4F4" stop-opacity="0"/>
</radialGradient>
</defs>
</svg>
