<svg width="70" height="68" viewBox="0 0 70 68" fill="none" xmlns="http://www.w3.org/2000/svg">
<mask id="mask0_763_1522" style="mask-type:alpha" maskUnits="userSpaceOnUse" x="0" y="0" width="70" height="68">
<rect width="70" height="68" fill="#D9D9D9"/>
</mask>
<g mask="url(#mask0_763_1522)">
<rect x="8" y="7" width="55" height="55" rx="10" fill="url(#paint0_radial_763_1522)"/>
<path fill-rule="evenodd" clip-rule="evenodd" d="M31.5343 0.7561C26.4721 1.56536 22.2488 3.65087 18.5149 7.18515C10.6378 14.6415 8.75867 26.7181 14.0071 36.1559C14.438 36.9308 15.0222 37.8883 15.3054 38.2837C15.7459 38.8989 15.7991 39.0431 15.6732 39.2815C15.5922 39.4347 13.3853 43.3996 10.7689 48.0924C5.64597 57.2807 5.6567 57.2572 6.28613 57.9328C6.8094 58.4944 6.94134 58.4932 12.0623 57.8807C14.7453 57.5596 17.1215 57.2664 17.3427 57.229L17.7447 57.161L19.8785 62.1412C21.727 66.4555 22.0618 67.1471 22.3822 67.3128C22.9585 67.6107 23.495 67.5521 23.9286 67.144C24.1591 66.9272 26.1926 63.2209 29.0453 57.8185C31.6492 52.8874 33.8193 48.8176 33.8676 48.7743C33.916 48.7311 34.4482 48.7311 35.0501 48.7743L36.1446 48.8529L41.1618 57.884C43.9212 62.851 46.3326 67.0475 46.5207 67.2095C46.9147 67.549 47.4831 67.5883 48.0159 67.3128C48.3363 67.1471 48.6711 66.4555 50.5196 62.1412L52.6534 57.161L53.0554 57.229C53.2766 57.2664 55.6528 57.5596 58.3358 57.8807C63.4568 58.4932 63.5887 58.4944 64.112 57.9328C64.727 57.2726 64.7336 57.2877 59.609 47.6829C56.9815 42.7584 54.8318 38.6971 54.8318 38.6579C54.8318 38.6187 55.1321 38.1282 55.4993 37.5682C57.3987 34.6703 58.7366 30.8774 59.1593 27.1922C59.3485 25.5441 59.2521 22.2674 58.9655 20.6C57.3525 11.214 50.2767 3.54106 41.0889 1.21433C38.1434 0.468415 34.4437 0.291067 31.5343 0.7561ZM33.4976 3.2433C27.8352 3.69223 22.778 6.24579 19.0027 10.5621C13.8462 16.4579 12.3487 24.8173 15.133 32.1651C16.2468 35.1045 17.6716 37.3186 19.923 39.6089C23.1149 42.8558 26.9838 44.8892 31.5689 45.7295C33.0812 46.0067 36.8977 46.0426 38.4057 45.7938C43.1248 45.0153 47.0893 42.963 50.4471 39.5608C54.4409 35.5141 56.5428 30.3749 56.55 24.6393C56.5562 19.8056 55.1026 15.4463 52.2066 11.6138C47.886 5.89568 40.684 2.67356 33.4976 3.2433ZM33.3107 6.26019C23.949 7.21238 16.7415 15.1911 16.7449 24.599C16.7456 26.8604 17.2013 29.2776 18.0227 31.3798C18.4098 32.3702 18.6301 32.6635 19.1552 32.8874C19.6595 33.1023 20.2565 32.9308 20.6375 32.4616C21.016 31.9954 21.0091 31.5625 20.6071 30.5734C19.8244 28.6474 19.4739 26.8139 19.475 24.6522C19.4763 22.0242 19.9472 19.9584 21.0635 17.6829C23.5998 12.5128 28.4382 9.31451 34.3817 8.87945C35.5289 8.79543 35.771 8.73692 36.0485 8.47633C36.6604 7.90135 36.5974 6.87888 35.9229 6.43688C35.4981 6.15849 34.7849 6.11033 33.3107 6.26019ZM46.3113 11.6301C45.1532 12.8699 46.9674 14.658 48.1667 13.4587C49.0111 12.6144 48.4329 11.2236 47.2376 11.2236C46.7949 11.2236 46.6189 11.3008 46.3113 11.6301ZM49.6117 15.6254C49.444 15.7428 49.2269 16.0302 49.1291 16.2644C48.926 16.7507 48.9817 17.0128 49.5608 18.2914C51.7729 23.1758 51.1666 29.2327 48.0259 33.6263C45.184 37.602 41.1491 39.8724 36.216 40.272C34.7139 40.3936 34.6041 40.422 34.2447 40.7814C33.969 41.0569 33.864 41.2887 33.864 41.6213C33.864 42.9608 34.8122 43.2571 37.7513 42.8364C41.4145 42.312 44.819 40.715 47.5022 38.2624C50.3673 35.6434 52.4413 32.0619 53.1927 28.4349C53.7103 25.9367 53.712 23.2327 53.1974 20.7864C52.7712 18.7601 51.7653 16.2593 51.1436 15.68C50.7917 15.3521 50.0399 15.3254 49.6117 15.6254ZM32.1099 18.4387C30.3676 20.1735 29.442 21.1901 29.3987 21.4162C29.2523 22.1819 29.9172 23.0032 30.6835 23.0032C31.2047 23.0032 31.5106 22.7892 32.8104 21.5152L33.8902 20.4567V25.7113V30.9658L32.2568 31.0092C30.7076 31.0504 30.6061 31.0699 30.2895 31.3869C29.5535 32.1236 29.8522 33.3218 30.8403 33.5961C31.1397 33.6792 32.9429 33.7346 35.3669 33.735C39.8391 33.7359 40.1157 33.6932 40.5028 32.9448C40.7802 32.4083 40.6711 31.7867 40.226 31.368C39.9151 31.0757 39.7719 31.0495 38.2679 31.0093L36.6452 30.966L36.6093 23.7671L36.5734 16.5683L36.1459 16.1863C35.8378 15.9112 35.584 15.8046 35.237 15.8046C34.7859 15.8046 34.5888 15.9707 32.1099 18.4387ZM22.3632 35.6032C21.5004 36.1846 21.5831 37.3828 22.5196 37.867C23.3659 38.3047 24.3618 37.6733 24.3618 36.699C24.3618 36.1206 24.0285 35.6235 23.5222 35.4471C22.9631 35.2522 22.8645 35.2654 22.3632 35.6032ZM51.8461 41.9948C48.5484 45.1298 44.3192 47.3733 40.1444 48.2023C39.0492 48.4198 39.0096 48.4399 39.1517 48.7063C39.8093 49.9404 47.024 62.8801 47.0979 62.9582C47.1503 63.0137 47.9763 61.2309 48.9336 58.9966C50.1609 56.1317 50.7711 54.8576 51.0035 54.6748C51.4471 54.3259 51.7061 54.3379 56.5333 54.9311C58.8008 55.2099 60.6616 55.4287 60.6684 55.4174C60.681 55.3965 53.2915 41.5606 53.0626 41.1767C52.9532 40.993 52.7715 41.1152 51.8461 41.9948ZM13.6977 48.3528C11.5541 52.2113 9.81661 55.3812 9.83663 55.397C9.85653 55.413 11.6987 55.2007 13.9303 54.9254C18.6888 54.3386 18.9517 54.3264 19.3946 54.6748C19.6271 54.8576 20.237 56.1309 21.4632 58.9935C22.4198 61.2261 23.2144 63.0383 23.2291 63.0207C23.2439 63.003 24.9793 59.7305 27.0855 55.7486C29.1919 51.7665 30.863 48.4639 30.7994 48.4092C30.7356 48.3546 30.2124 48.203 29.6365 48.0722C25.6878 47.1758 22.0415 45.2408 18.9238 42.3871C18.2868 41.804 17.7273 41.3294 17.6804 41.3322C17.6334 41.335 15.8412 44.4943 13.6977 48.3528Z" fill="#142535"/>
</g>
<defs>
<radialGradient id="paint0_radial_763_1522" cx="0" cy="0" r="1" gradientUnits="userSpaceOnUse" gradientTransform="translate(35.5 34.5) rotate(90) scale(27.5)">
<stop stop-color="#ADEEEE"/>
<stop offset="1" stop-color="#DBF4F4" stop-opacity="0"/>
</radialGradient>
</defs>
</svg>
