<svg width="70" height="68" viewBox="0 0 70 68" fill="none" xmlns="http://www.w3.org/2000/svg">
<mask id="mask0_763_1526" style="mask-type:alpha" maskUnits="userSpaceOnUse" x="0" y="0" width="70" height="68">
<rect width="70" height="68" fill="#D9D9D9"/>
</mask>
<g mask="url(#mask0_763_1526)">
<rect x="7" y="7" width="55" height="55" rx="10" fill="url(#paint0_radial_763_1526)"/>
<path fill-rule="evenodd" clip-rule="evenodd" d="M46.4041 0.474031C45.6669 0.794244 45.591 1.17871 45.591 4.59519C45.591 8.05 45.6628 8.40032 46.4369 8.72367C46.8451 8.89431 46.9542 8.89431 47.3624 8.72367C48.1365 8.40032 48.2082 8.05 48.2082 4.59519C48.2082 1.14456 48.1359 0.789795 47.3665 0.468404C46.8278 0.243326 46.9364 0.242672 46.4041 0.474031ZM34.9201 6.09418C34.6795 6.3347 34.5989 6.55533 34.5989 6.97316C34.5989 7.52029 34.641 7.57315 36.7951 9.7271C38.8642 11.7964 39.0199 11.9233 39.4878 11.9233C40.1809 11.9233 40.7492 11.355 40.7492 10.6618C40.7492 10.194 40.6223 10.0383 38.553 7.96913C36.3991 5.81506 36.3462 5.77292 35.7991 5.77292C35.3813 5.77292 35.1606 5.85353 34.9201 6.09418ZM55.2462 7.96913C53.177 10.0383 53.05 10.194 53.05 10.6618C53.05 11.355 53.6184 11.9233 54.3115 11.9233C54.7793 11.9233 54.9351 11.7964 57.0042 9.7271C59.1583 7.57315 59.2004 7.52029 59.2004 6.97316C59.2004 6.20306 58.7703 5.77292 58.0002 5.77292C57.4531 5.77292 57.4002 5.81506 55.2462 7.96913ZM46.0078 14.2942C44.4841 14.5477 42.9644 15.6761 42.2901 17.0546C41.8466 17.9614 41.6653 18.9985 41.6653 20.6286C41.6653 24.4549 39.5099 27.7941 35.1877 30.6636C32.756 32.278 28.5181 34.1171 24.7972 35.1724C23.0966 35.6548 23.0391 35.6622 22.8998 35.4174C22.5481 34.7999 21.5825 33.9124 20.9521 33.6274L20.2698 33.3188L13.3101 33.2807C5.51366 33.2381 5.57699 33.2317 5.21621 34.0951C4.92793 34.7851 4.92793 65.7451 5.21621 66.4351C5.57699 67.2985 5.51366 67.2921 13.3101 67.2495L20.2698 67.2114L20.9521 66.9028C21.5731 66.622 22.5478 65.7315 22.8869 65.1351C23.0085 64.9211 23.217 64.9558 25.8389 65.6272C31.5217 67.0824 32.2761 67.153 43.0393 67.2384C52.4753 67.3132 53.2059 67.277 54.4146 66.6749C56.9364 65.4185 57.9942 62.317 56.7736 59.7575C56.6034 59.4004 56.4762 59.1007 56.491 59.0916C56.5058 59.0825 56.7914 58.9454 57.1258 58.7871C58.4664 58.152 59.5687 56.6088 59.8547 54.9661C60.0269 53.9772 59.7894 52.5172 59.3298 51.7381C59.1808 51.4856 59.0761 51.2664 59.0969 51.2513C59.1178 51.236 59.4086 51.0938 59.743 50.9355C60.0773 50.7772 60.6408 50.3576 60.9952 50.0033C62.5755 48.4229 62.9751 46.0777 62.0085 44.0544C61.838 43.6973 61.7106 43.3976 61.7254 43.3884C61.7401 43.3794 62.0258 43.2423 62.3601 43.0839C62.6945 42.9256 63.258 42.5061 63.6123 42.1517C66.6101 39.154 64.955 34.0723 60.759 33.3914C60.2868 33.3149 57.7929 33.255 55.0539 33.2544L50.1877 33.2534L50.5531 32.1726C51.5551 29.208 51.9991 26.4647 52.0934 22.6538C52.1752 19.3458 52.0561 18.1709 51.5297 17.0958C50.5386 15.0717 48.2662 13.9188 46.0078 14.2942ZM30.7009 16.9623C30.4208 17.084 30.2033 17.3104 30.0775 17.6114C29.8077 18.2573 30.0812 18.9198 30.7296 19.1907C31.3885 19.466 36.2389 19.466 36.8978 19.1907C37.9046 18.77 37.9046 17.3774 36.8978 16.9567C36.2489 16.6855 31.3276 16.69 30.7009 16.9623ZM45.7873 16.9826C44.5942 17.6115 44.3417 18.1821 44.2329 20.4946C44.0919 23.4911 43.5727 25.2321 42.1968 27.3205C40.2329 30.3016 37.4161 32.5712 32.9631 34.7604C30.4994 35.9716 28.3292 36.7931 25.3733 37.6338L23.4104 38.192L23.377 50.2951L23.3436 62.3983L26.5831 63.2013C32.381 64.6387 32.5683 64.6545 43.7328 64.6574C51.8283 64.6594 52.8463 64.637 53.2201 64.448C55.28 63.4073 55.28 60.6776 53.2201 59.6369C52.8817 59.4658 52.3597 59.4253 50.5006 59.4253C47.8253 59.4253 47.3987 59.3195 47.0895 58.5794C46.9189 58.1712 46.9189 58.0621 47.0895 57.654C47.4214 56.8596 47.7093 56.8081 51.8092 56.8081C54.8736 56.8081 55.4817 56.7761 55.8373 56.5965C57.8972 55.5558 57.8972 52.826 55.8373 51.7853C55.4989 51.6143 54.9769 51.5737 53.1178 51.5737C50.4425 51.5737 50.0159 51.468 49.7067 50.7278C49.5361 50.3197 49.5361 50.2105 49.7067 49.8024C50.0386 49.0082 50.3264 48.9565 54.4251 48.9565C57.7142 48.9565 58.0761 48.9345 58.5186 48.7075C59.4577 48.2259 59.9856 47.3738 59.9856 46.3393C59.9856 45.3049 59.4577 44.4527 58.5186 43.9712C58.0957 43.7542 57.7365 43.7221 55.7337 43.7221C53.0598 43.7221 52.633 43.6163 52.3239 42.8763C52.1532 42.4681 52.1532 42.359 52.3239 41.9508C52.6557 41.1566 52.9436 41.105 57.0423 41.105C60.3314 41.105 60.6933 41.083 61.1358 40.8559C63.1068 39.8452 63.1068 37.1304 61.1358 36.1196C60.6727 35.8821 60.2422 35.8706 51.8079 35.8706C41.9568 35.8706 42.2177 35.8927 41.8551 35.0247C41.6866 34.6215 41.6858 34.5044 41.8487 34.1144C42.1514 33.39 42.3917 33.3258 45.0676 33.2534L47.4885 33.188L47.9291 32.0102C49.1021 28.8751 49.5688 25.9832 49.5761 21.8032C49.582 18.5639 49.5485 18.3779 48.8145 17.5703C48.1224 16.8086 46.657 16.5241 45.7873 16.9826ZM56.8728 16.9623C56.5927 17.084 56.3752 17.3104 56.2494 17.6114C55.9796 18.2573 56.2531 18.9198 56.9015 19.1907C57.5604 19.466 62.4108 19.466 63.0697 19.1907C64.0765 18.77 64.0765 17.3774 63.0697 16.9567C62.4207 16.6855 57.4995 16.69 56.8728 16.9623ZM7.64182 50.2651V64.6596H13.8023H19.9628L20.3453 64.2771L20.7278 63.8946V50.2651V36.6356L20.3453 36.2531L19.9628 35.8706H13.8023H7.64182V50.2651ZM16.3064 41.3022C16.0262 41.4239 15.8088 41.6502 15.683 41.9512C15.4124 42.5991 15.6865 43.2596 16.3393 43.5323C16.7474 43.7029 16.8565 43.7029 17.2647 43.5323C18.2756 43.11 18.2782 41.7183 17.2689 41.2965C16.7301 41.0715 16.8387 41.0708 16.3064 41.3022ZM16.3064 46.5365C15.5137 46.881 15.4934 47.0389 15.4934 52.8823C15.4934 58.7721 15.5088 58.8885 16.3393 59.2354C16.7474 59.406 16.8565 59.406 17.2647 59.2354C18.0951 58.8885 18.1106 58.7721 18.1106 52.8823C18.1106 46.9977 18.0945 46.8758 17.2689 46.5309C16.7301 46.3058 16.8387 46.3052 16.3064 46.5365Z" fill="#142535"/>
</g>
<defs>
<radialGradient id="paint0_radial_763_1526" cx="0" cy="0" r="1" gradientUnits="userSpaceOnUse" gradientTransform="translate(34.5 34.5) rotate(90) scale(27.5)">
<stop stop-color="#ADEEEE"/>
<stop offset="1" stop-color="#DBF4F4" stop-opacity="0"/>
</radialGradient>
</defs>
</svg>
