<svg width="61" height="63" viewBox="0 0 61 63" fill="none" xmlns="http://www.w3.org/2000/svg">
<mask id="mask0_765_7003" style="mask-type:alpha" maskUnits="userSpaceOnUse" x="0" y="0" width="61" height="63">
<rect x="0.299805" width="60" height="63" fill="#D9D9D9"/>
</mask>
<g mask="url(#mask0_765_7003)">
<rect x="-4" y="2" width="55" height="55" rx="10" fill="url(#paint0_radial_765_7003)"/>
<path d="M5.8115 8.7353C5.6279 8.8766 5.52031 9.0951 5.52031 9.3268V14.0236V19.0766L3.0339 21.5751L1.4068 23.2101C0.849103 23.7704 0.535203 24.5283 0.533203 25.3188L0.502704 37.608C0.491504 46.7169 0.513904 51.3217 0.592304 51.7027C0.894704 53.148 1.8467 54.3804 3.1683 55.0303C3.6472 55.2661 4.17391 55.3888 4.70781 55.3888H24.0003H43.2977C43.8287 55.3888 44.353 55.2701 44.8323 55.0415C45.6499 54.6493 46.4451 53.9323 46.8819 53.1928C47.5427 52.0724 47.5203 52.6102 47.5203 37.7649V24.9906C47.5203 24.4664 47.32 23.962 46.9603 23.5806C46.6467 23.2445 45.5379 22.1353 44.4963 21.0933L42.6035 19.1998L42.5699 14.1244L42.539 9.4509C42.5373 9.1885 42.4219 8.9397 42.2227 8.7689C42.0203 8.5954 41.7626 8.5 41.496 8.5H34.8755C27.9315 8.5 27.8307 8.5 27.5395 8.7353C27.3155 8.9145 27.2483 9.0602 27.2483 9.3963C27.2483 9.7324 27.3155 9.8781 27.5395 10.0574C27.8307 10.2926 27.9315 10.2926 34.2595 10.2926H40.6883V19.6816V29.0594L32.3667 37.3839C27.7971 41.9552 24.0003 45.6973 23.9443 45.6973C23.8771 45.6973 20.1139 41.9776 15.5667 37.4288L7.3123 29.1714V19.7264V10.2926H13.7523H19.8153C20.0633 10.2926 20.3006 10.1915 20.4723 10.0125C20.6515 9.8445 20.7523 9.6092 20.7523 9.3963C20.7523 9.1834 20.6515 8.9482 20.4723 8.7801C20.3006 8.6012 20.0633 8.5 19.8153 8.5H13.1587C6.1923 8.5 6.1027 8.5 5.8115 8.7353ZM5.52031 24.5217C5.52031 26.0007 5.4867 27.2107 5.4307 27.2107C5.3859 27.2107 4.7475 26.6057 4.0083 25.8662L2.6643 24.5217L4.0083 23.1773C4.7475 22.4378 5.3859 21.8328 5.4307 21.8328C5.4867 21.8328 5.52031 23.0428 5.52031 24.5217ZM43.9699 23.1548L45.2803 24.4657L43.9363 25.8102L42.5923 27.1547V24.4881C42.5923 23.0316 42.6035 21.8328 42.6259 21.8328C42.6371 21.8328 43.2419 22.4266 43.9699 23.1548ZM45.7283 38.8069C45.7283 50.3806 45.6835 51.9716 45.4035 51.9716C45.3475 51.9716 42.5027 49.1594 39.0755 45.7309L32.8371 39.4903L39.1987 33.1264C42.6931 29.6308 45.5939 26.7625 45.6387 26.7625C45.6947 26.7625 45.7283 32.1853 45.7283 38.8069ZM8.9587 45.7758C5.5651 49.1818 2.7203 51.9716 2.6531 51.9716C2.5747 51.9716 2.4963 51.8595 2.4515 51.7251C2.4179 51.5794 2.3843 45.9214 2.3843 39.143V26.8186L8.7683 33.2048L15.1523 39.5911L8.9587 45.7758ZM23.9555 47.9381C24.3811 47.9381 24.4819 47.8485 27.9203 44.4089C29.8579 42.4706 31.4819 40.8796 31.5155 40.8796C31.5603 40.8796 34.3939 43.6918 37.8323 47.1202L44.0707 53.3721L43.7459 53.5065C43.3091 53.697 4.8371 53.7194 4.2883 53.5289L3.9299 53.3945L10.1795 47.1426L16.4403 40.8796L19.9683 44.4089C23.4179 47.8485 23.5187 47.9381 23.9555 47.9381Z" fill="#142535"/>
<path d="M23.3842 8.7801C22.8242 9.3291 23.2162 10.2927 24.0002 10.2927C24.4594 10.2927 24.8962 9.8557 24.8962 9.3963C24.8962 8.937 24.4594 8.5 24.0002 8.5C23.7874 8.5 23.5522 8.6009 23.3842 8.7801Z" fill="#142535"/>
<path d="M22.6984 14.6236C19.4728 15.1614 16.3928 17.6935 15.1944 20.7858C14.6568 22.1863 14.5 23.0378 14.5 24.4719C14.5 26.2085 14.8024 27.5082 15.5752 29.0431C17.0984 32.0682 20.268 34.1746 23.6168 34.4099C24.5128 34.4659 24.5576 34.4547 24.8152 34.1746C25.1624 33.8048 25.1736 33.3007 24.8376 32.9421C24.6472 32.7293 24.4344 32.6732 23.7848 32.6172C20.3352 32.3259 17.3896 29.7938 16.5272 26.3766C16.2024 25.0881 16.2696 23.2507 16.684 21.9734C17.4232 19.6878 19.1928 17.8167 21.4552 16.898C25.3416 15.3294 29.9 17.066 31.7256 20.8306C32.3192 22.0518 32.4312 22.5672 32.4424 23.7997C32.4424 24.9313 32.2296 25.8948 31.7816 26.8471C31.3784 27.6986 31.2776 27.8331 30.7176 28.214C30.2248 28.5389 29.2952 28.6174 28.948 28.3485C28.444 27.9787 28.4104 27.609 28.4104 23.3515V19.6951C28.4104 19.447 28.3093 19.2097 28.1304 19.0379C27.9624 18.8587 27.7272 18.7578 27.5144 18.7578C27.0888 18.7578 26.6184 19.1948 26.6184 19.5981C26.6184 19.9455 26.596 19.9455 26.0808 19.5981C25.8456 19.4413 25.3192 19.2396 24.8936 19.1276C22.6648 18.5786 20.324 20.0911 19.5512 22.5672C19.2712 23.4859 19.2488 25.0321 19.5064 26.0517C20.1336 28.4605 22.2056 30.1523 24.2664 29.917C25.0056 29.8274 25.9352 29.4129 26.4728 28.9535L26.8648 28.6062L27.156 29.0543C27.7944 29.9955 28.8024 30.4884 29.8888 30.3652C31.188 30.2308 32.3864 29.4689 33.1368 28.2813C33.5512 27.6426 34.0776 25.9396 34.2456 24.7296C34.7832 20.9314 32.0616 16.7187 28.052 15.1726C26.4504 14.5451 24.412 14.3435 22.6984 14.6236ZM25.0504 21.1107C25.5768 21.3796 26.0024 21.9174 26.2824 22.6568C26.9656 24.4383 26.4616 26.5782 25.1288 27.6538C24.7368 27.9675 24.6136 28.0012 23.8968 28.0012C23.18 28.0012 23.0344 27.9675 22.62 27.665C20.9736 26.4774 20.6264 23.6988 21.9032 21.9062C22.0488 21.7157 22.4184 21.402 22.732 21.2227C23.46 20.8082 24.3672 20.7634 25.0504 21.1107Z" fill="#142535"/>
</g>
<defs>
<radialGradient id="paint0_radial_765_7003" cx="0" cy="0" r="1" gradientUnits="userSpaceOnUse" gradientTransform="translate(23.5 29.5) rotate(90) scale(27.5)">
<stop stop-color="#ADEEEE"/>
<stop offset="1" stop-color="#DBF4F4" stop-opacity="0"/>
</radialGradient>
</defs>
</svg>
