<svg width="61" height="63" viewBox="0 0 61 63" fill="none" xmlns="http://www.w3.org/2000/svg">
<mask id="mask0_765_7002" style="mask-type:alpha" maskUnits="userSpaceOnUse" x="0" y="0" width="61" height="63">
<rect x="0.200195" width="60" height="63" fill="#D9D9D9"/>
</mask>
<g mask="url(#mask0_765_7002)">
<rect x="-1" y="2" width="55" height="55" rx="10" fill="url(#paint0_radial_765_7002)"/>
<path d="M15.0059 43.9656C15.5581 43.9656 16.0059 43.5179 16.0059 42.9656C16.0059 42.4133 15.5581 41.9656 15.0059 41.9656C14.4536 41.9656 14.0059 42.4133 14.0059 42.9656C14.0059 43.5179 14.4536 43.9656 15.0059 43.9656Z" fill="#142535"/>
<path d="M9.7213 8.66521C8.6379 8.97171 8.1547 9.3512 5.7536 11.7889C3.2208 14.358 2.2838 15.6863 1.5225 17.7882C0.775799 19.8464 0.600098 20.8828 0.600098 23.1453C0.614698 25.5538 0.995399 27.3201 1.947 29.3052C2.9426 31.3634 3.6454 32.2246 7.818 36.414C11.4928 40.0924 11.932 40.4865 12.3566 40.4865C12.913 40.4865 13.2351 40.1508 13.2351 39.5231C13.2351 39.1728 12.6201 38.5013 9.2674 35.144C7.0859 32.9545 5.0216 30.7941 4.6995 30.3124C3.8796 29.1009 3.1769 27.5244 2.8109 26.0355C2.3863 24.2693 2.3863 21.5981 2.8255 19.934C3.1769 18.6057 4.0114 16.7665 4.6702 15.8323L5.1241 15.2046L10.3655 20.4303L15.6069 25.656L15.6215 27.0281C15.6654 29.2323 15.4897 29.0133 22.2977 35.7863C29.1056 42.5739 28.886 42.4133 31.0675 42.4133H32.4144L37.6558 47.639L42.8826 52.8501L42.4433 53.2005C41.7991 53.7259 39.9983 54.6018 38.7246 55.0105C37.8315 55.2878 37.202 55.3754 35.5622 55.4338C33.2343 55.5214 32.1948 55.3462 30.2915 54.6164C28.2272 53.8135 27.2023 53.0107 23.1029 48.9381C21.0239 46.8654 19.1353 45.0554 18.9157 44.9094C18.6668 44.7488 18.4032 44.6904 18.2129 44.7488C17.7883 44.8802 17.437 45.4787 17.5394 45.8874C17.6712 46.4129 25.5626 54.1347 26.807 54.9375C28.0954 55.7841 29.3692 56.368 31.0528 56.8935C32.2534 57.2584 32.5169 57.2876 35.0498 57.2876C37.5826 57.2876 37.8461 57.2584 39.076 56.8935C42.0334 55.9885 44.0831 54.631 47.0259 51.6386C49.2366 49.376 49.6027 48.7046 49.6027 46.9384C49.6027 44.9532 49.3831 44.6174 45.4008 40.6179C41.3746 36.5891 40.9207 36.2826 38.9296 36.2826C37.2166 36.2826 36.4406 36.6913 34.4788 38.6181C33.6296 39.4501 32.678 40.2384 32.3852 40.3551C31.6531 40.6617 30.4086 40.6471 29.8084 40.3259C29.0178 39.9172 18.0665 28.9403 17.759 28.2543C17.4223 27.5244 17.4077 26.415 17.7298 25.729C17.8615 25.4225 18.6668 24.5028 19.5013 23.6562C21.4485 21.7002 21.7999 21.0288 21.7999 19.2771C21.7999 17.219 21.5949 16.9124 17.5834 12.8837C14.7577 10.0519 14.0403 9.40961 13.279 9.03011C12.2102 8.50461 10.7901 8.35861 9.7213 8.66521ZM12.2834 10.6503C13.074 11.0007 19.3256 17.2336 19.6916 18.0364C20.043 18.7954 20.043 19.7734 19.677 20.5033C19.5159 20.839 18.7693 21.7294 17.9933 22.4885L16.6024 23.8752L11.5075 18.7954L6.4271 13.7157L7.9644 12.2268C8.9453 11.2634 9.692 10.6649 10.0141 10.5628C10.7901 10.3146 11.6392 10.3438 12.2834 10.6503ZM40.1008 38.3845C40.4961 38.5597 41.8431 39.8004 44.0099 41.9754C46.7477 44.7196 47.3773 45.4203 47.5676 45.9604C48.0507 47.4055 47.7286 48.1645 45.8107 50.0913L44.3613 51.551L39.2956 46.5005L34.2445 41.4645L35.5622 40.1508C37.5094 38.1948 38.6807 37.7423 40.1008 38.3845Z" fill="#142535"/>
<path d="M29.9402 8.78191C27.8612 9.84751 27.8319 12.8253 29.9109 13.8617C30.2476 14.0368 30.9504 14.1682 31.8874 14.2266C36.426 14.5477 40.4083 17.1168 42.4287 21.0288C43.2632 22.6199 43.6585 24.0504 43.8342 26.0355C44.0099 27.8894 44.1856 28.3857 44.903 29.0133C46.5428 30.4438 48.9731 29.6556 49.5588 27.5098C49.7637 26.8238 49.6173 24.9408 49.2513 23.1453C48.5193 19.5691 46.8502 16.5475 44.1417 13.8763C40.745 10.5044 36.8506 8.76731 32.1509 8.53381C30.7308 8.46081 30.5258 8.49001 29.9402 8.78191ZM33.82 10.592C41.0671 11.8181 46.4842 17.3504 47.553 24.5758C47.8312 26.3567 47.8458 26.926 47.6408 27.3055C47.2016 28.1229 46.1475 27.9477 45.8839 27.0281C45.8107 26.7362 45.7375 26.1815 45.7375 25.802C45.7375 24.1817 44.8152 21.1894 43.7903 19.5107C41.8724 16.3578 39.1053 14.1536 35.6354 13.0151C34.6252 12.6793 32.2827 12.2706 31.3603 12.2706C30.3501 12.2706 29.8962 11.3948 30.5404 10.7087C30.9211 10.3 31.8727 10.2562 33.82 10.592Z" fill="#142535"/>
<path d="M30.2181 16.4015C29.5447 16.6205 28.6662 17.5255 28.4759 18.2115C28.227 19.0728 28.2856 19.5983 28.6809 20.3865C29.1933 21.3937 29.7789 21.744 31.404 21.9922C32.9852 22.2257 33.7905 22.576 34.6104 23.4081C35.4888 24.2693 35.9134 25.2181 36.0744 26.5756C36.1476 27.2179 36.3087 27.9185 36.4258 28.1521C36.865 29.0133 38.0949 29.7869 39.0026 29.7869C40.1299 29.7869 41.3744 28.8235 41.7111 27.6996C42.0918 26.4296 41.6526 23.9627 40.7302 22.1381C39.1929 19.1166 36.4551 17.073 33.1024 16.4307C31.7701 16.1826 30.9502 16.168 30.2181 16.4015ZM33.9954 18.6349C37.3775 19.7588 39.7639 22.8972 39.9103 26.415C39.9542 27.2325 39.9103 27.3638 39.6029 27.612C39.149 27.9915 38.7683 27.9623 38.3437 27.5244C38.0509 27.2471 37.9777 27.0135 37.9777 26.4734C37.9777 25.6706 37.7142 24.7072 37.2457 23.7876C36.1769 21.6856 34.1272 20.3427 31.5651 20.08C30.877 20.007 30.5988 19.9048 30.4377 19.6712C30.101 19.2041 30.1742 18.7516 30.6281 18.4013C30.9795 18.1094 31.1405 18.0948 31.975 18.1678C32.4875 18.2261 33.4098 18.4305 33.9954 18.6349Z" fill="#142535"/>
<path d="M29.6911 24.4736C28.9005 24.9845 28.4759 25.656 28.3588 26.5464C28.1538 28.2542 29.4861 29.7869 31.1698 29.7869C33.3659 29.7869 34.8007 27.1303 33.5709 25.3495C32.9999 24.5028 32.2093 24.0941 31.1698 24.0941C30.4524 24.0941 30.1596 24.1671 29.6911 24.4736Z" fill="#142535"/>
<path d="M31.0059 27.9656C31.5581 27.9656 32.0059 27.5179 32.0059 26.9656C32.0059 26.4133 31.5581 25.9656 31.0059 25.9656C30.4536 25.9656 30.0059 26.4133 30.0059 26.9656C30.0059 27.5179 30.4536 27.9656 31.0059 27.9656Z" fill="white"/>
</g>
<defs>
<radialGradient id="paint0_radial_765_7002" cx="0" cy="0" r="1" gradientUnits="userSpaceOnUse" gradientTransform="translate(26.5 29.5) rotate(90) scale(27.5)">
<stop stop-color="#ADEEEE"/>
<stop offset="1" stop-color="#DBF4F4" stop-opacity="0"/>
</radialGradient>
</defs>
</svg>
