<svg width="143" height="50" viewBox="0 0 143 50" fill="none" xmlns="http://www.w3.org/2000/svg">
<mask id="mask0_758_12017" style="mask-type:alpha" maskUnits="userSpaceOnUse" x="0" y="0" width="143" height="50">
<rect width="143" height="50" fill="#D9D9D9"/>
</mask>
<g mask="url(#mask0_758_12017)">
<path d="M6.79996 25.5001C4.79996 24.7001 3.96663 26.5001 3.79996 27.5001H3.29993C2.96661 28.0001 2.39996 29.1 2.79996 29.5C3.29996 30 1.79996 34.5 2.29996 37.5C2.79996 40.5 7.79996 40.5 9.29996 41C10.8 41.5 12.8 40.5 15.3 40.5C17.8 40.5 21.0838 37.5 21.3 37C21.5161 36.5 23.8 38 24.8 38.5C25.8 39 27.3 39 28.3 38C29.1 37.2 30.9666 36.6667 31.8 36.5C32.1333 36.8333 33.1 37.6 34.3 38C35.8 38.5 38.3 39 38.8 38C39.3 37 40.3 37.5 41.8 38.5C43.3 39.5 45.8 39 46.3 38.5C46.8 38 48.3 37 48.3 37.5C48.3 38 50.3 39 52.3 39C54.3 39 56.8 37.5 56.8 37C56.8 36.6 58.8 36.1667 59.8 36C59.9666 36.5 60.5 37.8 61.3 39C62.1 40.2 64.6333 39.1667 65.8 38.5C66.3 38.1667 67.4 37.6 67.8 38C68.2 38.4 71.3 38.8333 72.8 39L75.3 37.5C76.3 37.6667 78.7 38.1 80.3 38.5C81.9 38.9 83.3 38 83.8 37.5L87.3 35L89.8 38C90.8 38.6667 93.1 39.9 94.3 39.5C95.5 39.1 97.1333 38.3333 97.8 38L101.3 36.5L104.8 39C105.967 38.6667 108.3 37.9 108.3 37.5C108.3 37 110.8 36.5 110.8 37C110.8 37.4 114.467 38.5 116.3 39L121.3 37.5C122.3 37.8333 124.5 38.5 125.3 38.5C126.3 38.5 129.8 39 130.8 38.5C131.8 38 134.8 35 134.8 34.5C134.8 34 135.3 31.5 135.3 30.5C135.3 29.5 136.3 29.5 136.8 29C137.3 28.5 138.3 25 138.3 24C138.3 23 135.8 22 134.8 21.5C133.8 21 130.8 21.5 129.8 22C128.8 22.5 126.8 25 126.3 26C125.8 27 124.3 27 124.091 27C123.881 27 123.3 24.5 122.3 23C121.3 21.5 119.8 23 118.3 22C116.8 21 113.8 21.5 112.3 21.5C110.8 21.5 108.8 22 107.3 23.5C105.8 25 105.3 26.5 104.8 27C104.4 27.4 102.967 26.5 102.3 26C101.467 25 99.5 22.8 98.3 22C97.1 21.2 95.4666 22 94.8 22.5C93.6333 23.3333 91.2 25.1 90.8 25.5C90.3 26 86.8 27 86.3 25C85.8 23 82.8 23 82.3 22.5C81.9 22.1 77.4666 22.6667 75.3 23H65.8C64.3 23.8333 61.2 25.5 60.8 25.5C60.3 25.5 59.3 26 59.3 25C59.3 24.2 57.9666 23.3333 57.3 23H51.8H43.8H37.3H32.3C31.1333 22.5 28.7 21.5 28.3 21.5C27.8 21.5 28.3 17.5 28.3 17V11.5L23.3 8.99998C22.3 8.49998 18.3 9.49998 15.3 11.5C12.3 13.5 11.8 21 11.8 21.5C11.8 21.9 12.1333 26 12.3 28C11.3 27.5 8.79996 26.3001 6.79996 25.5001Z" fill="#004A98"/>
<circle cx="33.0499" cy="18.75" r="3.25" fill="#EE3A43"/>
<path fill-rule="evenodd" clip-rule="evenodd" d="M21.7555 7.56943C18.6107 7.82817 15.6815 9.19015 13.4115 11.4492C11.8779 12.9752 10.8197 14.6912 10.1794 16.6899C9.77721 17.9456 9.68731 18.577 9.68872 20.1341C9.69027 21.7281 9.82402 22.5579 10.2713 23.7486C10.4058 24.1067 10.5005 24.3996 10.4819 24.3996C10.4632 24.3996 10.2592 24.3416 10.0285 24.2706C9.69161 24.167 9.32456 24.1415 8.16257 24.1408C6.59867 24.1399 6.05157 24.2182 5.08862 24.5807C3.29972 25.254 1.55726 27.1248 0.772193 29.2147C0.352768 30.3314 0.200695 31.24 0.199953 32.6338C0.197802 36.6252 1.87283 39.6115 5.01407 41.2164C6.79896 42.1283 8.4912 42.5 10.8574 42.5C14.8208 42.5 18.2601 41.3107 20.8863 39.0321L21.4813 38.5158L21.9214 38.9158C23.7281 40.5577 26.0557 41.007 28.1918 40.1262C28.8548 39.8527 29.4831 39.4353 30.5284 38.5735C30.9772 38.2035 31.3611 37.9016 31.3815 37.9026C31.4019 37.9037 31.5331 38.0733 31.673 38.2794C32.2844 39.1806 33.2505 39.774 34.8681 40.242C35.6521 40.4688 35.91 40.5107 36.5372 40.5127C37.8112 40.5171 38.7929 40.1838 39.7378 39.4262L40.2319 39.03L40.6959 39.3476C41.1995 39.6924 41.5559 39.841 42.8723 40.2542C43.6751 40.5063 43.7975 40.5245 44.6972 40.5263C45.5633 40.5279 45.7219 40.5071 46.2543 40.3217C46.9328 40.0854 47.5204 39.748 48.0213 39.3071L48.3691 39.0009L48.65 39.2233C49.08 39.564 49.5726 39.8023 50.4752 40.1064C51.2983 40.3839 51.3011 40.3843 52.5234 40.3805C53.6412 40.377 53.8052 40.359 54.415 40.1726C55.7292 39.7711 57.0278 39.0426 57.9869 38.1689L58.4431 37.7533L58.678 38.1195C59.0024 38.625 59.8183 39.3746 60.3508 39.6563C60.5949 39.7855 61.2453 40.0329 61.7961 40.2061C62.7503 40.5061 62.8413 40.521 63.7249 40.5213C64.5268 40.5216 64.7323 40.4952 65.2456 40.3265C65.8966 40.1125 66.5171 39.7669 67.0509 39.321L67.3969 39.032L67.7307 39.2898C68.2252 39.6717 68.6371 39.8599 69.7405 40.2085C70.6805 40.5054 70.7859 40.523 71.6623 40.5284C72.4943 40.5336 72.6571 40.5121 73.2465 40.3189C73.9314 40.0944 74.7975 39.5816 75.1778 39.1755L75.3922 38.9466L75.855 39.2769C76.4091 39.6722 76.8774 39.8855 77.8194 40.1717C78.4676 40.3686 78.6135 40.3854 79.6369 40.3801C80.6274 40.3751 80.8229 40.3521 81.4172 40.1715C82.769 39.7608 83.7894 39.1876 85.5656 37.8412C86.541 37.1018 86.6038 37.0663 86.6975 37.2013C87.8536 38.8678 88.9305 39.7916 90.4179 40.3923C93.3699 41.5847 97.2622 40.7655 100.136 38.3469C100.435 38.095 100.688 37.8999 100.696 37.9133C100.705 37.9268 100.775 38.038 100.852 38.1604C101.106 38.5655 101.721 39.1582 102.205 39.4638C102.795 39.8362 104.427 40.3929 105.256 40.5045C106.272 40.6413 107.463 40.405 108.375 39.8856C108.906 39.583 109.723 38.8036 110.077 38.262L110.363 37.8255L110.716 38.2751C111.565 39.3555 112.85 40.1346 114.346 40.4752C115.006 40.6256 116.728 40.6413 117.507 40.5041C118.345 40.3564 119.645 39.9438 120.556 39.5359L121.369 39.1716L121.963 39.5689C123.197 40.3952 124.535 40.7825 126.372 40.8456C128.326 40.9128 129.906 40.5944 131.572 39.7976C134.354 38.4669 136.149 36.2399 136.568 33.5982C136.674 32.929 136.66 31.7329 136.538 31.1131C136.482 30.8275 136.458 30.5743 136.485 30.5504C136.512 30.5266 136.691 30.4495 136.882 30.3793C137.925 29.9955 138.922 29.0146 139.399 27.903C139.968 26.5766 139.981 24.5673 139.43 23.192C138.744 21.4819 137.179 20.17 135.199 19.6443C134.348 19.4183 132.401 19.3653 131.236 19.5365C128.407 19.9519 126.158 21.4392 125.052 23.6254C124.834 24.0578 124.689 24.1997 124.505 24.1642C124.366 24.1374 124.355 24.1195 123.903 23.1385C123.328 21.8927 122.255 21.031 120.622 20.5045C119.404 20.1117 117.636 20.1718 116.096 20.6583L115.484 20.8516L114.993 20.6281C114.196 20.2653 114.109 20.2527 110.979 20.0491C109.791 19.9719 108.604 20.3859 107.72 21.1855C107.471 21.4107 106.788 22.1675 106.203 22.8675C104.952 24.3618 104.243 25.0675 103.994 25.0667C103.856 25.0664 103.764 24.9624 103.547 24.566C102.408 22.477 100.732 21.0685 98.6109 20.4169C98.0127 20.2331 97.8543 20.2165 96.6616 20.2126C95.1506 20.2077 94.649 20.3136 93.5089 20.8783C92.6018 21.3277 92.2158 21.6331 90.2989 23.4177C89.3903 24.2638 88.5622 24.9881 88.459 25.0273C88.176 25.1348 88.0682 25.0228 87.7547 24.2955C86.9704 22.4753 85.6774 21.3443 83.7911 20.8283C83.3023 20.6945 82.9948 20.6654 82.0478 20.6633C80.7871 20.6604 80.2263 20.7602 79.012 21.2033L78.39 21.4303L78.1582 21.287C77.7148 21.013 76.6149 20.7001 75.7615 20.6053C74.3927 20.4531 72.7992 20.6671 71.1902 21.2192L70.5325 21.4449L70.1102 21.2554C69.3667 20.9217 68.7593 20.8194 67.7678 20.8606C65.7702 20.9437 64.0544 21.7834 61.8486 23.7573C61.4083 24.1514 61.0139 24.4738 60.9721 24.4738C60.7755 24.4738 60.595 24.2828 60.3489 23.8146C59.8083 22.7859 58.838 21.8403 57.8295 21.3593C56.9881 20.9581 56.3688 20.8254 55.1568 20.7865C53.8685 20.7452 53.1007 20.8677 51.9632 21.2961L51.2916 21.549L50.7097 21.2767C49.7486 20.8268 49.1979 20.7275 47.6645 20.728C46.1658 20.7284 45.428 20.8507 44.0657 21.3249L43.337 21.5786L42.8608 21.3558C41.7301 20.8266 40.2311 20.781 38.8704 21.2343L38.3848 21.3961L38.5894 20.8022C39.7208 17.5185 37.7351 13.9397 34.3285 13.1229C33.2631 12.8675 31.8391 12.9615 30.8466 13.3527C30.6453 13.432 30.4534 13.4802 30.4203 13.4597C30.3872 13.4392 30.3375 13.2716 30.3098 13.0871C30.1909 12.2944 29.7015 11.1773 29.1385 10.4132C27.9192 8.75879 26.1547 7.78871 23.9536 7.56282C23.123 7.47759 22.8615 7.47841 21.7555 7.56943ZM21.1815 10.7216C18.8868 11.1335 16.9662 12.1536 15.4139 13.7848C13.3759 15.9264 12.4158 18.6107 12.7667 21.1859C12.9303 22.3857 13.3678 23.439 14.6042 25.6102C15.8357 27.7724 16.2097 29.1223 15.9527 30.4772C15.5087 32.8182 12.9222 34.7844 10.6896 34.478C9.34266 34.2931 8.46924 33.3966 8.34506 32.0714C8.24261 30.9783 8.51071 29.9145 9.25342 28.4666C9.86579 27.2727 9.78886 27.1822 8.16257 27.1817C6.4365 27.1812 5.80336 27.4217 4.83358 28.4462C3.61907 29.7293 3.08059 31.4302 3.26775 33.3921C3.54452 36.2937 4.92008 38.098 7.51645 38.9652C8.63778 39.3396 9.25475 39.4212 10.9444 39.418C12.5926 39.415 13.1425 39.3478 14.5826 38.9736C17.5447 38.2041 19.9705 36.2385 21.2627 33.5611C22.2787 31.4558 22.5466 29.8667 22.1496 28.3014C21.8951 27.2985 21.4263 26.251 20.3986 24.3895C18.6841 21.284 18.2121 20.1214 18.129 18.7989C18.0789 18.0038 18.2101 17.3485 18.5662 16.6153C18.9207 15.8853 20.099 14.7224 20.8477 14.3638C22.1174 13.7555 23.0491 14.0176 23.1311 15.0062C23.1845 15.6498 22.9333 16.2906 22.0661 17.7232C21.3241 18.9492 21.2614 19.5537 21.8236 20.0616C22.1929 20.3953 22.6174 20.5904 23.2788 20.7306C24.3621 20.9601 24.7898 20.8168 25.2894 20.0569C25.8576 19.1927 26.9966 16.6402 27.2741 15.609C27.4049 15.123 27.4017 14.0069 27.2679 13.5046C26.9015 12.128 25.8179 11.0832 24.3743 10.7147C23.8077 10.57 22.0042 10.5739 21.1815 10.7216ZM32.1166 16.1577C31.337 16.4072 30.7033 16.9677 30.3505 17.7198C30.181 18.0811 30.1207 18.2261 30.1207 18.9101C30.1207 19.6218 30.1512 19.9291 30.3505 20.3349C30.768 21.1854 31.5645 21.5618 32.515 21.7371C33.723 21.9596 35.0138 21.2834 35.5779 20.1325C35.7764 19.7277 35.7953 19.6212 35.7953 18.9101C35.7953 18.2236 35.7722 18.0818 35.5999 17.7143C34.979 16.3903 33.4815 15.7211 32.1166 16.1577ZM131.638 22.5531C130.474 22.721 129.25 23.2791 128.574 23.9495C128.113 24.4076 127.566 25.3258 127.291 26.1058C127.047 26.796 127.04 28.3213 127.277 29.1866C127.503 30.0155 127.903 30.9326 128.341 31.6323C129.169 32.9521 129.429 33.73 129.29 34.4721C129.153 35.2102 128.586 35.7876 127.82 35.9714C127.316 36.0923 126.761 35.9668 126.203 35.6059C125.741 35.3076 125.52 35.0521 125.318 34.5854C125.162 34.223 125.164 33.2227 125.323 32.5489C125.527 31.6811 125.59 31.1541 125.515 30.9569C125.358 30.5421 124.368 30.4194 123.701 30.732C123.241 30.9474 122.844 31.2612 121.611 32.3835C119.58 34.2309 117.918 35.1324 117.646 34.5343C117.505 34.2256 117.749 33.6362 119.241 30.6819C120.88 27.4353 121.212 26.5826 121.273 25.4632C121.305 24.8641 121.29 24.7425 121.142 24.4378C120.831 23.7952 119.757 23.2869 118.711 23.2869C117.832 23.2869 116.394 23.6932 115.265 24.2604C114.814 24.4872 114.458 24.5333 114.333 24.3811C114.291 24.3301 114.221 24.1518 114.176 23.9849C114.095 23.6802 113.967 23.5223 113.681 23.3752C113.534 23.299 111.368 23.1091 110.682 23.1123C110.076 23.1149 109.823 23.3183 108.593 24.7884C106.353 27.467 105.42 28.2216 103.168 29.1781C101.953 29.6941 101.762 29.6381 101.675 28.7393C101.611 28.0771 101.389 27.2062 101.133 26.6096C100.516 25.1718 99.6742 24.2361 98.4791 23.6603C96.8019 22.8523 95.1708 23.1236 93.6822 24.4581C93.3768 24.7319 92.3784 25.6541 91.4634 26.5073C88.64 29.1401 86.6178 30.9061 85.1045 32.0601C84.4834 32.5338 84.3951 32.579 84.2143 32.5158C83.8841 32.4004 83.9211 32.138 84.4882 30.5724C85.1547 28.7324 85.2688 28.183 85.2156 27.0702C85.1663 26.0384 84.9856 25.4058 84.5775 24.8359C84.2338 24.3559 83.87 24.0867 83.2664 23.8657C82.6399 23.6364 81.4961 23.6385 80.6754 23.8705C79.9981 24.062 79.0795 24.5013 78.5612 24.8818C78.1343 25.1952 77.8772 25.215 77.6931 24.9486C77.1496 24.1624 76.5292 23.7849 75.5638 23.6527C74.1609 23.4608 71.9464 23.9992 70.6909 24.8377C70.0818 25.2443 69.9386 25.2357 69.6553 24.7752C69.3843 24.335 68.8769 23.9797 68.4212 23.9114C67.2653 23.7381 65.6293 24.4645 64.1329 25.8154C63.8065 26.1101 62.5713 27.2772 61.3881 28.4089C58.1995 31.4589 57.546 32.014 57.236 31.9362C56.9371 31.8612 56.9332 31.612 57.2202 30.9186C58.3759 28.1267 58.371 25.8409 57.2068 24.6412C56.0225 23.4209 53.5092 23.5585 51.5145 24.9529C50.8461 25.4201 50.7756 25.4091 50.3541 24.7705C50.1323 24.4344 49.5727 24.0613 49.046 23.8982C48.376 23.6908 46.7622 23.7296 45.8344 23.9754C44.9418 24.2119 44.0464 24.5958 43.4706 24.9889C43.2282 25.1544 42.9643 25.2898 42.8843 25.2898C42.8019 25.2898 42.6507 25.1692 42.5354 25.0116C41.8751 24.1093 41.3429 23.8642 40.38 24.0193C39.2021 24.209 38.4183 24.7968 32.4696 29.952C30.8852 31.325 29.5125 32.4952 29.419 32.5526C29.2196 32.6748 29.0077 32.617 29.0077 32.4403C29.0077 32.3722 29.8796 30.6161 30.9453 28.538C32.7048 25.1067 32.8787 24.7347 32.8388 24.4886C32.7781 24.1147 32.584 23.8735 32.1805 23.6711C31.2471 23.2027 29.621 23.3341 28.6366 23.9575C28.018 24.3492 27.8891 24.5724 24.8089 30.5864C24.0379 32.0919 23.3452 33.4939 23.2699 33.702C23.1642 33.9937 23.1395 34.2269 23.1625 34.7203C23.2016 35.5641 23.478 36.1523 24.1104 36.7378C24.6974 37.2812 25.2125 37.4852 26.0033 37.4875C27.1775 37.4907 27.6919 37.1085 33.6583 31.7993C34.9765 30.6263 36.0985 29.6665 36.1514 29.6665C36.2824 29.6665 36.4257 29.8192 36.4266 29.9595C36.4271 30.0228 35.8532 31.2356 35.1514 32.6546C34.0259 34.9306 33.876 35.2761 33.8808 35.5848C33.8876 36.033 34.0399 36.3914 34.3532 36.6965C34.6808 37.0155 36.0022 37.456 36.6286 37.4549C37.1731 37.454 37.7259 37.2056 38.052 36.8153C38.1839 36.6575 39.2329 34.6924 40.3833 32.4483C41.5336 30.2043 42.6133 28.1655 42.7825 27.9177C43.2284 27.2646 43.8413 26.7311 44.3186 26.5806C44.8473 26.4139 45.2138 26.4814 45.3647 26.7731C45.6796 27.382 45.3868 28.1689 43.4224 31.9923C41.6091 35.522 41.6062 35.5305 41.9504 36.2341C42.2136 36.772 42.4722 36.9341 43.61 37.2747C44.3424 37.4939 44.5992 37.5401 44.8924 37.5054C45.3395 37.4524 45.9531 37.1303 46.1844 36.827C46.2786 36.7036 47.331 34.6998 48.5232 32.3742C49.7154 30.0486 50.7931 27.9956 50.9182 27.812C51.2411 27.3377 51.7688 26.8305 52.1154 26.6613C52.2949 26.5737 52.5686 26.5159 52.8081 26.5151C53.3437 26.5133 53.488 26.6843 53.4871 27.3195C53.486 28.0685 53.1186 28.9514 51.4922 32.1145C49.8835 35.2431 49.7984 35.4688 49.999 36.0768C50.1082 36.4075 50.3938 36.7571 50.6726 36.9012C51.1253 37.1353 52.0516 37.3795 52.4863 37.3794C53.4349 37.3791 54.6935 36.8999 55.5479 36.2137C55.7897 36.0195 57.0345 34.9097 58.3141 33.7473C62.9665 29.5216 63.429 29.1224 63.6286 29.1605C63.9669 29.2249 63.7696 29.7229 62.0144 33.2342C61.4924 34.2784 61.0422 35.2561 61.0139 35.4069C60.9345 35.8306 61.1082 36.3266 61.459 36.6774C61.7084 36.9267 61.8977 37.0238 62.5391 37.2317C63.8321 37.6507 64.5744 37.5395 65.1787 36.8365C65.3296 36.6608 66.3437 34.7708 67.5368 32.4412C68.6882 30.1932 69.786 28.1355 69.9766 27.8685C70.5891 27.0102 71.2206 26.5578 71.8979 26.4924C72.1961 26.4636 72.2714 26.4856 72.4357 26.6498C72.5993 26.8135 72.6267 26.906 72.6267 27.2948C72.6267 27.5835 72.5584 27.952 72.4393 28.307C72.3362 28.614 71.5286 30.2723 70.6447 31.9921C69.212 34.7793 69.0341 35.1647 69.006 35.5413C68.9678 36.054 69.1739 36.5447 69.547 36.8292C69.9202 37.1139 71.1593 37.4849 71.7367 37.4849C72.1286 37.4849 72.2932 37.4445 72.6139 37.27C72.8309 37.1519 73.1005 36.9367 73.213 36.7918C73.3254 36.6469 74.3122 34.7758 75.4058 32.6338C77.3204 28.8838 77.9317 27.8022 78.4793 27.1959C79.2252 26.3701 80.3316 26.2448 80.6654 26.9483C80.9286 27.5029 80.8953 27.5885 78.7724 31.824C77.2254 34.9104 77.0776 35.2384 77.0776 35.5839C77.0776 36.412 77.4536 36.8351 78.4855 37.1684C79.0963 37.3657 79.267 37.3915 79.7481 37.3591C80.3778 37.3168 81.2694 37.0199 82.0088 36.6064C82.4676 36.3498 84.5324 34.8066 86.7783 33.0417C88.4099 31.7596 88.4326 31.7436 88.6213 31.7436C88.9076 31.7436 88.9637 31.9614 88.8771 32.7372C88.6502 34.7725 89.405 36.3568 91.0482 37.2942C92.5787 38.1673 94.5938 38.0635 96.6616 37.0053C97.4549 36.5993 98.3946 35.8809 98.9614 35.2471C99.3791 34.7801 100.243 33.511 100.75 32.6188C101.112 31.9835 101.087 32.0001 102.278 31.5878C102.736 31.4295 103.42 31.1611 103.799 30.9916C104.644 30.6135 104.953 30.5848 105.114 30.8695C105.225 31.0667 105.205 31.1178 104.169 33.2063C103.39 34.7771 103.111 35.4115 103.113 35.6063C103.117 35.9793 103.472 36.6424 103.776 36.8439C104.145 37.0884 105.457 37.4747 105.906 37.4711C106.399 37.4671 106.979 37.2156 107.291 36.87C107.426 36.7209 108.048 35.5816 108.675 34.3381C110.952 29.8188 111.514 28.8996 112.755 27.6635C114.22 26.2055 115.423 25.5897 116.007 25.9987C116.358 26.2448 116.264 26.507 114.951 28.9542C113.376 31.8881 112.712 33.5577 112.632 34.7795C112.594 35.3699 112.608 35.4693 112.776 35.8316C113.123 36.5771 113.986 37.2372 114.91 37.4633C116.542 37.8623 118.991 37.152 121.216 35.6351C121.726 35.2867 122.098 35.0814 122.193 35.0958C122.303 35.1124 122.389 35.2345 122.497 35.5269C123.01 36.9183 124.315 37.6893 126.35 37.8038C129.142 37.9607 131.981 36.5837 133.047 34.5553C133.554 33.5896 133.718 32.4961 133.497 31.5575C133.336 30.8755 133.142 30.4827 132.413 29.3633C131.405 27.8156 131.1 27.0215 131.178 26.1548C131.28 25.0302 132.307 23.9144 132.932 24.2489C133.172 24.3771 133.209 24.5521 133.268 25.8453C133.305 26.6499 133.357 27.0991 133.431 27.242C133.756 27.8698 135.322 27.9103 136.117 27.3115C136.687 26.8818 136.959 25.6119 136.687 24.6525C136.381 23.5754 135.432 22.7863 134.158 22.5508C133.658 22.4584 132.287 22.4597 131.638 22.5531ZM97.4542 25.9389C97.0156 26.2673 96.5284 26.976 96.3555 27.537C96.0532 28.5176 96.247 29.3869 96.8753 29.8685C97.2834 30.1814 97.6769 30.2899 98.418 30.2938C99.101 30.2975 99.3214 30.1922 99.5918 29.7329C99.7157 29.5225 99.738 29.3628 99.7274 28.7633C99.7052 27.5253 99.3963 26.6909 98.7292 26.0669C98.4209 25.7786 98.3315 25.7349 98.0504 25.7349C97.8126 25.7349 97.6542 25.7891 97.4542 25.9389ZM93.7404 30.4297C93.3968 30.7733 93.0523 32.5101 93.1765 33.2728C93.3752 34.4938 94.4702 35.1113 95.7485 34.7229C96.6148 34.4599 97.7552 33.5201 98.0087 32.8604C98.1291 32.5472 97.8911 32.3285 97.2996 32.209C96.2145 31.9896 95.3779 31.5303 94.6122 30.7331C94.3622 30.4729 94.102 30.26 94.0339 30.26C93.9659 30.26 93.8338 30.3363 93.7404 30.4297ZM139.205 35.1075C137.861 35.4575 136.942 36.6215 136.942 37.9749C136.942 39.1398 137.604 40.147 138.714 40.6719C139.156 40.8811 139.272 40.9038 139.873 40.8984C140.635 40.8917 141.008 40.7785 141.598 40.3743C143.196 39.2801 143.243 36.8299 141.689 35.6444C140.994 35.1143 140.002 34.8999 139.205 35.1075ZM139.45 35.5273C138.998 35.6057 138.402 35.9329 138.113 36.2614C137.688 36.745 137.502 37.2665 137.5 37.9765C137.499 38.5422 137.524 38.6603 137.741 39.1014C137.875 39.3724 138.107 39.7022 138.257 39.8341C139.226 40.6851 140.692 40.6629 141.57 39.784C142.235 39.1191 142.472 37.9684 142.132 37.0476C141.741 35.9869 140.584 35.3311 139.45 35.5273ZM138.797 37.9749V39.6069H139.02H139.242V38.861V38.1151L139.591 38.1377L139.939 38.1604L140.381 38.8836C140.819 39.5993 140.827 39.6069 141.113 39.6069C141.324 39.6069 141.387 39.5818 141.347 39.5142C141.317 39.4632 141.097 39.1294 140.859 38.7724C140.48 38.2052 140.445 38.1233 140.579 38.1233C140.795 38.1233 141.14 37.932 141.278 37.7363C141.437 37.5088 141.428 36.8714 141.262 36.6669C141.034 36.385 140.844 36.3429 139.803 36.3429H138.797V37.9749ZM139.242 37.1857V37.7524H139.831C140.154 37.7524 140.506 37.7196 140.611 37.6795C140.969 37.5435 141.029 36.9505 140.703 36.7759C140.619 36.7306 140.255 36.6768 139.896 36.6563L139.242 36.6191V37.1857Z" fill="white"/>
<path d="M36.2999 18.75C36.2999 20.5449 34.8449 22 33.0499 22C31.255 22 29.7999 20.5449 29.7999 18.75C29.7999 16.9551 31.255 15.5 33.0499 15.5C34.8449 15.5 36.2999 16.9551 36.2999 18.75Z" fill="#EE3A43"/>
<path d="M36.2999 18.75C36.2999 20.5449 34.8449 22 33.0499 22C31.255 22 29.7999 20.5449 29.7999 18.75C29.7999 16.9551 31.255 15.5 33.0499 15.5C34.8449 15.5 36.2999 16.9551 36.2999 18.75Z" fill="#EE3A43"/>
<path d="M36.2999 18.75C36.2999 20.5449 34.8449 22 33.0499 22C31.255 22 29.7999 20.5449 29.7999 18.75C29.7999 16.9551 31.255 15.5 33.0499 15.5C34.8449 15.5 36.2999 16.9551 36.2999 18.75Z" stroke="white" stroke-width="0.3"/>
</g>
</svg>
