<svg width="140" height="34" viewBox="0 0 140 34" fill="none" xmlns="http://www.w3.org/2000/svg">
<path d="M36.7855 11.9702H50.9585V14.5672H45.3865V29.1692H42.3205V14.5672H36.7725V11.9692H36.7845L36.7855 11.9702ZM50.3535 16.7152H52.9735V19.1192H53.0225C53.1095 18.7792 53.2695 18.4512 53.5045 18.1352C54.0069 17.458 54.687 16.9329 55.4695 16.6182C55.8669 16.4608 56.29 16.3784 56.7175 16.3752C57.0375 16.3752 57.2735 16.3872 57.3975 16.4002C57.5205 16.4122 57.6435 16.4362 57.7795 16.4482V19.0942C57.5788 19.0591 57.377 19.0308 57.1745 19.0092C56.9733 18.9854 56.771 18.9734 56.5685 18.9732C56.0985 18.9732 55.6545 19.0702 55.2345 19.2532C54.8145 19.4342 54.4555 19.7132 54.1475 20.0662C53.8188 20.4609 53.5671 20.9138 53.4055 21.4012C53.2205 21.9352 53.1335 22.5412 53.1335 23.2342V29.1572H50.3415V16.7152H50.3535ZM70.6185 29.1702H67.8755V27.4342H67.8255C67.4795 28.0662 66.9735 28.5642 66.2935 28.9402C65.6135 29.3162 64.9215 29.5102 64.2175 29.5102C62.5495 29.5102 61.3375 29.1102 60.5975 28.2962C59.8555 27.4832 59.4845 26.2572 59.4845 24.6182V16.7162H62.2775V24.3512C62.2775 25.4442 62.4875 26.2212 62.9205 26.6702C63.3405 27.1192 63.9455 27.3502 64.7115 27.3502C65.3045 27.3502 65.7865 27.2652 66.1815 27.0822C66.5775 26.9002 66.8985 26.6702 67.1335 26.3662C67.3805 26.0752 67.5535 25.7112 67.6655 25.2982C67.7755 24.8852 67.8255 24.4362 67.8255 23.9512V16.7282H70.6185V29.1702ZM75.3755 25.1772C75.4625 25.9772 75.7705 26.5372 76.3025 26.8642C76.8455 27.1802 77.4885 27.3502 78.2425 27.3502C78.5025 27.3502 78.7985 27.3252 79.1325 27.2892C79.4655 27.2522 79.7865 27.1672 80.0715 27.0592C80.3675 26.9492 80.6015 26.7792 80.7995 26.5612C80.9855 26.3412 81.0715 26.0632 81.0595 25.7112C81.0579 25.5479 81.0219 25.3867 80.9538 25.2382C80.8857 25.0896 80.7872 24.9571 80.6645 24.8492C80.4165 24.6192 80.1085 24.4492 79.7245 24.3032C79.2967 24.155 78.8589 24.0374 78.4145 23.9512C77.9205 23.8542 77.4265 23.7442 76.9205 23.6352C76.4107 23.5249 75.9073 23.3871 75.4125 23.2222C74.9484 23.0735 74.5106 22.8524 74.1155 22.5672C73.7304 22.2985 73.4164 21.9402 73.2005 21.5232C72.9665 21.0982 72.8545 20.5762 72.8545 19.9452C72.8545 19.2652 73.0275 18.7072 73.3615 18.2452C73.6984 17.7871 74.1333 17.4099 74.6345 17.1412C75.1731 16.8565 75.7521 16.6558 76.3515 16.5462C76.9815 16.4372 77.5875 16.3762 78.1555 16.3762C78.8105 16.3762 79.4405 16.4492 80.0345 16.5832C80.6095 16.7064 81.1577 16.9323 81.6525 17.2502C82.1345 17.5542 82.5295 17.9542 82.8515 18.4402C83.1725 18.9252 83.3705 19.5202 83.4565 20.2122H80.5405C80.4045 19.5572 80.1075 19.1082 79.6265 18.8892C79.1445 18.6592 78.5885 18.5492 77.9705 18.5492C77.7725 18.5492 77.5375 18.5612 77.2665 18.5982C77.0053 18.633 76.7484 18.6939 76.4995 18.7802C76.272 18.864 76.0655 18.9964 75.8945 19.1682C75.8114 19.2579 75.7469 19.363 75.7045 19.4777C75.6621 19.5923 75.6427 19.7141 75.6475 19.8362C75.6475 20.1762 75.7705 20.4432 76.0055 20.6492C76.2405 20.8552 76.5495 21.0252 76.9325 21.1712C77.3155 21.3052 77.7485 21.4262 78.2425 21.5232C78.7365 21.6202 79.2425 21.7292 79.7625 21.8392C80.2685 21.9482 80.7625 22.0942 81.2575 22.2512C81.7515 22.4092 82.1835 22.6282 82.5675 22.9072C82.9505 23.1862 83.2595 23.5262 83.4935 23.9392C83.7285 24.3512 83.8525 24.8732 83.8525 25.4802C83.8525 26.2202 83.6795 26.8402 83.3325 27.3622C82.9875 27.8722 82.5425 28.2962 81.9985 28.6122C81.429 28.9403 80.8119 29.1778 80.1695 29.3162C79.5159 29.46 78.8487 29.5331 78.1795 29.5342C77.43 29.5427 76.6826 29.4529 75.9565 29.2672C75.2765 29.0852 74.6835 28.8182 74.1895 28.4672C73.7012 28.1125 73.2998 27.6516 73.0155 27.1192C72.7315 26.5852 72.5825 25.9412 72.5585 25.2012H75.3755V25.1772ZM84.5935 16.7172H86.7065V12.9772H89.4995V16.7172H92.0195V18.7672H89.5005V25.4202C89.5005 25.7102 89.5125 25.9542 89.5375 26.1722C89.5615 26.3792 89.6235 26.5612 89.7105 26.7062C89.805 26.8586 89.9485 26.9743 90.1175 27.0342C90.3035 27.1072 90.5375 27.1442 90.8595 27.1442C91.0565 27.1442 91.2545 27.1442 91.4525 27.1312C91.6505 27.1192 91.8475 27.0952 92.0455 27.0462V29.1702C91.7365 29.2072 91.4275 29.2312 91.1435 29.2672C90.8441 29.302 90.5428 29.3184 90.2415 29.3162C89.5005 29.3162 88.9075 29.2432 88.4615 29.1102C88.0175 28.9762 87.6585 28.7702 87.4115 28.5032C87.1515 28.2362 86.9915 27.9082 86.8925 27.5072C86.7962 27.0563 86.7426 26.5972 86.7325 26.1362V18.7902H84.6195V16.7142H84.5945L84.5935 16.7172ZM93.9965 16.7172H96.6415V18.4032H96.6915C97.0855 17.6752 97.6295 17.1652 98.3335 16.8502C99.0531 16.5303 99.833 16.3687 100.62 16.3762C101.62 16.3762 102.485 16.5462 103.227 16.8982C103.968 17.2382 104.586 17.7122 105.08 18.3182C105.574 18.9252 105.933 19.6292 106.18 20.4312C106.432 21.2655 106.557 22.1328 106.551 23.0042C106.551 23.8412 106.44 24.6542 106.217 25.4322C106.013 26.1827 105.674 26.8898 105.216 27.5192C104.767 28.1261 104.184 28.6206 103.511 28.9642C102.819 29.3282 102.016 29.5102 101.077 29.5102C100.667 29.5098 100.257 29.473 99.8535 29.4002C99.4505 29.3276 99.0571 29.2099 98.6805 29.0492C98.3064 28.8931 97.9565 28.6844 97.6415 28.4292C97.3305 28.1812 97.0597 27.8868 96.8385 27.5562H96.7885V33.7712H93.9965V16.7152V16.7172ZM103.758 22.9552C103.759 22.4017 103.684 21.8507 103.536 21.3172C103.4 20.8118 103.173 20.335 102.868 19.9092C102.579 19.5042 102.204 19.1682 101.769 18.9252C101.303 18.6731 100.78 18.5437 100.249 18.5492C99.0755 18.5492 98.1855 18.9492 97.5925 19.7512C96.9995 20.5522 96.7025 21.6212 96.7025 22.9552C96.7025 23.5862 96.7775 24.1692 96.9375 24.7032C97.0975 25.2372 97.3205 25.6992 97.6415 26.0872C97.9515 26.4762 98.3215 26.7792 98.7545 26.9972C99.1865 27.2282 99.6935 27.3372 100.261 27.3372C100.904 27.3372 101.435 27.2042 101.88 26.9492C102.311 26.7013 102.683 26.3616 102.967 25.9542C103.251 25.5412 103.462 25.0792 103.585 24.5582C103.699 24.0315 103.757 23.4942 103.758 22.9552ZM108.688 11.9702H111.481V14.5682H108.688V11.9702ZM108.688 16.7162H111.481V29.1702H108.688V16.7162ZM113.977 11.9702H116.77V29.1702H113.977V11.9702ZM125.333 29.5102C124.319 29.5102 123.417 29.3402 122.627 29.0132C121.87 28.7026 121.185 28.2397 120.613 27.6532C120.058 27.055 119.633 26.3481 119.364 25.5772C119.071 24.7264 118.924 23.8314 118.932 22.9312C118.932 21.9842 119.08 21.1112 119.364 20.3092C119.633 19.5388 120.058 18.8323 120.613 18.2342C121.156 17.6512 121.836 17.2022 122.627 16.8742C123.417 16.5462 124.319 16.3762 125.333 16.3762C126.346 16.3762 127.248 16.5462 128.039 16.8742C128.83 17.2022 129.497 17.6642 130.053 18.2342C130.609 18.8321 131.034 19.5386 131.301 20.3092C131.585 21.1102 131.733 21.9842 131.733 22.9312C131.733 23.8912 131.585 24.7762 131.301 25.5772C131.034 26.3482 130.609 27.0552 130.053 27.6532C129.509 28.2362 128.83 28.6852 128.039 29.0132C127.248 29.3402 126.346 29.5102 125.333 29.5102ZM125.333 27.3372C125.951 27.3372 126.494 27.2042 126.951 26.9492C127.397 26.7013 127.781 26.3569 128.076 25.9412C128.372 25.5292 128.582 25.0552 128.731 24.5332C128.867 24.0112 128.941 23.4772 128.941 22.9312C128.941 22.3972 128.867 21.8752 128.731 21.3412C128.604 20.8347 128.382 20.3569 128.076 19.9332C127.781 19.5215 127.396 19.1815 126.951 18.9382C126.494 18.6832 125.951 18.5492 125.333 18.5492C124.715 18.5492 124.171 18.6832 123.714 18.9382C123.273 19.1852 122.889 19.5246 122.59 19.9332C122.289 20.3595 122.068 20.8364 121.935 21.3412C121.799 21.8603 121.728 22.3945 121.724 22.9312C121.724 23.4772 121.799 24.0112 121.935 24.5332C122.071 25.0552 122.293 25.5292 122.59 25.9412C122.886 26.3542 123.257 26.6942 123.714 26.9492C124.171 27.2162 124.715 27.3372 125.333 27.3372ZM132.549 16.7172H134.662V12.9772H137.455V16.7172H139.975V18.7672H137.455V25.4202C137.455 25.7102 137.467 25.9542 137.491 26.1722C137.516 26.3792 137.578 26.5612 137.665 26.7062C137.76 26.8587 137.903 26.9745 138.072 27.0342C138.258 27.1072 138.492 27.1442 138.814 27.1442C139.011 27.1442 139.209 27.1442 139.407 27.1312C139.605 27.1192 139.802 27.0952 140 27.0462V29.1702C139.691 29.2072 139.382 29.2312 139.098 29.2672C138.799 29.302 138.498 29.3184 138.196 29.3162C137.455 29.3162 136.861 29.2432 136.416 29.1102C135.972 28.9762 135.613 28.7702 135.366 28.5032C135.107 28.2362 134.946 27.9082 134.847 27.5072C134.751 27.0562 134.698 26.5972 134.687 26.1362V18.7902H132.574V16.7142H132.549V16.7172Z" fill="#141416"/>
<path d="M33.523 11.969H20.722L16.768 0L12.8 11.97L0 11.957L10.367 19.361L6.401 31.317L16.768 23.925L27.123 31.317L23.169 19.361L33.523 11.969Z" fill="#00B073"/>
<path d="M24.0576 22.0688L23.1676 19.3618L16.7676 23.9258L24.0576 22.0688Z" fill="#002800"/>
</svg>
