<svg width="190" height="195" viewBox="0 0 190 195" fill="none" xmlns="http://www.w3.org/2000/svg">
<mask id="mask0_749_4275" style="mask-type:alpha" maskUnits="userSpaceOnUse" x="0" y="0" width="190" height="195">
<rect width="190" height="195" fill="#D9D9D9"/>
</mask>
<g mask="url(#mask0_749_4275)">
<g filter="url(#filter0_d_749_4275)">
<circle cx="95" cy="95" r="80" fill="white"/>
</g>
<path d="M88.5313 55.5635C88.0638 55.7104 87.6631 55.9909 87.1288 56.5252C85.5259 58.1414 85.6328 59.7976 87.6363 63.965C88.8919 66.583 90.3345 68.7335 92.1911 70.737C92.6452 71.2446 92.9792 71.6453 92.9391 71.6453C92.899 71.6453 90.8554 71.0977 88.3977 70.4432C83.6426 69.1609 83.0015 69.0674 81.8661 69.4548C81.1315 69.7086 80.2098 70.5501 79.8358 71.3114C79.4351 72.1395 79.4084 73.5687 79.7691 74.4236C80.4235 75.9329 83.9097 78.6177 87.4494 80.3274C90.5749 81.8368 95.143 82.9988 97.9613 82.9988H98.6425L98.549 83.493C98.4956 83.7735 98.4288 84.428 98.3754 84.9489L98.2953 85.9106L90.7352 85.9774C82.6275 86.0442 82.4004 86.0709 79.8492 86.8056C79.1947 86.9926 78.2196 87.3532 77.672 87.607C76.8572 87.981 76.6569 88.1413 76.4966 88.542C76.2562 89.1163 76.3363 89.5571 76.7904 90.0113C77.2713 90.4788 77.7655 90.4387 79.3149 89.8243C81.9997 88.7557 82.3202 88.7156 90.9489 88.6488C98.3086 88.5821 98.6025 88.5954 98.6826 88.8225C99.3238 90.7058 100.232 92.2953 101.381 93.5642C102.97 95.2873 105.201 96.5696 107.472 97.0371C108.487 97.2508 109.288 97.2908 112.267 97.2908C114.431 97.2908 115.833 97.3443 115.833 97.4111C115.833 97.8652 115.219 100.577 114.885 101.605C114.377 103.221 112.828 106.293 111.853 107.643L111.091 108.711L111.025 107.843C110.918 106.521 110.584 106.106 109.635 106.106C109.342 106.106 109.034 106.227 108.794 106.427L108.42 106.748L108.38 111.703L108.34 116.645L108.714 117.059C109.034 117.42 109.221 117.487 110.049 117.594C110.584 117.66 111.225 117.807 111.492 117.914C112.641 118.395 113.656 119.423 114.137 120.559L114.35 121.066H110.45H106.55L104.947 114.682C103.545 109.112 103.304 108.27 102.984 107.95C102.369 107.309 101.22 107.549 100.873 108.377C100.726 108.738 100.793 109.098 101.474 111.837C101.888 113.52 102.249 115.002 102.249 115.136C102.276 115.416 101.287 115.857 99.5508 116.311C98.3888 116.618 98.3888 116.618 98.0682 116.365C97.6274 116.017 96.5188 115.456 95.891 115.256L95.3834 115.109L95.3434 113.319C95.3033 111.356 95.0762 110.394 94.3015 108.845C93.0727 106.427 91.0557 104.637 88.5179 103.742C87.5161 103.395 87.3158 103.368 85.379 103.382C83.4957 103.382 83.2152 103.422 82.2401 103.742C79.2882 104.731 76.8171 106.988 75.7219 109.673C75.1742 111.035 75.0273 111.823 75.0407 113.52C75.0407 115.176 75.2277 116.151 75.7619 117.407C75.9089 117.754 76.0157 118.061 75.9757 118.088C75.9489 118.114 75.5616 117.834 75.1208 117.473C71.8083 114.708 69.7513 111.075 69.2036 106.948C68.9899 105.385 69.1235 102.62 69.4708 101.204C69.6311 100.59 69.965 99.5482 70.2188 98.8803C70.4726 98.2125 70.6863 97.5179 70.6863 97.3443C70.6863 97.1706 70.5126 96.8367 70.3123 96.6096C70.0051 96.2624 69.8314 96.1822 69.3639 96.1822C68.6159 96.1822 68.282 96.5295 67.7744 97.8118C66.5322 100.951 66.1182 104.383 66.6124 107.629C66.8127 109.005 66.7994 109.179 66.4521 109.179C66.3319 109.179 65.7976 109.392 65.2499 109.659C63.5002 110.488 61.9908 112.291 61.4031 114.214C60.3746 117.553 62.071 121.4 65.2499 122.923C67.0131 123.778 68.5224 123.938 70.339 123.471C71.7815 123.11 72.5963 122.629 73.7317 121.507L74.7067 120.545L75.8554 121.2C77.9792 122.415 80.143 123.163 82.6141 123.524C83.7628 123.698 85.4725 123.738 92.0442 123.738C100.873 123.738 100.673 123.751 101.007 122.936C101.22 122.402 101.087 121.026 100.726 120.011C100.566 119.597 100.446 119.183 100.432 119.076C100.419 118.969 100.873 118.742 101.675 118.462C102.369 118.208 102.957 118.034 102.984 118.061C103.01 118.074 103.318 119.223 103.665 120.599C104.132 122.389 104.386 123.177 104.6 123.377C104.88 123.671 104.947 123.671 110.45 123.711C114.484 123.738 116.127 123.698 116.407 123.591C117.89 122.976 117.062 119.223 114.965 117.126C114.11 116.271 112.721 115.443 111.666 115.189L111.025 115.029V113.867C111.025 112.785 111.051 112.678 111.372 112.371C112.053 111.73 113.763 109.619 114.537 108.444C116.541 105.399 117.877 101.832 118.398 98.1724L118.571 96.9836L119.466 96.623C120.789 96.0887 121.59 95.5144 122.685 94.3523C124.368 92.5625 125.116 90.6658 125.103 88.2081C125.089 85.8038 124.649 84.6684 122.538 81.6097C119.894 77.7629 117.182 75.7459 113.375 74.7842C112.708 74.6106 111.746 74.437 111.225 74.3835L110.29 74.29L101.14 65.1672C94.6755 58.7157 91.8171 55.9508 91.3897 55.7505C90.6283 55.3631 89.3995 55.283 88.5313 55.5635ZM98.5758 66.3559L106.924 74.6774L106.323 74.8777C105.735 75.0914 105.695 75.0781 102.73 74.29C99.8981 73.5287 99.6844 73.4352 98.6425 72.754C95.2231 70.4699 92.5384 67.518 90.4948 63.7647C89.72 62.3488 88.6916 59.6908 88.6916 59.1164C88.6916 58.5154 89.1991 58.0211 89.8269 58.0211C90.2009 58.0211 91.0691 58.8493 98.5758 66.3559ZM92.8456 74.3969C97.9613 75.7593 102.196 76.908 102.249 76.9481C102.302 76.9881 101.968 77.4156 101.501 77.9231C101.033 78.4173 100.446 79.1653 100.192 79.5661L99.7378 80.314L98.5758 80.3274C95.4502 80.3274 91.363 79.3123 88.2508 77.7629C86.3808 76.8145 84.3238 75.4254 82.8545 74.103C82.2802 73.5821 82.1733 73.4218 82.1733 73.0077C82.1733 72.3933 82.6007 71.9125 83.1484 71.9125C83.3621 71.9125 87.7298 73.0345 92.8456 74.3969ZM112.788 77.3755C114.871 77.9231 116.781 79.0184 118.277 80.5278C119.252 81.5162 121.55 84.7486 121.977 85.737C123.527 89.3568 121.256 93.6844 117.369 94.4859C116.888 94.5794 115.232 94.6194 112.4 94.5927C108.206 94.5393 108.139 94.5393 107.084 94.192C104.373 93.2704 102.236 91.0798 101.381 88.3416C101.127 87.5268 101.074 87.046 101.074 85.737C101.087 84.3078 101.127 84.0139 101.488 82.9855C102.556 79.9668 104.867 77.9098 108.019 77.1751C109.101 76.9214 111.439 77.0282 112.788 77.3755ZM87.5429 106.24C89.1724 106.748 90.9756 108.244 91.8305 109.806C92.6452 111.316 92.9391 113.64 92.525 115.229C92.2712 116.191 92.2712 116.445 92.525 116.912C92.7521 117.353 93.1929 117.553 94.208 117.634C95.2098 117.727 96.265 118.248 97.0263 119.023C97.6274 119.651 98.2018 120.559 98.2018 120.893C98.2018 121.12 85.0451 121.147 83.8296 120.919C83.4022 120.839 82.5473 120.545 81.9329 120.252C78.8207 118.756 77.0843 115.243 77.8189 111.944C78.1662 110.394 78.7272 109.392 79.8893 108.244C81.4788 106.667 83.1217 106 85.3924 105.986C86.3274 105.973 86.9284 106.053 87.5429 106.24ZM68.2553 112.972C69.2036 114.962 70.2856 116.512 71.9151 118.208L72.5696 118.876L72.022 119.504C71.6747 119.891 71.1404 120.292 70.5794 120.559C69.7913 120.946 69.5643 121 68.5491 121C67.5874 121 67.2936 120.946 66.6124 120.626C64.4886 119.637 63.3666 117.366 63.9276 115.189C64.3417 113.6 65.2767 112.518 66.786 111.903C67.2001 111.73 67.5607 111.583 67.5741 111.583C67.5874 111.583 67.8946 112.211 68.2553 112.972Z" fill="#142535"/>
<circle cx="112.335" cy="84.7349" r="1.335" fill="#142535"/>
<circle cx="72.335" cy="92.835" r="1.335" fill="#142535"/>
</g>
<defs>
<filter id="filter0_d_749_4275" x="-5" y="-1" width="200" height="200" filterUnits="userSpaceOnUse" color-interpolation-filters="sRGB">
<feFlood flood-opacity="0" result="BackgroundImageFix"/>
<feColorMatrix in="SourceAlpha" type="matrix" values="0 0 0 0 0 0 0 0 0 0 0 0 0 0 0 0 0 0 127 0" result="hardAlpha"/>
<feOffset dy="4"/>
<feGaussianBlur stdDeviation="10"/>
<feComposite in2="hardAlpha" operator="out"/>
<feColorMatrix type="matrix" values="0 0 0 0 0.243137 0 0 0 0 0.368627 0 0 0 0 0.368627 0 0 0 0.16 0"/>
<feBlend mode="normal" in2="BackgroundImageFix" result="effect1_dropShadow_749_4275"/>
<feBlend mode="normal" in="SourceGraphic" in2="effect1_dropShadow_749_4275" result="shape"/>
</filter>
</defs>
</svg>
