<svg width="144" height="50" viewBox="0 0 144 50" fill="none" xmlns="http://www.w3.org/2000/svg">
<mask id="mask0_758_12019" style="mask-type:alpha" maskUnits="userSpaceOnUse" x="0" y="0" width="144" height="50">
<rect x="0.5" width="143" height="50" fill="#D9D9D9"/>
</mask>
<g mask="url(#mask0_758_12019)">
<path d="M44.1009 21.7521C44.1477 31.8986 44.1944 33.6286 44.4126 34.517C45.2387 37.8992 46.735 39.1772 49.8989 39.1772H51.3796V37.494V35.7951L50.4912 35.3431C49.4313 34.7976 48.8235 33.9403 48.5741 32.6467C48.4806 32.1324 48.4182 28.1735 48.4182 22.5781V13.3512L47.9351 12.3848C47.2337 10.9977 46.5168 10.5145 44.5529 10.1093L44.0386 10.0002L44.1009 21.7521Z" fill="#72AD28"/>
<path d="M52.2058 21.9079C52.2525 34.9223 52.2369 34.6573 53.2033 36.6367C54.0761 38.4291 55.51 39.1772 58.0194 39.1772H59.4845V37.4784V35.7639L58.6428 35.3898C58.1596 35.1716 57.6297 34.7664 57.3959 34.4547C56.5231 33.3169 56.5231 33.2234 56.5231 23.1236C56.5231 12.3693 56.5543 12.6966 55.2295 11.3562C54.4346 10.5769 54.154 10.4366 52.5798 10.1093L52.1434 10.0158L52.2058 21.9079Z" fill="#72AD28"/>
<path d="M29.793 17.8864C27.6577 18.3072 25.8497 19.1956 24.6496 20.4113C23.9483 21.1438 23.169 22.6869 23.169 23.3882V23.9026H25.1796H27.1901L27.4863 23.3103C27.7201 22.8739 28.0474 22.6089 28.8423 22.2037C29.8242 21.6894 29.9956 21.6582 31.7101 21.5958C35.5598 21.4556 37.4925 22.5778 37.7575 25.1027L37.8666 26.0379L34.765 26.147C29.9021 26.3184 27.5954 26.7548 25.2887 27.9082C23.9171 28.594 22.8261 29.6226 22.3741 30.6513C22.0623 31.3371 22 31.7268 22 33.0983C22 34.5322 22.0468 34.844 22.4052 35.5921C23.169 37.2286 24.7276 38.3976 26.9096 38.9743C28.2968 39.3327 31.8815 39.3327 33.2999 38.9587C34.687 38.6002 36.4015 37.7586 37.1652 37.0884C37.4925 36.7766 37.8198 36.5273 37.8666 36.5273C37.9133 36.5273 37.9913 36.7455 38.0536 37.0104C38.2095 37.6806 39.2226 38.6625 40.0019 38.8652C40.3448 38.9587 40.9994 39.021 41.4514 38.9899L42.2618 38.9431L42.2463 32.2411C42.2307 24.8689 42.1372 23.9649 41.2799 22.1258C40.3136 20.084 38.2874 18.6033 35.7157 18.0578C34.1103 17.7149 31.1022 17.637 29.793 17.8864ZM37.8198 31.2124C37.8198 32.7554 37.8198 32.7554 37.3367 33.1607C36.5418 33.8309 35.6378 34.2985 34.0792 34.8284C32.7076 35.296 32.4426 35.3427 30.5723 35.3427C28.6552 35.3583 28.4994 35.3427 27.6266 34.9063C26.9252 34.5634 26.6758 34.3452 26.4888 33.9088C26.0212 32.771 26.4732 31.8203 27.8292 31.0877C29.4813 30.2149 32.2712 29.7317 35.9963 29.685L37.8198 29.6694V31.2124Z" fill="#72AD28"/>
<path d="M68.2905 17.8398C65.828 18.1983 63.942 19.1178 62.3523 20.7076C60.2949 22.7806 59.3753 25.4302 59.5312 28.9215C59.6559 32.2257 60.4664 34.2675 62.4302 36.2313C64.8305 38.6316 68.275 39.6602 72.3273 39.1771C76.3641 38.6939 79.2943 36.9015 80.7282 34.0493C81.0399 33.4102 81.3049 32.8024 81.3049 32.6933C81.3049 32.5218 81.0088 32.4751 80.058 32.4751C78.1721 32.4751 77.424 32.6933 76.4576 33.5193C74.8055 34.9377 72.8105 35.5299 70.0985 35.4052C68.9296 35.3429 68.197 35.2182 67.5736 34.9844C66.015 34.3922 64.7369 32.9738 64.2226 31.3061L64.02 30.6047H72.6858H81.3516L81.2581 28.2201C81.1646 25.5237 80.8373 24.0119 80.0268 22.4532C79.4034 21.2687 77.9383 19.7724 76.7538 19.1022C74.5873 17.9021 71.2987 17.4034 68.2905 17.8398ZM73.9015 22.2506C75.6004 23.0923 76.7538 24.6041 77.0343 26.3653L77.1434 27.02L70.5349 26.9888L63.9265 26.942L63.9888 26.4744C64.1603 25.0094 65.3604 23.217 66.7164 22.4221C67.8541 21.7519 68.8828 21.5648 70.909 21.6272C72.6546 21.6739 72.7949 21.7051 73.9015 22.2506Z" fill="#72AD28"/>
<path d="M109.874 17.8084C107.754 18.1513 105.713 19.0865 104.481 20.2866C103.827 20.9256 103.032 22.4063 102.876 23.3103L102.782 23.9026H104.855H106.944L107.193 23.3882C107.77 22.2037 109.438 21.5647 111.931 21.5647C115.532 21.5647 117.464 22.8583 117.464 25.2741V26.0223L113.693 26.2093C110.653 26.3496 109.562 26.4587 108.222 26.7704C104.699 27.5965 102.486 29.1395 101.863 31.2592C101.582 32.2099 101.66 34.3452 102.034 35.3116C102.689 37.0572 104.388 38.4132 106.648 38.9743C108.082 39.3172 111.511 39.3172 112.976 38.9743C114.378 38.6314 115.812 37.9612 116.794 37.1819L117.589 36.5429L117.745 36.9637C118.181 38.2106 119.444 39.0054 121.018 39.021H122L121.953 31.8826C121.875 24.074 121.86 23.9493 120.878 21.9076C119.958 20.0217 118.01 18.6345 115.485 18.0734C114.145 17.7773 111.012 17.637 109.874 17.8084ZM117.62 31.228V32.7866L116.966 33.2698C115.017 34.7037 112.196 35.5298 109.703 35.4051C107.256 35.2648 106.087 34.5634 106.087 33.2074C106.087 31.2592 107.91 30.3864 113.334 29.7629C113.599 29.7473 114.659 29.7006 115.719 29.685L117.62 29.6694V31.228Z" fill="#72AD28"/>
<path d="M80.5723 18.1669C82.0374 21.9231 88.3497 38.0235 88.5212 38.4443L88.7706 39.021H92.1995C95.3167 39.021 95.644 38.9898 95.7687 38.756C95.8778 38.5534 102.876 20.7386 103.842 18.2448C103.936 17.9954 103.78 17.9798 101.489 18.011L99.0418 18.0578L95.6752 26.7392C93.8204 31.5241 92.2618 35.4362 92.2151 35.4362C92.1683 35.4362 90.6097 31.5241 88.755 26.7392L85.3728 18.0578L82.9414 18.011C81.0087 17.9798 80.51 18.011 80.5723 18.1669Z" fill="#72AD28"/>
</g>
</svg>
