<svg width="190" height="195" viewBox="0 0 190 195" fill="none" xmlns="http://www.w3.org/2000/svg">
<mask id="mask0_749_4277" style="mask-type:alpha" maskUnits="userSpaceOnUse" x="0" y="0" width="190" height="195">
<rect width="190" height="195" fill="#D9D9D9"/>
</mask>
<g mask="url(#mask0_749_4277)">
<g filter="url(#filter0_d_749_4277)">
<circle cx="95" cy="95" r="80" fill="white"/>
</g>
<path d="M100.219 64.4148C99.8316 64.5696 99.3931 65.1629 99.3931 65.5369C99.3931 65.9496 99.7284 66.5687 100.025 66.7364C100.167 66.8008 100.876 66.8653 101.611 66.8653C106.022 66.8653 109.376 68.1293 111.426 70.5798C112.252 71.56 113.116 73.3528 113.542 74.9263C113.864 76.1129 113.89 76.4224 113.89 78.7955C113.89 80.5367 113.8 82.3037 113.606 84.2125C113.142 88.804 112.948 91.3706 112.807 94.7885C112.729 96.5554 112.613 98.7093 112.549 99.5605C112.342 102.153 111.581 104.449 110.201 106.693C109.208 108.318 106.616 110.897 104.746 112.123C100.154 115.154 94.3373 116.779 88.0691 116.779C85.5025 116.779 84.2127 116.663 82.2652 116.263C81.2334 116.044 78.7958 115.308 78.6539 115.167C78.6281 115.141 78.9119 114.689 79.2859 114.161L79.9695 113.206L81.917 113.116C88.0691 112.845 93.4732 111.633 97.4327 109.634C98.3097 109.195 98.6193 108.834 98.6193 108.253C98.6193 107.609 97.9873 106.977 97.3295 106.977C97.1876 106.977 96.4783 107.247 95.756 107.57C92.8154 108.898 89.2686 109.814 85.3348 110.278C83.0004 110.562 77.8285 110.601 76.5 110.356C74.7976 110.046 72.9145 109.298 71.9472 108.563L71.5087 108.241L72.4373 107.931C75.0813 107.041 77.4029 105.274 79.3117 102.708C80.1371 101.598 80.2919 101.134 79.9953 100.567C79.7502 100.076 79.3246 99.9217 78.0477 99.8443C76.4355 99.754 74.5783 98.9931 73.3015 97.9226C72.8113 97.5227 72.734 97.5614 74.8234 97.2003C80.0468 96.2846 83.1165 94.3757 86.9986 89.5779C88.6495 87.553 89.965 86.4438 91.7965 85.5667C93.8214 84.5994 96.0785 84.3157 98.2968 84.78C101.521 85.4378 104.088 87.553 105.236 90.4678C105.726 91.7447 105.893 92.712 105.881 94.3371C105.868 96.2975 105.455 97.8968 104.488 99.8056C104.101 100.567 103.778 101.34 103.778 101.521C103.778 101.959 104.552 102.72 104.991 102.72C105.623 102.72 106.022 102.385 106.564 101.418C108.499 97.9355 108.989 94.0662 107.957 90.5065C106.783 86.4438 103.52 83.4 99.1739 82.3166C97.4843 81.8909 94.7758 81.9167 93.0733 82.3682C92.4027 82.5487 91.8352 82.6906 91.8094 82.6648C91.7965 82.6519 91.977 81.8652 92.2221 80.9107C92.738 78.9116 93.2797 77.4284 94.2212 75.468C94.75 74.3846 94.879 73.9977 94.8145 73.701C94.6597 73.0046 92.5187 71.2763 90.726 70.3993C90.3133 70.1929 89.9779 69.9865 89.9779 69.9349C89.9779 69.8834 90.3262 69.6641 90.7389 69.4448C91.1645 69.2385 91.603 68.9289 91.7062 68.7742C92.1576 68.1293 91.8223 67.1104 91.0742 66.8653C90.5067 66.6848 90.1456 66.788 88.8816 67.536C87.0889 68.5936 86.2377 69.5093 86.2377 70.3864C86.2377 71.0441 86.6246 71.4053 87.9788 71.9728C89.1783 72.4758 91.1 73.5205 91.6417 73.9719L91.9384 74.2169L91.3451 75.5325C90.2617 77.9701 89.346 81.1945 89.1138 83.3871C89.0364 84.1222 89.0106 84.1738 88.456 84.5607C87.5274 85.2056 86.0313 86.6759 84.8963 88.0818C81.6719 92.0671 79.1053 93.7438 74.8749 94.5821C74.1398 94.724 72.85 94.9303 72.0246 95.0335C71.1605 95.1496 70.3737 95.3173 70.1932 95.4333C69.458 95.9234 69.5225 97.1358 70.3608 98.4256C71.3023 99.883 73.1209 101.186 75.1974 101.895C75.8036 102.101 76.3066 102.308 76.3066 102.346C76.3066 102.527 74.7976 103.817 73.9592 104.358C72.8758 105.068 71.5603 105.584 69.9223 105.958C68.4133 106.293 67.9232 106.654 67.9232 107.389C67.9232 108.37 69.6128 110.24 71.4313 111.284C72.6179 111.942 74.8621 112.729 75.9841 112.858C76.3711 112.909 76.7322 112.987 76.7709 113.051C76.7967 113.103 74.5138 116.34 71.6893 120.235C68.8518 124.117 66.4787 127.432 66.3884 127.574C66.0144 128.283 66.3755 129.018 67.2783 129.405C71.1347 131.069 76.6548 130.373 81.2205 127.651C83.929 126.039 86.7536 123.447 88.7398 120.751L89.72 119.41L91.4225 119.255C98.0002 118.623 104.023 116.263 108.396 112.6C111.839 109.698 114.161 105.751 114.935 101.495C115.051 100.837 115.193 98.9415 115.257 97.1745C115.386 93.6922 115.399 93.589 115.786 88.5977C115.941 86.6759 116.095 85.0766 116.147 85.025C116.186 84.9735 118.378 84.1996 120.996 83.3097C126.491 81.4524 126.413 81.4911 126.323 80.2659C126.194 78.4731 124.376 76.1129 122.17 74.8747C120.751 74.0622 118.636 73.3786 117.011 73.1722L115.683 73.0175L115.27 72.0114C113.529 67.7424 109.556 65.021 104.255 64.4277C102.798 64.26 100.605 64.26 100.219 64.4148ZM118.675 76.1644C120.751 76.7964 122.673 78.1378 123.357 79.4533C123.499 79.7242 123.395 79.7758 120.029 80.9107C118.12 81.5556 116.534 82.0844 116.495 82.0844C116.457 82.0844 116.457 81.0268 116.495 79.7242C116.534 78.4344 116.521 77.0157 116.457 76.5772C116.379 76.1258 116.353 75.7388 116.379 75.7259C116.457 75.6357 117.772 75.8936 118.675 76.1644ZM78.009 117.669C80.0597 118.494 82.2523 118.997 84.9608 119.268L86.5343 119.423L85.5412 120.622C81.6848 125.214 76.3969 127.909 71.6635 127.703C70.8509 127.664 70.0642 127.587 69.9094 127.535C69.6644 127.432 69.9481 126.994 73.3272 122.35C75.3522 119.577 77.0159 117.295 77.0288 117.295C77.0546 117.295 77.4802 117.462 78.009 117.669Z" fill="#142535"/>
<circle cx="95.6" cy="66.3" r="1.3" fill="#142535"/>
<circle cx="108.75" cy="75.25" r="1.25" fill="#142535"/>
<circle cx="101.8" cy="105.3" r="1.3" fill="#142535"/>
</g>
<defs>
<filter id="filter0_d_749_4277" x="-5" y="-1" width="200" height="200" filterUnits="userSpaceOnUse" color-interpolation-filters="sRGB">
<feFlood flood-opacity="0" result="BackgroundImageFix"/>
<feColorMatrix in="SourceAlpha" type="matrix" values="0 0 0 0 0 0 0 0 0 0 0 0 0 0 0 0 0 0 127 0" result="hardAlpha"/>
<feOffset dy="4"/>
<feGaussianBlur stdDeviation="10"/>
<feComposite in2="hardAlpha" operator="out"/>
<feColorMatrix type="matrix" values="0 0 0 0 0.243137 0 0 0 0 0.368627 0 0 0 0 0.368627 0 0 0 0.16 0"/>
<feBlend mode="normal" in2="BackgroundImageFix" result="effect1_dropShadow_749_4277"/>
<feBlend mode="normal" in="SourceGraphic" in2="effect1_dropShadow_749_4277" result="shape"/>
</filter>
</defs>
</svg>
