<svg width="143" height="50" viewBox="0 0 143 50" fill="none" xmlns="http://www.w3.org/2000/svg">
<mask id="mask0_757_11875" style="mask-type:alpha" maskUnits="userSpaceOnUse" x="0" y="0" width="143" height="50">
<rect width="143" height="50" fill="#D9D9D9"/>
</mask>
<g mask="url(#mask0_757_11875)">
<path d="M58.5026 26.5935C58.0343 26.5155 57.5563 26.4862 57.075 26.509C56.7694 26.5252 56.4604 26.561 56.1548 26.6195C52.5648 27.3057 50.2983 30.6745 50.9909 34.2905C51.508 36.996 53.5728 39.0349 56.2523 39.4901C56.7206 39.5681 57.2051 39.5974 57.6864 39.5746C57.9888 39.5616 58.3009 39.5226 58.6131 39.4641C60.3301 39.1357 61.8129 38.1666 62.7852 36.7358C63.7607 35.3051 64.1151 33.5653 63.7867 31.8386C63.2632 29.1071 61.1918 27.0488 58.5026 26.5935ZM57.54 36.5895C57.2961 36.6025 57.0523 36.5895 56.8181 36.5472C55.4361 36.3131 54.3533 35.1847 54.0671 33.6759C53.8818 32.7134 54.0509 31.7606 54.5419 31.0029C55.0296 30.2453 55.8036 29.7347 56.7206 29.5559C56.8864 29.5234 57.0588 29.5039 57.2279 29.4941C57.4717 29.4811 57.7156 29.4974 57.953 29.5364C59.3415 29.7705 60.4211 30.8989 60.7073 32.4045C60.8926 33.3702 60.7235 34.3198 60.2325 35.0774C59.7447 35.8351 58.9708 36.3456 58.0538 36.5245C57.9042 36.5537 57.7514 36.5732 57.5986 36.583L57.54 36.5895Z" fill="#007078"/>
<path d="M99.732 25.3644L99.6377 25.3449C99.1011 25.2474 98.5678 25.2116 98.0573 25.2409C95.212 25.4067 93.0658 27.5399 92.4577 30.8112C92.1391 32.5314 92.4252 34.2125 93.2642 35.5523C94.1194 36.9213 95.5177 37.8578 97.2053 38.1927L97.2996 38.2122C97.859 38.3163 98.4118 38.3521 98.9418 38.3228C100.747 38.2188 102.054 37.5001 102.977 36.4433C103.195 36.1929 103.15 35.8124 102.896 35.5946L101.468 34.3816C101.348 34.2776 101.195 34.2256 101.016 34.2386C100.857 34.2516 100.714 34.3394 100.6 34.4564C99.9531 35.1393 99.1792 35.5165 97.9858 35.2954L97.937 35.2889C96.4314 34.9865 95.4721 33.7866 95.4851 32.2582L103.501 33.7443C103.819 33.8061 104.132 33.6045 104.206 33.289C104.694 31.2924 104.428 29.2991 103.468 27.8163C102.636 26.5318 101.345 25.6831 99.732 25.3644ZM99.1499 28.2943C100.177 28.4992 101.003 29.3544 101.251 30.4307L96.2396 29.504C96.7436 28.7821 97.5956 28.3041 98.493 28.252C98.7012 28.239 98.9125 28.252 99.1174 28.291L99.1499 28.2943Z" fill="#007078"/>
<path d="M72.4267 24.3204C71.9585 24.2359 71.4739 24.1969 70.9862 24.2164L70.8854 24.2196C69.1327 24.3074 67.5263 25.0716 66.3654 26.369C65.2078 27.6633 64.6192 29.3444 64.7102 31.1004C64.8631 34.1343 67.0353 36.6349 69.9911 37.178C70.4626 37.2658 70.9504 37.3016 71.4382 37.2853L71.539 37.2788C75.1875 37.0967 77.9027 34.092 77.7206 30.4435C77.571 27.3901 75.3924 24.87 72.4267 24.3204ZM73.7502 33.1653C73.1616 33.8449 72.3227 34.2481 71.3927 34.2936L71.3341 34.2969C71.0707 34.3067 70.8073 34.2871 70.5569 34.2416C68.9928 33.9522 67.9262 32.6482 67.8384 30.9183C67.7897 29.9525 68.0823 29.0453 68.6547 28.3591C69.24 27.6633 70.0854 27.2535 71.035 27.2048L71.0935 27.2015C71.3471 27.1917 71.5975 27.2113 71.8414 27.2568C73.399 27.5462 74.5046 28.8794 74.5924 30.5801C74.6412 31.5622 74.342 32.4792 73.7502 33.1653Z" fill="#007078"/>
<path d="M89.9474 26.1613C89.0726 25.0589 87.8402 24.3013 86.4777 24.0281C86.2045 23.9761 85.9281 23.9403 85.655 23.9273C84.4388 23.8655 82.9625 24.3891 82.2829 25.1272L82.3057 24.6817C82.3219 24.3468 82.0618 24.0606 81.7236 24.0444L79.8148 23.9501C79.6554 23.9403 79.4929 23.9988 79.3758 24.1062C79.2587 24.2102 79.1839 24.363 79.1742 24.5289L78.3125 42.0528C78.2962 42.3519 78.5076 42.6218 78.8002 42.6836C78.8295 42.6901 78.8588 42.6934 78.8913 42.6934L80.8001 42.7877C80.8163 42.7877 80.8293 42.7877 80.8521 42.7877H80.8716C81.0082 42.7779 81.1415 42.7226 81.2423 42.6283C81.3626 42.521 81.4342 42.3714 81.4439 42.2056L81.7626 35.7508C82.4422 36.3166 83.2584 36.7036 84.1494 36.8824C84.4226 36.9377 84.7055 36.9702 84.9884 36.9865C85.216 36.9995 85.4436 36.9962 85.668 36.9865H85.7005C88.8385 36.8044 91.1473 34.2517 91.3196 30.7788C91.3977 28.9968 90.9261 27.4002 89.9474 26.1613ZM85.2193 33.9851C85.0957 33.9916 84.9624 33.9916 84.8225 33.9851C83.8958 33.9396 83.1414 33.5298 82.6211 32.7949C82.1301 32.099 81.8862 31.1658 81.9349 30.1675C82.013 28.6196 83.0275 27.0002 84.8128 26.8962C84.9233 26.8929 85.0372 26.8897 85.1445 26.8962C85.3298 26.9059 85.5119 26.9287 85.6843 26.9612C86.3997 27.1043 86.9785 27.449 87.411 27.9888C87.9247 28.6359 88.1849 29.5269 88.1361 30.5024C88.0646 32.034 87.2549 33.868 85.2193 33.9851Z" fill="#007078"/>
<path d="M47.3002 22.2427C47.7229 22.3305 48.1587 22.3696 48.5944 22.3566C48.9033 22.3468 49.2155 22.3143 49.5212 22.2558C50.4057 22.0899 51.2186 21.7225 51.8982 21.1924C52.1096 21.0266 52.3242 20.6786 52.3893 20.3632L52.4348 20.7567C52.4836 21.0136 52.6819 21.2152 52.9356 21.2672C53.0169 21.2835 53.1014 21.2867 53.1827 21.2705L54.9939 20.9323C55.1598 20.903 55.3094 20.8055 55.4069 20.6656C55.5012 20.5226 55.5402 20.347 55.5077 20.1844L52.5811 4.3254C52.5323 4.06851 52.3372 3.87015 52.0803 3.81487C51.999 3.79536 51.9145 3.79536 51.83 3.81162L50.0187 4.14981C49.8496 4.18232 49.7033 4.27662 49.6057 4.4197C49.5082 4.56278 49.4724 4.73188 49.5049 4.89772L50.4642 10.1851C49.4692 9.71686 48.2855 9.55427 47.2124 9.75263C43.8793 10.3737 41.951 13.4629 42.6306 17.0952C43.1217 19.7324 44.9524 21.7517 47.3002 22.2427ZM46.0971 13.98C46.3832 13.4792 46.9393 12.8451 47.9636 12.6532C48.1457 12.6175 48.3278 12.5979 48.5034 12.5947C48.7375 12.5882 48.9684 12.6077 49.1862 12.6532C50.3764 12.9004 51.2446 13.8987 51.5113 15.3229C51.8267 17.0171 51.2414 18.8934 49.222 19.2706C49.0562 19.2999 48.8968 19.3194 48.7473 19.3226C48.5326 19.3291 48.3245 19.3096 48.1229 19.2706C46.6954 18.9714 45.9377 17.5277 45.7231 16.383C45.567 15.5408 45.7036 14.6661 46.0971 13.98Z" fill="#007078"/>
<path d="M60.7203 19.8333C61.2276 19.9244 61.7576 19.9471 62.2876 19.8984C63.4258 19.7976 64.4956 19.3488 65.3476 18.6269C65.4419 19.8398 65.3313 20.7341 65.0159 21.3617C64.6452 22.1031 63.9721 22.6136 62.8925 22.7404C61.9169 22.8575 60.4341 22.4933 60.122 21.2023C60.0407 20.8641 59.7903 20.5975 59.4261 20.6268L57.5888 20.7894C57.4132 20.8056 57.2571 20.8902 57.1466 21.0235C57.036 21.1568 56.9742 21.3292 57.0067 21.5015C57.4002 23.7095 59.0163 25.0752 61.2633 25.5077C61.7804 25.6053 62.3267 25.6313 62.886 25.602C62.9705 25.5955 63.0583 25.589 63.1429 25.5825C65.0452 25.4101 66.6808 24.4736 67.6336 23.0103C68.7294 21.3031 68.5799 19.635 68.4205 17.8725L67.5035 7.60987C67.4775 7.32371 67.2596 7.08633 66.9735 7.0343C66.9214 7.02455 66.8662 7.02129 66.8076 7.0278L64.9671 7.19039C64.7948 7.20665 64.6419 7.28794 64.5314 7.41801C64.4208 7.55134 64.3688 7.71718 64.385 7.88627L64.4143 8.30575C63.6859 7.36598 62.1933 7.13836 61.2243 7.2229C57.888 7.51882 55.6182 10.4877 55.9402 14.1232C56.2101 17.1181 58.0831 19.3586 60.7203 19.8333ZM59.7968 11.1836C60.2748 10.6145 60.9609 10.2536 61.6763 10.1885C61.7186 10.1853 61.7609 10.182 61.8031 10.1788C62.0633 10.1625 62.3137 10.1788 62.5543 10.2211C63.894 10.4649 64.8143 11.5998 64.9541 13.1834C65.0387 14.1525 64.8436 15.05 64.4013 15.7101C63.9363 16.4027 63.2079 16.8124 62.2941 16.8937L62.1868 16.9002C61.956 16.9132 61.7283 16.9002 61.5137 16.8612C60.0114 16.5913 59.2147 15.0662 59.0911 13.681C58.9806 12.4453 59.4131 11.6421 59.7968 11.1836Z" fill="#007078"/>
<path d="M74.1957 18.8444C74.4851 18.8997 74.7843 18.929 75.0834 18.9387C76.2768 18.9745 77.3402 18.6786 78.2507 18.0575V18.09C78.2377 18.438 78.5141 18.7404 78.8718 18.7534L80.7058 18.8087C80.7253 18.8087 80.748 18.8119 80.7643 18.8087C80.9139 18.7989 81.0602 18.7404 81.174 18.6331C81.2976 18.516 81.3691 18.3534 81.3724 18.1843L81.7008 7.35587C81.7106 7.00468 81.4439 6.70552 81.0765 6.69577L79.236 6.64048C79.0669 6.63398 78.901 6.69576 78.7775 6.81283C78.6506 6.93314 78.5759 7.09248 78.5726 7.26482L78.5563 7.64203C78.0296 6.67625 76.6053 6.26327 75.4867 6.2275C75.3078 6.221 75.129 6.22425 74.9599 6.23401C71.8154 6.3966 69.5489 8.946 69.4448 12.4319C69.3505 15.6739 71.3016 18.3111 74.1957 18.8444ZM75.3663 9.22565C75.4476 9.2224 75.5289 9.21915 75.607 9.2224C75.7761 9.2289 75.9419 9.24516 76.1045 9.27443C77.9385 9.61261 78.5466 11.206 78.5043 12.5847C78.4588 14.0741 77.7011 15.8463 75.7175 15.9503C75.6265 15.9568 75.5289 15.9568 75.4249 15.9536C74.5469 15.9243 73.8282 15.5536 73.3242 14.8675C72.843 14.2139 72.5958 13.3294 72.6251 12.3831C72.6706 10.9198 73.6461 9.3167 75.3663 9.22565Z" fill="#007078"/>
<path d="M100.906 21.6345C100.958 21.6442 101.007 21.6475 101.055 21.6442C101.335 21.6312 101.579 21.4296 101.647 21.1565L105.361 6.03565C105.403 5.86981 105.377 5.69746 105.289 5.54788C105.201 5.40155 105.062 5.29749 104.893 5.25847L103.104 4.81623C102.756 4.73493 102.411 4.9463 102.327 5.28774L101.189 9.96055C100.467 9.10533 99.4946 8.49725 98.4085 8.2306C97.8264 8.08752 97.2411 8.02899 96.6753 8.05501C94.0608 8.18183 91.9114 10.1329 91.1993 13.0237C90.8026 14.6334 90.9651 16.2788 91.6578 17.6575C92.4024 19.1338 93.7129 20.1679 95.3421 20.5711C96.4574 20.8475 97.989 20.7727 98.7207 20.0899L98.6134 20.4053C98.5711 20.5679 98.5971 20.7435 98.6881 20.8931C98.7759 21.0394 98.9158 21.1402 99.0849 21.1825L100.877 21.6247C100.883 21.6312 100.893 21.6312 100.906 21.6345ZM97.2183 17.8234C96.9257 17.8364 96.6168 17.8039 96.2981 17.7258C95.4494 17.5177 94.8185 16.9974 94.4706 16.2235C94.1389 15.4853 94.0836 14.5683 94.308 13.6481C94.6624 12.2108 95.8038 11.1637 97.085 11.0987C97.2931 11.0889 97.5077 11.1052 97.7224 11.1442C97.7776 11.154 97.8329 11.167 97.8882 11.18C98.7629 11.3946 99.4198 11.8889 99.797 12.6075C100.161 13.3034 100.239 14.1814 100.018 15.0789C99.6182 16.708 98.5451 17.7583 97.2183 17.8234Z" fill="#007078"/>
<path d="M89.7197 10.3154L89.8563 10.4292C89.9961 10.5462 90.1847 10.595 90.3636 10.569C90.5457 10.5397 90.705 10.4324 90.8058 10.2763L91.7196 8.8553C91.9082 8.55939 91.8106 8.19844 91.5375 7.98057C90.9684 7.51881 90.0449 6.88146 88.497 6.95951C88.0255 6.98227 87.4337 7.27493 87.0533 7.74644C87.0598 7.50581 87.0468 7.29119 87.0142 7.24892C86.9102 7.12535 86.7671 7.0473 86.611 7.02779C86.598 7.02454 86.5882 7.02454 86.5785 7.02454L84.7412 6.86846C84.3868 6.83919 84.0779 7.09933 84.0454 7.45378L83.1414 18.2497C83.1121 18.5911 83.356 18.8936 83.6909 18.9391C83.7039 18.9391 83.7169 18.9423 83.7267 18.9423L85.5639 19.0984C85.603 19.1017 85.6387 19.0984 85.6778 19.0984C85.8078 19.0854 85.9281 19.0366 86.0322 18.9488C86.1623 18.8383 86.2436 18.6822 86.2566 18.5131L86.7086 13.1151C86.8289 11.6648 87.1118 9.99667 88.2011 9.88286C88.8385 9.81457 89.2872 10.0097 89.7197 10.3154Z" fill="#007078"/>
<path d="M112.141 31.0584L112.264 31.1884C112.391 31.3218 112.573 31.3998 112.762 31.3933C112.95 31.3868 113.126 31.299 113.246 31.1559L114.359 29.8324C114.586 29.5593 114.534 29.1788 114.287 28.9252C113.767 28.3821 112.918 27.6212 111.338 27.4977C110.856 27.4619 110.219 27.683 109.773 28.109C109.809 27.8651 109.826 27.6472 109.796 27.5985C109.708 27.4619 109.572 27.3643 109.416 27.3221C109.403 27.3188 109.393 27.3156 109.38 27.3156L107.536 26.9221C107.182 26.8473 106.834 27.0717 106.756 27.4261L104.45 38.2513C104.379 38.5927 104.584 38.9309 104.922 39.022C104.935 39.0252 104.945 39.0285 104.958 39.0317L106.801 39.4252C106.84 39.4317 106.879 39.4382 106.918 39.4382C107.052 39.4415 107.179 39.4057 107.296 39.3342C107.442 39.2366 107.543 39.0935 107.579 38.9212L108.733 33.507C109.042 32.0534 109.539 30.395 110.661 30.421C111.312 30.4373 111.744 30.6909 112.141 31.0584Z" fill="#007078"/>
<path d="M40.634 23.1304C40.6763 23.1824 38.2862 23.9791 38.0553 24.0116C37.0831 24.1514 36.049 24.0929 35.119 23.7612C33.1647 23.0686 31.8607 21.0005 31.9517 18.9388C32.0363 17.056 33.5451 14.9684 35.6458 15.0204C36.4132 15.0399 37.0896 15.2513 37.4895 15.9439C37.6424 16.2106 37.8732 16.7374 37.5936 17.0951C37.1221 17.6966 35.3011 18.1714 34.4394 18.295C34.1532 18.3372 33.9613 18.5258 33.9646 18.8998C33.9711 19.8851 34.3223 20.5745 34.6865 20.9354C35.0962 21.3386 35.3433 21.2411 35.7336 21.1565C37.8147 20.6948 40.9819 19.807 41.1348 17.1959C41.2356 15.4789 40.3901 13.6904 38.7187 12.6466C37.0668 11.6158 33.6557 11.463 31.2429 13.3425C28.7943 15.248 27.783 18.9291 29.0446 22.3174C29.7113 24.0994 30.986 25.4001 32.7517 26.3626C34.797 27.478 39.2845 27.8064 42.4745 25.8911C42.4778 25.8911 40.634 23.1304 40.634 23.1304Z" fill="#007078"/>
<path d="M50.4414 36.6057L49.1862 36.0854C48.0708 35.6464 47.9083 36.1895 47.4855 37.0284C46.3376 39.3177 45.219 41.0899 43.0989 42.0004C41.8599 42.5305 40.5267 42.6703 39.2357 42.4036C36.9985 41.9419 35.08 40.303 34.1012 38.017L34.0784 37.965C32.846 35.0904 33.2525 29.7672 38.3122 27.4714C42.8843 27.4779 44.8158 24.7432 43.2452 23.566C41.2616 22.08 36.8067 23.7547 35.5677 24.7204C30.1633 27.7869 28.2545 34.3165 30.5015 39.5583L30.5242 39.6104C31.9582 42.9564 34.8328 45.3693 38.2147 46.0652C40.2958 46.4944 42.468 46.2603 44.4971 45.392C48.344 43.7434 49.7293 41.0672 50.7406 38.7356C51.2706 37.5065 51.2056 36.9699 50.4414 36.6057Z" fill="#007078"/>
<path d="M110.622 38.0658C111.195 38.2251 111.533 38.8202 111.373 39.3925C111.214 39.9648 110.619 40.2998 110.047 40.1404C109.474 39.9811 109.139 39.3893 109.299 38.817C109.458 38.2446 110.053 37.9065 110.622 38.0658ZM110.112 39.9128C110.56 40.0364 111.022 39.773 111.146 39.3275C111.269 38.8787 111.009 38.417 110.56 38.2934C110.112 38.1699 109.65 38.43 109.526 38.8787C109.403 39.3242 109.663 39.7892 110.112 39.9128ZM110.079 38.521C110.086 38.4918 110.118 38.4723 110.151 38.482L110.596 38.6056C110.775 38.6544 110.915 38.8365 110.853 39.0608C110.801 39.2527 110.661 39.3047 110.56 39.3242L110.609 39.6624C110.616 39.7079 110.58 39.7372 110.538 39.7275L110.382 39.6852C110.359 39.6787 110.343 39.6527 110.339 39.6299L110.3 39.2722L110.151 39.2299L110.066 39.5389C110.06 39.5681 110.027 39.5876 109.995 39.5779L109.855 39.5389C109.822 39.5291 109.806 39.4966 109.816 39.4673L110.079 38.521ZM110.434 39.0738C110.502 39.0934 110.567 39.0543 110.583 38.9893C110.603 38.921 110.567 38.856 110.499 38.8397L110.271 38.7779L110.206 39.0153L110.434 39.0738Z" fill="#007078"/>
</g>
</svg>
