<svg width="190" height="195" viewBox="0 0 190 195" fill="none" xmlns="http://www.w3.org/2000/svg">
<mask id="mask0_749_4256" style="mask-type:alpha" maskUnits="userSpaceOnUse" x="0" y="0" width="190" height="195">
<rect width="190" height="195" fill="#D9D9D9"/>
</mask>
<g mask="url(#mask0_749_4256)">
<g filter="url(#filter0_d_749_4256)">
<circle cx="95" cy="95" r="80" fill="white"/>
</g>
<path d="M109.384 63.0283C105.837 63.7039 102.881 66.4346 101.91 69.9394C101.741 70.5728 101.656 71.7271 101.572 74.6548C101.502 77.0477 101.403 78.7368 101.29 79.0886C101.009 80.0036 100.376 81.1578 99.6999 82.0023C98.8976 82.9735 97.7715 83.7196 94.6608 85.3383C92.0568 86.6895 91.8597 86.8725 91.8597 87.7593C91.8597 88.3645 92.5353 89.012 93.1406 89.012C93.6051 89.012 97.0396 87.3652 99.0524 86.1687C101.009 85.0286 102.684 83.1143 103.528 81.0592C104.246 79.342 104.387 78.3567 104.387 75.0208C104.387 73.3739 104.457 71.6567 104.542 71.1922C104.964 68.8415 106.878 66.6598 109.088 65.9982L109.736 65.8012V68.4615C109.736 71.0655 109.75 71.1218 110.074 71.5159C110.411 71.896 110.44 71.91 112.438 71.9945C114.325 72.0649 114.536 72.1071 115.394 72.5012C116.478 73.0079 117.295 73.7821 117.914 74.8659C118.589 76.0624 118.589 76.0624 121.348 76.0624C124.051 76.0624 124.501 76.175 124.994 77.0336C125.275 77.5122 125.275 77.5122 124.952 79.4968C124.769 80.5947 124.515 81.7349 124.389 82.0586C124.009 82.9032 123.319 83.6069 122.432 84.0433L121.63 84.4374L117.675 84.5078C113.452 84.5782 113.424 84.5922 113.142 85.3242C113.044 85.5635 112.959 87.8015 112.931 91.1234C112.861 96.8663 112.79 97.7108 112.044 101.117C111.721 102.539 110.946 105.058 110.2 107.043L109.961 107.69L111.777 114.644L113.593 121.597L114.409 122.456C115.225 123.314 115.394 123.751 115.028 124.046C114.902 124.159 114.085 124.201 112.41 124.173L110.003 124.131L106.977 116.319L103.965 108.507V105.03V101.539C103.965 101.539 103.894 101.469 103.557 101.089C103.219 100.709 103.05 100.624 102.557 100.624C102.065 100.624 101.558 101.089 101.558 101.089L101.15 101.539V105.284V109.014L103.979 116.361C105.541 120.401 106.85 123.821 106.893 123.962C106.949 124.187 106.766 124.201 104.5 124.201H102.036L101.868 123.385C101.445 121.499 100.038 119.387 98.419 118.219C96.7018 117.009 95.3223 116.544 92.8872 116.389L91.3389 116.291L91.0152 114.292C90.8322 113.208 90.5507 111.829 90.3677 111.252C89.5654 108.634 87.5103 106.381 84.9626 105.326C83.6114 104.749 80.1769 104.031 79.7124 104.2C79.1071 104.439 78.7271 105.058 78.8115 105.678C78.9382 106.564 79.2338 106.733 81.5141 107.254C83.921 107.803 84.8641 108.253 86.0042 109.38C87.1866 110.548 87.7215 111.744 88.1437 114.137C88.3267 115.221 88.4815 116.15 88.4815 116.206C88.4815 116.263 86.4265 116.319 83.921 116.347L79.3464 116.389L78.9241 116.797C78.3189 117.375 78.3048 118.205 78.8819 118.754L79.276 119.134H85.962C89.6217 119.134 93.1124 119.204 93.6896 119.275C96.195 119.599 98.4331 121.499 99.1087 123.892L99.2072 124.215L88.4534 124.159C77.9529 124.117 77.6855 124.117 76.5594 123.807C71.3514 122.428 67.6073 118.163 66.9457 112.856C66.439 108.887 67.9733 104.509 70.8728 101.568C72.2382 100.188 73.5754 99.3576 78.5441 96.8099C83.2735 94.3749 83.4987 94.2059 83.358 93.2347C83.2595 92.5872 82.7105 92.1087 82.049 92.1087C81.6689 92.1087 80.5006 92.6435 77.5166 94.1637C75.3067 95.3039 73.0124 96.5003 72.4352 96.8381C71.0558 97.6263 69.2541 99.0902 68.3251 100.146C67.4102 101.202 67.3258 101.103 67.3398 98.8791C67.3539 96.4018 68.0296 94.2622 69.4231 92.3761C70.0846 91.4753 71.4922 90.1803 72.5338 89.5187C73.9132 88.632 74.3355 87.4496 73.7021 86.1969C73.1953 85.1975 72.5338 84.9019 70.8869 84.916C68.4941 84.9441 65.8619 85.7324 63.652 87.0836C55.8259 91.8412 53.6442 101.934 58.7818 109.577C59.6545 110.857 61.7518 112.898 63.1453 113.813L64.3417 114.588L64.5951 115.517C65.8901 120.373 69.8312 124.553 74.6592 126.158C77.0662 126.974 75.8134 126.918 96.2091 126.974C117.154 127.03 115.943 127.087 116.971 126.073C117.703 125.355 118.041 124.581 118.041 123.638C118.041 122.653 117.66 121.822 116.802 120.908L116.14 120.19L114.536 114.025L112.931 107.859L113.579 105.931C114.381 103.566 114.986 101.103 115.38 98.5835C115.619 97.0492 115.69 95.7965 115.746 92.0242L115.817 87.3511L118.871 87.2948C121.433 87.2385 122.052 87.1822 122.784 86.9429C124.924 86.2391 126.669 84.4656 127.246 82.3964C127.654 80.9607 128.062 78.1315 127.992 77.3433C127.809 75.626 126.514 74.0495 124.839 73.5287C124.121 73.3035 123.516 73.2472 122.066 73.2472L120.222 73.2332L119.744 72.5294C118.421 70.5869 115.69 69.1794 113.227 69.1653H112.565L112.523 66.4205L112.481 63.6758L112.101 63.3098C111.636 62.8453 110.806 62.7608 109.384 63.0283ZM69.5497 88.1956C65.3411 91.5597 63.469 97.6123 65.0737 102.708C65.2707 103.341 65.4256 104.045 65.4256 104.284C65.4256 104.509 65.2003 105.326 64.9329 106.086C64.6655 106.86 64.3699 108.028 64.2713 108.69C64.1869 109.365 64.0743 110.168 64.018 110.477L63.9195 111.04L62.7793 109.914C60.9495 108.099 59.8375 106.213 59.19 103.791C58.7396 102.116 58.7396 99.048 59.19 97.3871C60.4287 92.7843 64.0884 89.1387 68.5926 88.0408C70.0987 87.6607 70.1831 87.6748 69.5497 88.1956Z" fill="#142535"/>
<circle cx="87.5" cy="90.5" r="1.5" fill="#142535"/>
<circle cx="113.5" cy="76.5" r="1.5" fill="#142535"/>
</g>
<defs>
<filter id="filter0_d_749_4256" x="-5" y="-1" width="200" height="200" filterUnits="userSpaceOnUse" color-interpolation-filters="sRGB">
<feFlood flood-opacity="0" result="BackgroundImageFix"/>
<feColorMatrix in="SourceAlpha" type="matrix" values="0 0 0 0 0 0 0 0 0 0 0 0 0 0 0 0 0 0 127 0" result="hardAlpha"/>
<feOffset dy="4"/>
<feGaussianBlur stdDeviation="10"/>
<feComposite in2="hardAlpha" operator="out"/>
<feColorMatrix type="matrix" values="0 0 0 0 0.243137 0 0 0 0 0.368627 0 0 0 0 0.368627 0 0 0 0.16 0"/>
<feBlend mode="normal" in2="BackgroundImageFix" result="effect1_dropShadow_749_4256"/>
<feBlend mode="normal" in="SourceGraphic" in2="effect1_dropShadow_749_4256" result="shape"/>
</filter>
</defs>
</svg>
