<svg width="155" height="35" viewBox="0 0 155 35" fill="none" xmlns="http://www.w3.org/2000/svg">
<mask id="mask0_765_8267" style="mask-type:alpha" maskUnits="userSpaceOnUse" x="0" y="0" width="155" height="35">
<rect x="0.799999" y="0.5" width="154" height="34" fill="#D9D9D9"/>
</mask>
<g mask="url(#mask0_765_8267)">
<path d="M54.716 28V8.63H58.746V17.002H66.286V8.63H70.316V28H66.286V20.512H58.746V28H54.716ZM82.937 28.312C81.481 28.312 80.129 28.0607 78.881 27.558C77.633 27.0553 76.541 26.3533 75.605 25.452C74.6863 24.5333 73.967 23.4673 73.447 22.254C72.927 21.0407 72.667 19.7233 72.667 18.302C72.667 16.8807 72.9183 15.5633 73.421 14.35C73.941 13.1367 74.6603 12.0793 75.579 11.178C76.515 10.2767 77.607 9.57467 78.855 9.072C80.103 8.56933 81.4636 8.318 82.937 8.318C84.4103 8.318 85.771 8.56933 87.019 9.072C88.267 9.57467 89.3503 10.2767 90.269 11.178C91.205 12.0793 91.9243 13.1367 92.427 14.35C92.947 15.5633 93.207 16.8807 93.207 18.302C93.207 19.7233 92.947 21.0407 92.427 22.254C91.907 23.4673 91.179 24.5333 90.243 25.452C89.3243 26.3533 88.241 27.0553 86.993 27.558C85.745 28.0607 84.393 28.312 82.937 28.312ZM82.937 24.672C83.821 24.672 84.6356 24.516 85.381 24.204C86.1436 23.892 86.811 23.4587 87.383 22.904C87.955 22.332 88.397 21.656 88.709 20.876C89.021 20.096 89.177 19.238 89.177 18.302C89.177 17.366 89.021 16.5167 88.709 15.754C88.397 14.974 87.955 14.298 87.383 13.726C86.811 13.154 86.1436 12.7207 85.381 12.426C84.6356 12.114 83.821 11.958 82.937 11.958C82.053 11.958 81.2296 12.114 80.467 12.426C79.7216 12.7207 79.063 13.154 78.491 13.726C77.919 14.298 77.477 14.974 77.165 15.754C76.853 16.5167 76.697 17.366 76.697 18.302C76.697 19.238 76.853 20.096 77.165 20.876C77.477 21.656 77.919 22.332 78.491 22.904C79.063 23.4587 79.7216 23.892 80.467 24.204C81.2296 24.516 82.053 24.672 82.937 24.672ZM95.5451 28V8.63H98.6391L109.039 22.332L107.375 22.722V8.63H111.405V28H108.285L98.0671 14.194L99.5751 13.804V28H95.5451ZM123.63 28.312C122.243 28.312 120.952 28.0607 119.756 27.558C118.56 27.0553 117.511 26.3533 116.61 25.452C115.709 24.5507 115.007 23.4933 114.504 22.28C114.001 21.0667 113.75 19.7407 113.75 18.302C113.75 16.8633 113.993 15.5373 114.478 14.324C114.963 13.0933 115.648 12.036 116.532 11.152C117.416 10.2507 118.447 9.55733 119.626 9.072C120.822 8.56933 122.122 8.318 123.526 8.318C124.93 8.318 126.187 8.552 127.296 9.02C128.423 9.488 129.376 10.112 130.156 10.892C130.936 11.672 131.491 12.5387 131.82 13.492L128.258 15.208C127.929 14.272 127.348 13.5007 126.516 12.894C125.701 12.27 124.705 11.958 123.526 11.958C122.382 11.958 121.377 12.2267 120.51 12.764C119.643 13.3013 118.967 14.0467 118.482 15C118.014 15.936 117.78 17.0367 117.78 18.302C117.78 19.5673 118.031 20.6767 118.534 21.63C119.037 22.5833 119.721 23.3287 120.588 23.866C121.472 24.4033 122.486 24.672 123.63 24.672C124.514 24.672 125.337 24.5073 126.1 24.178C126.88 23.8313 127.504 23.3373 127.972 22.696C128.457 22.0547 128.7 21.2833 128.7 20.382V18.77L130.546 20.33H123.526V16.95H132.73V19.004C132.73 20.5813 132.47 21.9593 131.95 23.138C131.43 24.2993 130.728 25.27 129.844 26.05C128.977 26.8127 127.998 27.3847 126.906 27.766C125.831 28.13 124.739 28.312 123.63 28.312ZM144.396 28.312C142.94 28.312 141.588 28.0607 140.34 27.558C139.092 27.0553 138 26.3533 137.064 25.452C136.146 24.5333 135.426 23.4673 134.906 22.254C134.386 21.0407 134.126 19.7233 134.126 18.302C134.126 16.8807 134.378 15.5633 134.88 14.35C135.4 13.1367 136.12 12.0793 137.038 11.178C137.974 10.2767 139.066 9.57467 140.314 9.072C141.562 8.56933 142.923 8.318 144.396 8.318C145.87 8.318 147.23 8.56933 148.478 9.072C149.726 9.57467 150.81 10.2767 151.728 11.178C152.664 12.0793 153.384 13.1367 153.886 14.35C154.406 15.5633 154.666 16.8807 154.666 18.302C154.666 19.7233 154.406 21.0407 153.886 22.254C153.366 23.4673 152.638 24.5333 151.702 25.452C150.784 26.3533 149.7 27.0553 148.452 27.558C147.204 28.0607 145.852 28.312 144.396 28.312ZM144.396 24.672C145.28 24.672 146.095 24.516 146.84 24.204C147.603 23.892 148.27 23.4587 148.842 22.904C149.414 22.332 149.856 21.656 150.168 20.876C150.48 20.096 150.636 19.238 150.636 18.302C150.636 17.366 150.48 16.5167 150.168 15.754C149.856 14.974 149.414 14.298 148.842 13.726C148.27 13.154 147.603 12.7207 146.84 12.426C146.095 12.114 145.28 11.958 144.396 11.958C143.512 11.958 142.689 12.114 141.926 12.426C141.181 12.7207 140.522 13.154 139.95 13.726C139.378 14.298 138.936 14.974 138.624 15.754C138.312 16.5167 138.156 17.366 138.156 18.302C138.156 19.238 138.312 20.096 138.624 20.876C138.936 21.656 139.378 22.332 139.95 22.904C140.522 23.4587 141.181 23.892 141.926 24.204C142.689 24.516 143.512 24.672 144.396 24.672Z" fill="#121310"/>
<path d="M4.44807 15.1412C4.93415 21.4975 13.7178 28.9133 18.0488 31.8266C16.0671 27.1528 17.4724 23.4605 18.4227 22.1986C19.0303 21.4352 19.8061 19.6654 18.0488 18.6933C16.2915 17.7211 15.9144 15.2347 15.9456 14.1129L17.7684 13.1782L19.4509 11.5424L20.5259 11.2152L21.1335 10.6543C17.6562 5.79359 11.9261 5.73128 9.49577 6.30771C7.61067 6.60372 3.962 8.78482 4.44807 15.1412Z" fill="#61C8C8"/>
<path d="M37.632 7.10226C32.6591 4.18581 28.6739 7.53848 27.3029 9.57937C29.2192 12.851 28.8453 14.8608 28.5648 19.8617C28.3405 23.8625 29.5931 25.4235 30.2474 25.704C32.7899 24.4701 36.4168 20.8588 37.9124 19.2074C39.891 16.3875 42.6049 10.0187 37.632 7.10226Z" fill="#5CBFBF"/>
<path d="M21.4607 11.3087C23.7415 11.5704 25.0595 9.36126 25.4334 8.22397L26.1345 8.55113L26.3214 9.43915C25.854 13.9727 24.2649 14.8608 22.8628 14.9075C21.7411 14.9449 21.1179 15.4528 20.9466 15.702C19.7875 17.3472 19.5288 19.0672 19.5444 19.7215L17.5347 18.1791C16.0765 17.2818 15.8054 15.001 15.8521 13.9727L18.5162 12.6641C18.5473 12.1032 19.1799 11.0469 21.4607 11.3087Z" fill="#F0A1A6"/>
<path d="M24.4519 33.0418C27.6675 29.5271 31.3379 27.9318 32.7712 27.5735C32.6933 27.5947 32.9582 27.8395 34.6408 28.6484C36.744 29.6596 32.7712 31.2658 29.4996 32.7146C26.8823 33.8737 25.0439 33.4157 24.4519 33.0418Z" fill="#9FD7D8"/>
<path d="M20.7129 4.01755C18.8745 2.52194 13.7863 0.147654 8.14036 2.61542C2.49442 5.08318 1.73727 10.6232 2.06443 13.0847C2.00212 15.0477 3.33571 20.1608 9.1686 24.9094C15.0015 29.658 17.9865 31.8733 18.7499 32.3875C17.5814 30.9542 15.9456 26.6574 18.7499 20.9367C19.2172 20.407 19.8061 19.2448 18.4227 18.8335C17.0393 18.4222 16.3818 17.1353 16.226 16.5433L15.9456 15.4683C15.7275 15.0165 15.553 14.0101 16.5999 13.5988C17.9086 13.0847 18.3292 12.7108 19.0303 12.0097C19.7314 11.3087 20.1053 11.075 21.8346 11.3087C23.5639 11.5424 24.7323 9.6261 25.1997 9.01851C25.6671 8.41092 25.9475 7.80332 26.7421 9.01851C27.5366 10.2337 28.9855 12.0097 28.5648 19.2074C28.1286 21.2327 28.1816 25.6479 31.8832 27.1061C36.5103 28.9289 36.3233 29.2093 33.5658 30.9386C30.8083 32.6679 21.3205 35.332 24.4052 30.9386C27.4899 26.5452 31.743 25.8442 35.8559 21.6377C39.9689 17.4313 45.1101 10.2337 39.595 4.34472C35.1829 -0.366463 28.5648 2.66215 25.8073 4.76536" stroke="#232323" stroke-width="1.86952" stroke-linecap="round" stroke-linejoin="round"/>
</g>
</svg>
