<svg width="190" height="195" viewBox="0 0 190 195" fill="none" xmlns="http://www.w3.org/2000/svg">
<mask id="mask0_749_4278" style="mask-type:alpha" maskUnits="userSpaceOnUse" x="0" y="0" width="190" height="195">
<rect width="190" height="195" fill="#D9D9D9"/>
</mask>
<g mask="url(#mask0_749_4278)">
<g filter="url(#filter0_d_749_4278)">
<circle cx="95" cy="95" r="80" fill="white"/>
</g>
<path d="M86.5385 64.3209C81.6248 64.9399 77.0723 66.8487 73.2161 69.9181C72.5197 70.4727 72.1199 70.8983 71.9522 71.2594C71.3074 72.6909 72.0683 74.2902 73.5772 74.6771C74.2221 74.8447 76.8401 75.0382 81.7667 75.2832C83.856 75.3864 85.6487 75.4767 85.7518 75.4767C85.855 75.4767 85.5068 75.7733 84.9909 76.1344C82.0504 78.1592 79.1744 81.2029 76.6982 84.9172C74.3897 88.3735 72.4552 92.8616 71.5653 96.821L71.2816 98.1235L70.224 98.1107C69.2439 98.1107 69.0891 98.1493 68.2121 98.6007C65.2072 100.161 62.3956 103.037 60.848 106.094C60.3966 106.997 60.4095 107.422 60.9254 108.531C62.1506 111.111 65.2201 112.865 67.6447 112.362C68.7151 112.142 69.3341 111.846 70.3143 111.085L71.1913 110.427L71.2687 110.775C71.6556 112.529 72.3391 114.851 72.7776 115.973C73.229 117.095 73.3838 117.353 73.7449 117.572C74.48 117.998 76.4661 118.681 78.2846 119.145C79.2389 119.39 80.0256 119.61 80.0385 119.623C80.0514 119.636 79.8064 119.997 79.484 120.422C78.8004 121.325 78.5038 121.97 78.2846 123.002C77.7816 125.439 79.5227 128.483 82.1278 129.721C83.2241 130.237 83.6497 130.25 84.5524 129.798C87.3768 128.367 89.8917 126.007 91.6199 123.169C92.4066 121.88 92.6388 121.157 92.5743 120.306L92.5227 119.636L94.1993 119.223C97.1527 118.513 100.699 117.211 101.048 116.708C101.486 116.089 101.164 114.967 100.467 114.683C100.003 114.49 100.029 114.49 97.7072 115.392C95.8372 116.128 93.5286 116.76 91.4265 117.134C89.1566 117.546 84.9135 117.636 82.5663 117.34C80.6834 117.095 77.9879 116.45 76.4145 115.87L75.3828 115.496L75.0861 114.735C74.2607 112.62 73.6159 109.718 73.3709 106.945C72.5713 97.8785 76.3371 88.0124 83.2885 80.9707C87.854 76.3537 93.1546 74.2386 99.5644 74.4836C101.654 74.561 102.363 74.6513 104.555 75.1027L105.884 75.3864L106.645 76.9469C107.057 77.7981 107.754 78.9846 108.192 79.565C109.727 81.6156 112.023 83.434 114.344 84.44C114.899 84.685 115.389 84.9559 115.44 85.059C115.505 85.1622 115.698 86.0263 115.866 86.9936C117.104 93.6612 116.137 99.1295 112.861 104.005C111.881 105.449 110.217 107.409 109.379 108.08C108.36 108.892 108.218 109.821 108.992 110.479C109.753 111.124 110.269 110.917 111.829 109.305C113.093 108.015 113.88 107.087 114.628 106.004L115.144 105.256L115.221 106.068C115.26 106.519 115.324 107.745 115.363 108.815C115.479 111.923 115.814 116.514 115.956 117.069C116.369 118.604 117.981 119.352 119.4 118.668C120.406 118.178 122.443 115.354 123.823 112.542C125.513 109.099 126.519 104.843 126.519 101.129C126.519 96.7565 125.474 93.1712 123.191 89.7277C121.721 87.5094 120.831 86.8001 119.232 86.5938L118.471 86.5035L118.265 85.5362C117.865 83.7693 117.633 83.1116 117.285 82.8408C117.091 82.686 116.859 82.5699 116.769 82.5699C116.55 82.5699 116.537 82.2862 116.717 81.6672C116.82 81.306 117.04 81.0997 117.852 80.5709C119.941 79.2168 122.005 76.7277 123.05 74.316C123.888 72.3943 124.417 69.7247 124.301 68.0868C124.249 67.4161 124.184 67.2614 123.836 66.9518C123.436 66.5907 123.359 66.5778 122.211 66.5778C117.568 66.5778 112.835 69.1056 110.282 72.9618C109.65 73.9033 109.547 74.0064 109.005 74.1483C108.399 74.3031 108.218 74.2386 108.205 73.8517C108.205 73.4648 107.535 73.1423 105.871 72.7167L104.143 72.2911L104.052 71.4786C103.872 69.8407 103.163 68.938 100.919 67.4548C96.74 64.682 91.9939 63.6503 86.5385 64.3209ZM91.7231 66.8358C94.2896 67.0808 96.7915 67.932 99.0098 69.2991C100.428 70.189 101.357 71.0401 101.447 71.5431L101.525 71.93L99.3322 71.8913C96.7529 71.8398 94.7538 72.059 92.5098 72.6523L90.988 73.0521L87.1834 72.8973C83.0048 72.7425 77.1238 72.433 75.5246 72.304L74.4929 72.2138L74.8798 71.9042C75.8084 71.1433 78.0395 69.7376 79.2389 69.1572C83.2112 67.2485 87.5574 66.4489 91.7231 66.8358ZM121.618 69.6602C121.618 70.3695 121.076 72.433 120.612 73.4261C119.58 75.7088 117.388 78.0174 115.195 79.1394C114.744 79.3715 114.512 79.7842 114.241 80.8031L114.073 81.4221L113.158 80.7902C112.655 80.4291 111.855 79.7455 111.378 79.2683C110.424 78.3011 109.43 76.9082 109.585 76.7664C109.637 76.7148 109.985 76.5987 110.333 76.5084C111.301 76.2505 111.365 76.1989 112.036 75.0769C113.802 72.1106 116.743 70.0342 120.148 69.3636C121.592 69.0669 121.618 69.0798 121.618 69.6602ZM120.07 89.9083C120.844 90.7337 121.915 92.4747 122.534 93.9192C124.675 98.8845 124.275 105.604 121.489 111.407C120.909 112.594 119.503 114.838 118.742 115.766L118.432 116.153L118.355 115.186C118.239 113.987 117.929 108.041 117.749 103.721L117.594 100.432L117.981 99.1295C118.703 96.7307 118.948 94.822 118.961 91.8299C118.974 89.2118 118.974 89.1473 119.232 89.2247C119.374 89.2634 119.748 89.5729 120.07 89.9083ZM70.5465 100.755C70.7657 100.871 70.7786 101.051 70.7141 103.747C70.6367 107.009 70.6367 107.022 69.4373 108.351C67.8252 110.143 66.0583 110.272 64.2915 108.725C63.9691 108.441 63.5822 107.977 63.4403 107.693L63.1823 107.177L63.8659 106.068C65.0395 104.172 67.3867 101.993 69.4502 100.896C70.0306 100.587 70.1982 100.574 70.5465 100.755ZM89.9691 120.293C90.2399 121.377 86.977 125.297 84.5653 126.793L83.4433 127.477L82.8758 127.141C81.1993 126.161 80.3996 124.098 81.1348 122.653C81.483 121.957 82.4116 120.977 83.1854 120.487L83.7915 120.1L85.2618 120.164C86.0743 120.203 87.3382 120.19 88.0862 120.126C88.8342 120.061 89.5435 119.997 89.6596 119.984C89.8015 119.984 89.9175 120.087 89.9691 120.293Z" fill="#142535"/>
<path d="M96.6626 77.1146C92.7419 77.6176 89.3372 79.1523 86.1774 81.8349C84.7975 82.9956 83.7141 84.1821 82.2826 86.0779C78.1556 91.5333 75.9373 97.9431 75.9244 104.43C75.9244 106.7 76.1437 107.745 76.9949 109.37C78.3233 111.923 80.4125 113.639 83.2499 114.503C84.3203 114.825 84.5782 114.851 86.5386 114.851C92.8451 114.825 99.4225 112.529 104.813 108.493C108.205 105.939 110.32 103.54 111.855 100.497C113.699 96.821 114.189 92.9649 113.416 87.9867C113.274 87.0194 113.067 86.7744 111.855 86.1037C108.747 84.3627 106.606 82.2218 104.723 78.9718C104.104 77.9013 103.936 77.7079 103.537 77.5789C102.402 77.2049 98.1715 76.9212 96.6626 77.1146ZM96.985 80.0164C96.985 80.3259 96.4562 85.201 96.4175 85.2397C96.4046 85.2525 95.5148 85.4976 94.4443 85.7684L92.4969 86.2843L90.2915 84.9946C87.7251 83.4986 87.7895 83.7049 89.5564 82.5184C91.4394 81.2545 93.4384 80.3904 95.5663 79.939C96.8044 79.6682 96.985 79.6811 96.985 80.0164ZM102.17 80.0035C102.299 80.068 102.492 80.3131 102.608 80.5452C103.924 83.1117 107.29 86.5164 110.101 88.1156C110.836 88.5283 110.888 88.5928 110.965 89.1345C111.004 89.444 111.043 89.8825 111.043 90.1147V90.5145L108.115 91.1335C106.49 91.4559 105.11 91.7268 105.046 91.7268C104.968 91.7268 103.588 90.3984 101.963 88.7734L98.9969 85.8071L99.2935 83.1246C99.4483 81.6543 99.6031 80.2744 99.6418 80.068L99.7191 79.694L100.828 79.7843C101.434 79.8359 102.041 79.939 102.17 80.0035ZM88.6665 87.0581L90.859 88.3478L90.8977 90.5532C90.9235 92.2942 90.8977 92.7585 90.7687 92.7585C90.4463 92.7585 82.1278 91.3528 82.0633 91.2883C81.8957 91.1335 83.7915 88.2704 85.1199 86.6583C85.8679 85.7426 86.0743 85.5621 86.2548 85.6523C86.3709 85.7168 87.4671 86.3488 88.6665 87.0581ZM102.569 95.4798L102.066 97.3369L99.5644 97.3756L97.0753 97.4014L95.2955 95.6345L93.5029 93.8676V91.9202C93.5029 90.8627 93.5415 89.6891 93.5802 89.3151L93.6705 88.6573L95.4245 88.2059L97.1785 87.7674L100.119 90.695L103.072 93.6226L102.569 95.4798ZM111.107 94.0095C110.901 95.9569 110.075 98.4847 109.082 100.174C108.528 101.129 107.419 102.676 107.29 102.689C107.251 102.689 106.593 101.748 105.819 100.6L104.439 98.5105L105.007 96.447L105.574 94.3706L106.219 94.2159C106.877 94.0482 110.901 93.1712 111.094 93.1583C111.146 93.1454 111.159 93.5323 111.107 94.0095ZM82.9532 94.1256C83.7141 94.2417 84.3977 94.3835 84.4751 94.4351C84.5782 94.4996 84.4364 95.454 84.0237 97.6722C83.7012 99.4004 83.3788 100.858 83.3272 100.922C83.2241 101.025 78.8004 102.818 78.6457 102.818C78.5812 102.818 78.5683 102.509 78.6199 102.135C78.9036 99.6454 79.5356 97.0274 80.3094 94.9897C80.7737 93.7774 80.7737 93.7645 81.1735 93.8419C81.3927 93.8805 82.1923 94.0095 82.9532 94.1256ZM89.6983 95.2734L91.6199 95.5829L93.4513 97.4143L95.2697 99.2327L95.6308 101.412C95.8243 102.612 95.9662 103.618 95.9404 103.631C95.9146 103.656 94.4443 103.94 92.6646 104.275L89.4403 104.882L87.6993 103.14L85.9711 101.412L86.1903 100.277C87.2866 94.4351 87.1963 94.822 87.4929 94.8865C87.6348 94.9252 88.6278 95.0928 89.6983 95.2734ZM103.833 102.328L105.407 104.675L104.968 105.049C103.601 106.236 100.428 108.415 99.6933 108.686C99.5257 108.738 99.3838 108.08 98.8164 104.598C98.4423 102.302 98.0941 100.329 98.0683 100.2C98.0039 99.9937 98.1586 99.9808 100.132 99.9808H102.273L103.833 102.328ZM85.855 105.036L87.4284 106.623L86.3322 109.395C85.726 110.917 85.2102 112.181 85.1844 112.22C85.0554 112.336 83.3788 111.833 82.5663 111.433C81.354 110.84 79.8967 109.37 79.2776 108.144C78.8778 107.332 78.4393 105.836 78.5683 105.72C78.6457 105.655 84.0237 103.489 84.1526 103.476C84.23 103.463 84.9909 104.172 85.855 105.036ZM96.7271 107.964C96.8818 108.957 96.985 109.847 96.9463 109.95C96.856 110.195 93.2707 111.382 91.6328 111.704C90.1755 112.001 88.2022 112.259 88.112 112.168C88.0475 112.104 89.737 107.719 89.9046 107.538C89.9562 107.474 91.4523 107.151 93.2062 106.803C94.9602 106.468 96.4046 106.184 96.4175 106.184C96.4304 106.171 96.5594 106.984 96.7271 107.964Z" fill="#142535"/>
<circle cx="105.2" cy="113" r="1.3" fill="#142535"/>
</g>
<defs>
<filter id="filter0_d_749_4278" x="-5" y="-1" width="200" height="200" filterUnits="userSpaceOnUse" color-interpolation-filters="sRGB">
<feFlood flood-opacity="0" result="BackgroundImageFix"/>
<feColorMatrix in="SourceAlpha" type="matrix" values="0 0 0 0 0 0 0 0 0 0 0 0 0 0 0 0 0 0 127 0" result="hardAlpha"/>
<feOffset dy="4"/>
<feGaussianBlur stdDeviation="10"/>
<feComposite in2="hardAlpha" operator="out"/>
<feColorMatrix type="matrix" values="0 0 0 0 0.243137 0 0 0 0 0.368627 0 0 0 0 0.368627 0 0 0 0.16 0"/>
<feBlend mode="normal" in2="BackgroundImageFix" result="effect1_dropShadow_749_4278"/>
<feBlend mode="normal" in="SourceGraphic" in2="effect1_dropShadow_749_4278" result="shape"/>
</filter>
</defs>
</svg>
