<svg width="143" height="50" viewBox="0 0 143 50" fill="none" xmlns="http://www.w3.org/2000/svg">
<mask id="mask0_757_11835" style="mask-type:alpha" maskUnits="userSpaceOnUse" x="0" y="0" width="143" height="50">
<rect width="143" height="50" fill="#D9D9D9"/>
</mask>
<g mask="url(#mask0_757_11835)">
<path d="M39.8359 47.1213C39.8359 47.1213 29 40.0521 29 25.8681C29 11.6842 38.5657 6.54955 44.3331 4.26243C55.1344 -0.0316428 76.1294 7.01075 89.7892 6.23946C103.019 5.4902 110.029 1.53613 110.029 1.53613C110.029 1.53613 116.844 10.5996 112.618 22.1848C108.392 33.77 97.4896 36.5655 91.39 37.3148C85.8808 37.9916 68.1929 36.704 60.5193 37.894C49.751 39.5578 42.2222 44.2596 39.8359 47.1213Z" fill="#AC102C"/>
<path d="M47.2593 18.5863C47.2593 18.5863 49.485 17.1697 49.485 14.3049C49.485 13.691 49.1781 9.19385 42.9432 9.19385C37.8888 9.19385 36.1274 11.7722 36.1274 15.7357V29.2633H41.7217C42.8755 29.2633 44.0513 29.3467 45.1846 29.1421C47.9629 28.6431 50.017 26.4913 50.017 23.6076C50.0233 19.3623 47.2593 18.5863 47.2593 18.5863ZM40.7741 15.0195C40.7871 13.8462 41.7486 12.9055 42.9219 12.9181C44.0952 12.9307 45.0362 13.8918 45.0241 15.0651C45.0241 16.2929 44.2984 17.8371 41.9357 17.8371H40.7678L40.7741 15.0195ZM40.7741 25.8648V20.9474C43.0392 20.9474 45.2932 20.8813 45.2932 23.4109C45.287 25.6697 43.0329 25.8554 40.7678 25.868L40.7741 25.8648ZM60.2407 15.8837C59.0349 15.8837 58.6855 14.9754 55.9419 14.9754C53.2533 14.9754 51.0732 17.9945 51.0732 21.7172C51.0732 26.4016 53.1699 28.3771 55.8584 28.3771C56.88 28.3771 58.0102 28.3346 58.7941 27.59C58.853 27.7701 58.9704 27.9253 59.1278 28.0308C59.3749 28.1976 59.7574 28.1976 60.4909 28.1976H62.4491V15.4665C62.0414 15.0573 61.8132 15.8868 60.2344 15.8868L60.2407 15.8837ZM58.4919 25.0133C58.144 25.4257 57.7284 25.6665 57.2798 25.6665C55.8065 25.6665 55.1407 23.8973 55.1407 21.714C55.1407 19.5308 55.9844 17.7615 57.2798 17.7615C57.7284 17.7615 58.144 18.0039 58.4919 18.4148V25.0133ZM81.7882 29.6725C81.168 29.5985 78.5566 29.2003 76.9085 27.59C75.0338 25.7562 71.6574 20.9474 71.6574 20.9474L77.3934 14.8463H73.8753C73.3673 14.846 72.8797 15.045 72.5169 15.4004L68.152 19.663L68.185 9.537C68.185 9.35182 68.0348 9.20172 67.8497 9.20172H67.0784C65.4356 9.20431 64.1045 10.5354 64.1019 12.1783V28.2102H68.0544L68.1567 21.8557C68.1567 21.8557 72.0572 31.1065 77.9348 31.1065C79.6789 31.1065 80.9791 30.7728 81.8338 29.7984C81.8507 29.777 81.8546 29.7481 81.8437 29.723C81.8329 29.698 81.8091 29.681 81.7819 29.6788L81.7882 29.6725ZM82.5752 14.9723C76.5339 14.9723 76.6236 21.4464 76.6236 21.4464C76.6236 26.1025 79.0556 28.5785 83.0537 28.5785C86.7323 28.5785 87.5446 26.1875 87.7413 25.4839C87.8909 24.9472 88.0294 24.3191 87.872 24.1444C87.5981 23.8296 87.1259 23.8091 86.6426 24.445C86.0634 25.2053 85.8918 26.1025 83.485 26.1025C80.4171 26.1025 80.595 22.9449 80.595 22.9449H88.3237C88.3127 20.8168 88.6071 14.9786 82.5642 14.9786L82.5752 14.9723ZM80.595 20.5933C80.595 18.0952 81.5395 17.4137 82.7295 17.4137C83.9195 17.4137 84.8639 18.1629 84.8639 20.5933H80.595ZM97.7131 15.2052C97.1984 15.0713 96.6706 14.993 96.139 14.9723C94.1399 14.8353 93.5197 16.6534 93.5197 16.6534L93.5355 14.9786C93.5363 14.8896 93.5015 14.8042 93.4388 14.7412C93.376 14.6781 93.2907 14.6428 93.2018 14.6433H92.4305C90.7834 14.6423 89.4476 15.9775 89.4476 17.6246V28.2039H93.4017L93.4725 21.1741C93.4961 18.9263 94.5948 18.4699 95.2308 18.4699C95.8667 18.4699 96.5483 19.0035 96.5483 19.0035C96.5483 19.0035 97.6501 16.8391 98.0358 15.8553C98.0824 15.7258 98.0729 15.5827 98.0095 15.4605C97.9462 15.3384 97.8348 15.248 97.7021 15.2115L97.7131 15.2052ZM102.021 18.196C102.021 17.3098 102.86 16.9698 103.474 16.9698C104.179 16.9698 104.966 16.9304 105.206 18.0149C105.313 18.5045 105.25 19.1514 105.487 19.1813C106.297 19.2868 107.614 19.2411 107.614 17.6954C107.614 16.1497 105.253 14.3568 103.037 14.3568C100.82 14.3568 98.157 15.3012 98.157 18.7642C98.157 22.7954 102.826 22.649 103.655 24.4875C103.795 24.8023 103.677 25.8743 101.996 25.8743C100.59 25.8743 98.848 24.5379 98.3191 24.1019C98.2893 24.0803 98.2502 24.0769 98.2173 24.0931C98.1842 24.1093 98.1628 24.1423 98.1617 24.179V26.9856C98.1598 27.0895 98.1962 27.1902 98.264 27.2689C99.3013 28.44 101.661 28.695 102.76 28.695C104.806 28.695 107.908 27.7254 107.908 24.1019C107.894 19.9747 102.01 19.9306 102.01 18.2038L102.021 18.196Z" fill="white"/>
<path d="M108.201 15.4984C107.633 15.4872 107.18 15.0192 107.188 14.4508C107.195 13.8824 107.66 13.4266 108.228 13.4302C108.797 13.434 109.256 13.8958 109.256 14.4642C109.263 14.7441 109.153 15.0143 108.953 15.2103C108.753 15.4063 108.481 15.5106 108.201 15.4984ZM108.201 13.6724C107.763 13.6724 107.409 14.0272 107.409 14.465C107.409 14.9027 107.763 15.2575 108.201 15.2575C108.626 15.2386 108.961 14.8887 108.961 14.4634C108.961 14.0381 108.626 13.6882 108.201 13.6693M108.026 15.0167H107.786V13.9038H108.209C108.5 13.9038 108.672 13.9857 108.672 14.2407C108.68 14.3166 108.655 14.3923 108.602 14.4478C108.55 14.5032 108.476 14.5328 108.399 14.5287L108.689 15.0167H108.403L108.141 14.5445H108.026V15.0167ZM108.242 14.3603C108.349 14.3603 108.414 14.3383 108.414 14.2155C108.414 14.0927 108.289 14.0927 108.196 14.0927H108.026V14.3603H108.242Z" fill="white"/>
</g>
</svg>
