<svg width="143" height="50" viewBox="0 0 143 50" fill="none" xmlns="http://www.w3.org/2000/svg">
<mask id="mask0_758_12013" style="mask-type:alpha" maskUnits="userSpaceOnUse" x="0" y="0" width="143" height="50">
<rect width="143" height="50" fill="#D9D9D9"/>
</mask>
<g mask="url(#mask0_758_12013)">
<path fill-rule="evenodd" clip-rule="evenodd" d="M62.0973 11.8849C61.6615 11.8849 61.4683 12.1437 61.3066 12.5139C51.1347 35.8756 50.2811 37.7224 50.2811 37.7224C56.0454 37.7224 56.0454 37.7224 56.0454 37.7224C57.245 34.7915 57.245 34.7915 57.245 34.7915C65.9297 34.7915 65.9297 34.7915 65.9297 34.7915C67.1338 37.7224 67.1338 37.7224 67.1338 37.7224C73.9134 37.7224 73.9134 37.7224 73.9134 37.7224C73.9134 37.7224 73.3338 36.5224 62.8879 12.5139C62.7262 12.1437 62.5331 11.8849 62.0973 11.8849ZM59.0781 30.3217C61.5806 24.2059 61.5806 24.2059 61.5806 24.2059C64.092 30.3217 64.092 30.3217 64.092 30.3217H59.0781ZM90.8918 25.9859C92.8731 24.8081 94.3737 22.7516 94.3737 19.803C94.3737 17.4877 93.4438 15.5785 91.8263 14.2894C90.1865 12.9779 88.2905 12.2685 84.4131 12.2685C76.1194 12.2685 76.1194 12.2685 76.1194 12.2685C76.1194 37.7224 76.1194 37.7224 76.1194 37.7224C82.2476 37.7224 82.2476 37.7224 82.2476 37.7224C82.2476 28.2474 82.2476 28.2474 82.2476 28.2474C84.148 28.2474 84.148 28.2474 84.148 28.2474C86.2148 28.2474 87.2571 29.028 88.1242 31.0935C88.8565 32.8421 89.3732 34.9164 90.0472 37.7224C96.8808 37.7224 96.8808 37.7224 96.8808 37.7224C95.9103 34.8362 95.425 33.4711 94.6973 31.437C93.6998 28.6535 92.4912 26.9404 90.8918 25.9859ZM86.9741 22.8632C86.2328 23.4297 85.2758 23.6081 83.555 23.6081C82.2476 23.6081 82.2476 23.6081 82.2476 23.6081C82.2476 23.6081 82.2341 16.8232 82.2476 16.8232C83.555 16.8232 83.555 16.8232 83.555 16.8232C85.3521 16.8232 86.2462 17.0194 86.9696 17.5636C87.7963 18.1881 88.1646 19.1249 88.1646 20.2089C88.1646 21.3911 87.7513 22.2609 86.9741 22.8632ZM36.533 23.055C26.1232 12.7147 26.1232 12.7147 26.1232 12.7147C25.8087 12.4068 25.4942 12.1883 25 12.1883C25 37.7224 25 37.7224 25 37.7224C30.351 37.7224 30.351 37.7224 30.351 37.7224C30.351 25.5129 30.351 25.5129 30.351 25.5129C36.533 31.6511 36.533 31.6511 36.533 31.6511C42.7197 25.5129 42.7197 25.5129 42.7197 25.5129C42.7197 37.7224 42.7197 37.7224 42.7197 37.7224C48.0707 37.7224 48.0707 37.7224 48.0707 37.7224C48.0707 12.1883 48.0707 12.1883 48.0707 12.1883C47.5765 12.1883 47.262 12.4068 46.9475 12.7147L36.533 23.055ZM115.962 25.0222C113.23 22.4439 108.275 22.0022 106.316 20.4856C105.547 19.8922 105.273 19.0179 105.525 18.1837C105.835 17.1488 106.873 16.4707 108.396 16.4707C110.494 16.4707 112.376 17.4209 113.679 18.9599C117.179 15.3243 117.179 15.3243 117.179 15.3243C115.117 13.1474 111.824 11.8359 108.355 11.8359C104.312 11.8359 101.261 13.7764 99.8999 16.8722C98.8441 19.2766 99.2081 21.7836 100.506 23.5859C103.018 27.0742 108.32 27.1813 110.615 28.9701C111.433 29.608 111.891 30.6384 111.402 31.7492C110.979 32.7217 109.914 33.3819 108.171 33.4265C105.754 33.4845 103.597 32.3604 102.012 30.3931C98.5071 34.0332 98.5071 34.0332 98.5071 34.0332C100.825 36.8212 104.276 38.164 108.445 38.164C112.498 38.164 116.056 36.5983 117.507 33.2614C118.779 30.3441 118.32 27.2438 115.962 25.0222Z" fill="#0000A0"/>
</g>
</svg>
