<svg width="190" height="195" viewBox="0 0 190 195" fill="none" xmlns="http://www.w3.org/2000/svg">
<mask id="mask0_749_4276" style="mask-type:alpha" maskUnits="userSpaceOnUse" x="0" y="0" width="190" height="195">
<rect width="190" height="195" fill="#D9D9D9"/>
</mask>
<g mask="url(#mask0_749_4276)">
<g filter="url(#filter0_d_749_4276)">
<circle cx="95" cy="95" r="80" fill="white"/>
</g>
<path d="M95.833 72.8449C93.8286 73.6258 92.0064 75.3699 90.9392 77.6346L90.0281 79.5088L87.7374 79.665C85.1343 79.8212 81.9064 80.6281 81.1515 81.3049C80.5528 81.8516 80.5008 82.7887 81.0995 83.3613C81.568 83.8559 82.6613 83.8039 84.9521 83.1531C85.6809 82.9448 87.1126 82.6845 88.1539 82.5804C89.7678 82.4242 90.0281 82.4503 90.0281 82.8147C90.0281 83.7518 91.1734 86.1206 92.1366 87.2399C93.5162 88.8018 94.9479 89.6347 97.3167 90.2074L99.217 90.676L99.5814 92.0816C100.597 96.0904 104.449 99.5525 108.874 100.464C110.436 100.802 110.592 101.062 110.592 103.405C110.592 104.733 111.087 105.227 112.675 105.461C113.3 105.566 114.211 105.878 114.679 106.164C115.486 106.685 116.58 108.117 116.58 108.715C116.58 108.924 113.274 109.002 104.345 109.002C96.6659 109.002 92.1105 108.897 92.1105 108.741C92.1105 108.611 92.4489 107.96 92.8654 107.31C94.9739 104.004 94.4794 99.0839 91.7461 96.0643C90.3665 94.5285 87.9977 93.3571 85.9673 93.1749C84.5876 93.0708 84.1972 93.1489 83.7807 93.5133C82.6353 94.5546 83.4423 95.8301 85.3685 96.0904C88.8046 96.5589 91.1214 99.136 91.1214 102.494C91.1214 105.019 89.7938 107.127 87.477 108.273C86.3317 108.819 85.8892 108.871 80.3706 108.95C73.3943 109.08 71.9887 108.871 70.5049 107.518C69.1253 106.294 68.8389 105.279 69.0212 102.129C69.2034 98.5633 70.5049 94.6847 72.3531 92.0296C73.0039 91.1185 73.0039 89.843 72.3531 89.4786C70.9474 88.7497 70.0884 89.4525 68.5005 92.6803C67.199 95.2834 66.4701 97.5741 66.0797 100.333L65.7673 102.416L63.8931 102.572C58.9472 102.989 51.7627 106.32 51.7627 108.195C51.7627 108.871 52.6217 109.783 53.2725 109.783C53.5068 109.783 54.2617 109.392 54.9385 108.924C57.3333 107.205 61.4201 105.774 64.4918 105.592L65.8714 105.487L66.392 106.867C67.0949 108.741 68.9431 110.589 70.8433 111.292C72.3531 111.865 72.4312 111.865 95.7288 111.865C118.037 111.865 119.131 111.839 119.521 111.396C120.12 110.746 120.068 109.314 119.417 107.518C118.688 105.566 116.658 103.509 114.783 102.832C113.742 102.468 113.456 102.26 113.456 101.817C113.456 101.244 113.534 101.244 119.391 101.114C125.977 100.984 126.81 100.828 128.319 99.3702C130.923 96.8713 129.933 91.2226 125.925 85.8082C124.285 83.5696 120.484 79.9773 118.584 78.832C115.226 76.8537 111.582 76.0207 108.848 76.6714C107.807 76.9057 107.729 76.8797 106.896 76.0207C103.903 72.871 99.269 71.5174 95.833 72.8449ZM101.95 76.2029C103.903 77.14 106.115 79.2225 107.052 81.0967C107.417 81.8255 107.729 82.4763 107.729 82.5544C107.729 82.6064 107.078 82.268 106.271 81.7995C104.683 80.8364 103.096 80.4719 101.456 80.7062C100.154 80.8884 99.6595 81.2789 99.6595 82.216C99.6595 83.3613 100.258 83.7518 102.028 83.7518C103.798 83.7518 104.762 84.1683 105.751 85.3136C107.208 87.0837 106.428 87.5263 101.872 87.5263C97.8894 87.5263 96.4056 87.1358 94.8698 85.626C93.5943 84.4026 93.0737 83.2052 93.0997 81.4611C93.1257 79.0402 94.7397 76.5413 96.8482 75.6823C98.1237 75.1877 100.232 75.3959 101.95 76.2029ZM115.616 80.7062C120.771 83.2832 126.367 90.3376 126.68 94.6847C126.81 96.585 126.367 97.4179 124.988 97.7824C124.415 97.9385 121.395 98.0687 118.011 98.0687C109.89 98.0687 107.547 97.5221 104.918 95.1012C103.824 94.112 102.523 91.9775 102.523 91.2226C102.523 90.9883 103.174 90.7801 104.527 90.5719C106.792 90.2074 108.406 89.3744 109.395 88.0989C111.165 85.7822 111.321 83.3093 109.942 80.0034C109.733 79.5348 109.838 79.5088 111.712 79.6389C113.326 79.7431 114.081 79.9513 115.616 80.7062Z" fill="#142535"/>
<ellipse cx="114.509" cy="88.816" rx="1.43684" ry="1.43684" fill="#142535"/>
<ellipse cx="76.022" cy="85.7369" rx="1.43684" ry="1.43684" fill="#142535"/>
</g>
<defs>
<filter id="filter0_d_749_4276" x="-5" y="-1" width="200" height="200" filterUnits="userSpaceOnUse" color-interpolation-filters="sRGB">
<feFlood flood-opacity="0" result="BackgroundImageFix"/>
<feColorMatrix in="SourceAlpha" type="matrix" values="0 0 0 0 0 0 0 0 0 0 0 0 0 0 0 0 0 0 127 0" result="hardAlpha"/>
<feOffset dy="4"/>
<feGaussianBlur stdDeviation="10"/>
<feComposite in2="hardAlpha" operator="out"/>
<feColorMatrix type="matrix" values="0 0 0 0 0.142083 0 0 0 0 0.183333 0 0 0 0 0.183333 0 0 0 0.16 0"/>
<feBlend mode="normal" in2="BackgroundImageFix" result="effect1_dropShadow_749_4276"/>
<feBlend mode="normal" in="SourceGraphic" in2="effect1_dropShadow_749_4276" result="shape"/>
</filter>
</defs>
</svg>
