<svg width="143" height="50" viewBox="0 0 143 50" fill="none" xmlns="http://www.w3.org/2000/svg">
<mask id="mask0_758_12009" style="mask-type:alpha" maskUnits="userSpaceOnUse" x="0" y="0" width="143" height="50">
<rect width="143" height="50" fill="#D9D9D9"/>
</mask>
<g mask="url(#mask0_758_12009)">
<path fill-rule="evenodd" clip-rule="evenodd" d="M42.7306 2.0762C41.0853 2.5285 39.7433 3.64007 39.0391 5.13403C38.5604 6.14974 38.377 6.84164 38.2463 8.12529C38.1943 8.63582 38.1319 9.073 38.1076 9.09682C38.0833 9.12051 37.5543 9.2265 36.9321 9.33225C34.1497 9.80527 31.725 11.0592 29.6618 13.0918C27.4886 15.2327 26.2058 17.7441 25.6651 20.9153C25.2835 23.1538 25.5779 26.1844 26.3975 28.4541C28.001 32.8953 31.8161 36.1072 36.6343 37.0724C39.6267 37.6719 43.3204 37.4604 45.9659 36.5381C48.2175 35.7531 48.3838 35.7769 49.7818 37.0842C51.0487 38.2689 51.5146 38.4991 52.6738 38.5132L53.5888 38.5242L54.3284 39.5639C56.3516 42.4083 59.4836 44.4055 63.072 45.1396C64.1482 45.3598 66.9307 45.325 68.0737 45.077C70.2459 44.6057 72.3296 43.6586 74.1189 42.3291C74.6929 41.9028 75.1978 41.5538 75.241 41.5538C75.2843 41.5538 75.6231 41.8177 75.994 42.1404C79.0289 44.7801 82.1906 46.0792 85.5797 46.0792C89.5908 46.0792 93.1372 44.31 95.7845 40.9882C96.3578 40.2689 96.3961 40.2439 96.926 40.2439C97.3571 40.2439 97.6469 40.1395 98.2826 39.7555C99.1998 39.2013 99.8753 39.0104 100.507 39.1266C100.746 39.1707 101.54 39.4399 102.272 39.7249C104.484 40.5871 105.618 40.8529 107.373 40.9212C108.623 40.97 109.139 40.9365 110.053 40.7473C113.499 40.034 115.879 38.149 116.906 35.3202C117.212 34.4779 117.438 33.0699 117.432 32.048C117.422 30.516 116.823 28.4535 115.999 27.1126C115.587 26.444 115.582 26.3584 115.884 25.3951C116.423 23.6744 116.277 21.762 115.476 20.0603C115.009 19.0678 114.7 18.6436 113.712 17.6337C111.159 15.0256 107.101 13.8895 104.07 14.9338C103.796 15.0284 103.558 15.0921 103.541 15.0754C103.524 15.0587 103.458 14.1902 103.393 13.1455C103.259 10.9648 103.133 10.1821 102.715 8.9008C101.962 6.59382 100.301 5.09354 97.9105 4.56062C95.6042 4.0464 93.1992 5.19941 92.1967 7.30001C91.4735 8.81529 91.4439 9.08765 91.3874 14.7292C91.3591 17.5621 91.3126 19.8798 91.2843 19.8798C91.2559 19.8798 90.9523 19.7235 90.6094 19.5325C88.5981 18.4121 85.3527 17.7882 83.0734 18.0838C80.1335 18.465 78.0532 19.4698 75.9833 21.5081L74.9613 22.5145L74.3594 21.6896C72.5268 19.1778 68.7307 17.4024 64.6797 17.1623L63.3102 17.0812L63.2257 16.2354C63.0534 14.5079 62.2966 13.2819 61.0134 12.6518C60.3656 12.3338 60.2529 12.3178 58.6657 12.319C57.4536 12.3201 56.5646 12.3965 55.4094 12.5994C53.5387 12.9279 52.2185 12.9182 51.8373 12.5732C51.559 12.3214 51.5079 12.0494 51.3322 9.88554C51.1713 7.9045 50.8977 6.80972 50.2545 5.57335C49.005 3.17158 46.9526 1.88376 44.4137 1.90805C43.803 1.91401 43.0456 1.98963 42.7306 2.0762ZM44.3921 5.22835C43.9302 5.37614 43.6039 5.68625 43.3857 6.18463C43.1896 6.63264 43.1598 9.3862 43.3172 12.5261C43.3824 13.8249 43.3677 14.0445 43.2162 14.0445C43.1188 14.0445 42.6333 13.857 42.1374 13.6279C40.8727 13.0435 39.8373 12.8225 38.3611 12.8215C34.5945 12.8193 31.8977 14.8778 30.6744 18.6889C30.2388 20.0463 30.1263 22.6452 30.4367 24.1778C31.2645 28.263 34.301 31.7013 37.9443 32.6786C41.0217 33.5041 44.4798 32.5236 46.3328 30.3C46.9754 29.5289 47.8203 27.8155 48.1534 26.6083C48.3998 25.7151 48.4145 25.4435 48.388 22.2615C48.3724 20.3948 48.2882 16.322 48.2009 13.2108C48.0275 7.03849 48.0391 7.12698 47.2808 6.16963C47.076 5.91097 46.6933 5.58955 46.4303 5.45545C45.886 5.17774 44.8953 5.06734 44.3921 5.22835ZM96.9848 8.02847C96.52 8.23045 96.1523 8.79957 96.0513 9.47301C96.0102 9.74668 96.0625 12.9905 96.1675 16.6817C96.2724 20.3728 96.4138 25.4025 96.4814 27.8587C96.5492 30.3149 96.6548 32.5129 96.7161 32.7431C96.8917 33.4018 97.4894 34.2472 98.0347 34.6081C98.4262 34.8672 98.7072 34.9484 99.3362 34.9839C100.457 35.0472 100.896 34.8243 101.246 34.0132L101.513 33.3963L101.312 26.1319C101.202 22.1365 101.059 16.9412 100.995 14.5867C100.884 10.4882 100.867 10.2801 100.602 9.70405C100.223 8.8796 99.7912 8.40122 99.1578 8.1035C98.5335 7.81007 97.564 7.7766 96.9848 8.02847ZM55.748 15.0381C53.3034 15.7671 51.6009 17.3736 50.6444 19.8541C49.9402 21.6798 49.8627 22.5181 49.9873 26.9522C50.1115 31.3755 50.1421 31.5336 51.0462 32.4378C51.6238 33.0153 52.1916 33.2515 53.009 33.2541C53.9172 33.257 54.3971 32.9832 54.7052 32.2868C54.943 31.7492 54.9488 31.6026 54.8726 28.036C54.7698 23.222 54.8427 22.9138 56.4439 21.3929C57.3201 20.5607 57.9095 20.2898 59.0602 20.1902C60.3234 20.0809 60.7074 19.8867 61.0092 19.2042C61.3138 18.516 61.335 17.2946 61.0539 16.632C60.8011 16.0357 60.0992 15.2727 59.542 14.9886C58.8805 14.6511 56.9618 14.6761 55.748 15.0381ZM106.301 17.9613C104.369 18.5238 103.548 19.4751 103.247 21.4997C103.002 23.1523 103.539 24.7639 104.745 25.9894C105.548 26.8046 106.064 27.1608 107.785 28.0842C109.336 28.9166 109.634 29.157 109.822 29.7284C110.013 30.3069 109.884 30.6541 109.253 31.2582C108.771 31.7202 108.633 31.7886 108.18 31.7886C107.6 31.7886 107.151 31.586 105.972 30.7927C104.218 29.6127 103.383 29.8477 103.383 31.5211C103.383 32.8522 104.203 33.9173 105.878 34.7626C106.901 35.2788 107.739 35.4868 109.1 35.5622C110.711 35.6515 111.844 35.4615 112.924 34.9212C114.305 34.2304 114.733 33.3402 114.743 31.1336C114.748 29.9381 114.708 29.6013 114.494 29.073C113.955 27.7403 113.102 26.9437 111.026 25.8341C108.872 24.6826 108.385 24.2007 108.385 23.2219C108.385 22.7824 108.452 22.6574 108.936 22.1939C109.697 21.4644 110.038 21.4758 111.028 22.2643C111.441 22.5933 111.994 22.9673 112.256 23.0953C112.741 23.3324 113.565 23.4057 113.833 23.2356C114.101 23.0654 114.268 21.8622 114.111 21.2374C113.728 19.7184 112.001 18.277 110.076 17.8697C109.124 17.6683 107.142 17.7164 106.301 17.9613ZM38.4554 18.3745C37.371 18.6762 36.0858 19.847 35.5244 21.0447C35.2448 21.6413 35.2053 21.8734 35.2053 22.9194C35.2053 24.0281 35.2331 24.1696 35.5965 24.9074C36.6072 26.9596 38.6842 27.9615 40.5066 27.2759C41.3062 26.9752 42.7154 25.6675 43.1031 24.8664C43.7278 23.5758 43.708 22.0761 43.0481 20.7276C42.1815 18.9561 40.1345 17.9074 38.4554 18.3745ZM63.3102 21.1281C60.8859 21.6627 59.1568 22.9492 58.0612 25.0336C57.1226 26.8196 56.7436 28.5989 56.8539 30.7034C57.2108 37.5179 63.2464 42.4438 69.2565 40.8255C69.518 40.755 70.1627 40.4813 70.6892 40.2173C72.5333 39.2924 74.0067 37.3559 74.7073 34.9363C74.9439 34.1192 74.9806 33.7266 74.9788 32.0268C74.9765 29.9007 74.8894 29.4129 74.1829 27.5786C73.2149 25.0649 70.82 22.5923 68.4018 21.6095C66.8759 20.9896 64.8198 20.7952 63.3102 21.1281ZM82.8613 22.1378C80.4643 22.784 78.5997 24.506 77.5898 27.0063C76.9852 28.503 76.8861 29.1035 76.8886 31.2527C76.8908 33.0072 76.9277 33.4043 77.1656 34.2299C78.1312 37.5802 80.4931 40.3482 83.3817 41.5149C84.6098 42.011 85.6672 42.1795 87.1278 42.1119C88.5575 42.0457 89.4815 41.7994 90.676 41.1663C92.4114 40.2464 93.7636 38.3897 94.5307 35.873C94.818 34.931 94.851 34.6333 94.8584 32.9199C94.8654 31.2858 94.8275 30.8712 94.5926 30.0079C93.9822 27.7656 93.1509 26.3219 91.5341 24.6965C90.5489 23.7062 90.1578 23.4044 89.2701 22.9492C87.7663 22.1779 86.6308 21.9025 84.9916 21.9114C84.1065 21.9163 83.4075 21.9905 82.8613 22.1378ZM64.8819 26.5943C63.8355 26.9843 62.5926 28.1608 62.1076 29.2203C61.5076 30.5308 61.6403 32.2048 62.4512 33.5586C63.5332 35.3649 65.6174 36.13 67.2996 35.3383C68.1865 34.921 69.3105 33.8105 69.7476 32.9199C70.0638 32.2756 70.0974 32.0944 70.0899 31.0741C70.0834 30.1951 70.0214 29.7891 69.8118 29.2538C69.4602 28.3559 68.4492 27.258 67.5841 26.8348C66.791 26.4467 65.5694 26.3381 64.8819 26.5943ZM84.857 27.5912C83.8889 27.938 82.5911 29.0848 82.1245 30.0057C80.6856 32.845 82.7481 36.5885 85.7583 36.6013C86.7456 36.6055 87.4447 36.2971 88.4514 35.4133C88.9973 34.9341 89.3103 34.5355 89.5945 33.9576C89.958 33.2186 89.986 33.0767 89.986 31.969C89.986 30.8791 89.9538 30.7084 89.6123 29.9876C89.1296 28.969 88.5562 28.344 87.6716 27.8725C86.7497 27.3812 85.7283 27.2791 84.857 27.5912Z" fill="#323886"/>
<path fill-rule="evenodd" clip-rule="evenodd" d="M44.1139 5.28744C43.8752 5.39128 43.6315 5.64423 43.4589 5.96755C43.1857 6.47939 43.1844 6.50297 43.2271 10.2633C43.2507 12.3429 43.2356 14.0444 43.1938 14.0444C43.152 14.0444 42.8005 13.8842 42.4126 13.6883C41.149 13.0504 40.029 12.8046 38.3611 12.7989C37.032 12.7945 36.7596 12.831 35.818 13.1395C33.7867 13.8053 32.3109 15.0798 31.3442 17.0033C29.3908 20.8901 29.9411 25.696 32.7384 29.1775C33.7516 30.4384 34.7976 31.293 36.158 31.9711C38.8247 33.3004 41.5778 33.3375 44.1402 32.0784C46.0226 31.1535 47.3059 29.4846 48.0896 26.9424C48.4078 25.91 48.4129 25.8417 48.4185 22.5592C48.4277 17.1336 48.1441 8.01563 47.9443 7.30551C47.7355 6.56395 46.9592 5.64268 46.2851 5.33638C45.7116 5.07594 44.6551 5.05212 44.1139 5.28744ZM97.1313 7.91202C96.5569 8.11578 96.2861 8.42506 96.1054 9.08373C95.9377 9.69537 95.9971 12.8119 96.4781 28.6393C96.6067 32.8704 96.6606 33.1909 97.3887 34.0414C97.9903 34.7442 98.6379 35.0526 99.513 35.0531C100.476 35.0535 100.95 34.7899 101.275 34.0725C101.561 33.4385 101.565 33.1184 101.357 25.8341C101.294 23.6399 101.19 19.5403 101.125 16.7238C100.983 10.5923 100.958 10.2556 100.586 9.52091C100.209 8.77625 99.3572 8.0348 98.6853 7.8657C98.0086 7.69528 97.7181 7.70398 97.1313 7.91202ZM56.6249 14.7698C53.2461 15.3346 50.8739 17.8374 50.0886 21.666C49.9063 22.5544 49.8892 23.159 49.9494 26.6082C50.0261 31.0085 50.0847 31.39 50.816 32.2444C51.4452 32.9795 52.065 33.2673 53.0301 33.2727C53.9654 33.2779 54.3635 33.0542 54.7314 32.3167C54.9501 31.8783 54.9655 31.5787 54.9696 27.68L54.974 23.5119L55.2654 22.9164C55.6191 22.1936 56.9401 20.8441 57.5939 20.5376C57.8559 20.4149 58.499 20.2772 59.023 20.2316C59.547 20.1861 60.116 20.0923 60.2876 20.0232C61.3479 19.5958 61.666 17.6901 60.9106 16.2899C60.5315 15.5869 59.78 14.9506 59.1093 14.7644C58.5939 14.6212 57.4999 14.6236 56.6249 14.7698ZM106.756 17.7878C105.156 18.1534 104.314 18.6992 103.776 19.7197C102.712 21.7378 103.019 24.1457 104.559 25.8581C105.24 26.6153 106.252 27.3226 107.742 28.0825C109.055 28.752 109.748 29.3443 109.857 29.8894C109.953 30.3664 109.804 30.6931 109.245 31.2321C108.419 32.0299 107.687 31.9449 106.227 30.8813C105.12 30.0753 104.088 29.7914 103.694 30.1849C103.499 30.3799 103.266 31.0931 103.265 31.4989C103.262 32.7166 104.327 34.0514 105.909 34.8124C107.074 35.3727 108.134 35.5947 109.66 35.5973C111.08 35.5997 111.864 35.4552 112.857 35.0077C113.745 34.6078 114.25 34.0233 114.589 33.0053C114.803 32.3633 114.833 32.0393 114.794 30.8577C114.752 29.6226 114.708 29.386 114.403 28.7518C113.859 27.6222 112.878 26.743 111.143 25.8318C110.335 25.4074 109.472 24.8876 109.224 24.6769C108.652 24.1906 108.337 23.5458 108.434 23.0605C108.534 22.5601 109.426 21.668 109.827 21.667C110.132 21.666 110.727 22.0097 111.408 22.5805C112.006 23.0817 112.628 23.3332 113.269 23.3332C113.848 23.3332 113.883 23.3148 114.048 22.9202C114.841 21.0229 113.106 18.6422 110.394 17.9056C109.44 17.6464 107.631 17.5878 106.756 17.7878ZM37.9443 18.6171C37.1403 18.9995 35.9521 20.2385 35.5562 21.1074C33.9813 24.5633 37.557 28.6776 40.7694 27.1058C41.6994 26.6509 42.8979 25.3611 43.241 24.4461C43.6145 23.4501 43.5529 21.8917 43.1019 20.9255C42.1094 18.7992 39.7664 17.7504 37.9443 18.6171ZM64.0616 20.9566C60.372 21.3869 57.8368 23.8731 56.9919 27.89C56.7636 28.9749 56.7717 31.2081 57.008 32.3519C57.8661 36.5065 60.7693 39.7936 64.525 40.863C65.8666 41.2451 67.9594 41.2419 69.205 40.8559C71.2018 40.2372 72.4814 39.3104 73.4641 37.771C75.149 35.1316 75.5567 32.1156 74.6733 28.8262C73.8018 25.5811 71.1725 22.5861 68.2413 21.4996C67.5035 21.2261 65.3662 20.7999 64.9774 20.8487C64.9119 20.8569 64.4998 20.9055 64.0616 20.9566ZM83.4361 21.953C80.9382 22.4402 79.2704 23.6998 77.9823 26.0723C75.7518 30.1805 76.683 36.0084 80.1067 39.3682C82.0328 41.2582 84.1429 42.1492 86.6927 42.1492C90.1102 42.1492 92.5261 40.6035 93.9527 37.5045C95.2812 34.6183 95.3438 31.4984 94.1336 28.4734C92.8857 25.3539 90.3456 22.9604 87.4224 22.1491C86.2653 21.828 84.518 21.7421 83.4361 21.953ZM65.2156 26.5348C64.4981 26.7232 63.8758 27.1431 63.1082 27.9568C62.054 29.0742 61.7864 29.7713 61.8413 31.2557C61.8756 32.1835 61.9344 32.439 62.271 33.1221C63.3034 35.2174 65.5587 36.1527 67.382 35.2416C68.2638 34.801 69.3465 33.6958 69.7414 32.8331C70.9685 30.1529 69.0821 26.7535 66.2267 26.4992C65.8671 26.4672 65.4121 26.4832 65.2156 26.5348ZM85.2484 27.5087C84.1038 27.787 82.7336 28.9306 82.1681 30.0794C81.292 31.859 81.7189 34.1042 83.1914 35.4614C83.9711 36.1801 84.6103 36.4618 85.6107 36.527C86.3972 36.5785 86.5424 36.5504 87.2184 36.2162C88.1548 35.7534 89.2205 34.7176 89.6376 33.8648C90.7086 31.676 89.5584 28.6533 87.2949 27.7077C86.7144 27.4651 85.7951 27.3758 85.2484 27.5087Z" fill="white"/>
<g filter="url(#filter0_d_758_12009)">
<path fill-rule="evenodd" clip-rule="evenodd" d="M44.1139 5.28744C43.8752 5.39128 43.6315 5.64423 43.4589 5.96755C43.1857 6.47939 43.1844 6.50297 43.2271 10.2633C43.2507 12.3429 43.2356 14.0444 43.1938 14.0444C43.152 14.0444 42.8005 13.8842 42.4126 13.6883C41.149 13.0504 40.029 12.8046 38.3611 12.7989C37.032 12.7945 36.7596 12.831 35.818 13.1395C33.7867 13.8053 32.3109 15.0798 31.3442 17.0033C29.3908 20.8901 29.9411 25.696 32.7384 29.1775C33.7516 30.4384 34.7976 31.293 36.158 31.9711C38.8247 33.3004 41.5778 33.3375 44.1402 32.0784C46.0226 31.1535 47.3059 29.4846 48.0896 26.9424C48.4078 25.91 48.4129 25.8417 48.4185 22.5592C48.4277 17.1336 48.1441 8.01563 47.9443 7.30551C47.7355 6.56395 46.9592 5.64268 46.2851 5.33638C45.7116 5.07594 44.6551 5.05212 44.1139 5.28744ZM97.1313 7.91202C96.5569 8.11578 96.2861 8.42506 96.1054 9.08373C95.9377 9.69537 95.9971 12.8119 96.4781 28.6393C96.6067 32.8704 96.6606 33.1909 97.3887 34.0414C97.9903 34.7442 98.6379 35.0526 99.513 35.0531C100.476 35.0535 100.95 34.7899 101.275 34.0725C101.561 33.4385 101.565 33.1184 101.357 25.8341C101.294 23.6399 101.19 19.5403 101.125 16.7238C100.983 10.5923 100.958 10.2556 100.586 9.52091C100.209 8.77625 99.3572 8.0348 98.6853 7.8657C98.0086 7.69528 97.7181 7.70398 97.1313 7.91202ZM56.6249 14.7698C53.2461 15.3346 50.8739 17.8374 50.0886 21.666C49.9063 22.5544 49.8892 23.159 49.9494 26.6082C50.0261 31.0085 50.0847 31.39 50.816 32.2444C51.4452 32.9795 52.065 33.2673 53.0301 33.2727C53.9654 33.2779 54.3635 33.0542 54.7314 32.3167C54.9501 31.8783 54.9655 31.5787 54.9696 27.68L54.974 23.5119L55.2654 22.9164C55.6191 22.1936 56.9401 20.8441 57.5939 20.5376C57.8559 20.4149 58.499 20.2772 59.023 20.2316C59.547 20.1861 60.116 20.0923 60.2876 20.0232C61.3479 19.5958 61.666 17.6901 60.9106 16.2899C60.5315 15.5869 59.78 14.9506 59.1093 14.7644C58.5939 14.6212 57.4999 14.6236 56.6249 14.7698ZM106.756 17.7878C105.156 18.1534 104.314 18.6992 103.776 19.7197C102.712 21.7378 103.019 24.1457 104.559 25.8581C105.24 26.6153 106.252 27.3226 107.742 28.0825C109.055 28.752 109.748 29.3443 109.857 29.8894C109.953 30.3664 109.804 30.6931 109.245 31.2321C108.419 32.0299 107.687 31.9449 106.227 30.8813C105.12 30.0753 104.088 29.7914 103.694 30.1849C103.499 30.3799 103.266 31.0931 103.265 31.4989C103.262 32.7166 104.327 34.0514 105.909 34.8124C107.074 35.3727 108.134 35.5947 109.66 35.5973C111.08 35.5997 111.864 35.4552 112.857 35.0077C113.745 34.6078 114.25 34.0233 114.589 33.0053C114.803 32.3633 114.833 32.0393 114.794 30.8577C114.752 29.6226 114.708 29.386 114.403 28.7518C113.859 27.6222 112.878 26.743 111.143 25.8318C110.335 25.4074 109.472 24.8876 109.224 24.6769C108.652 24.1906 108.337 23.5458 108.434 23.0605C108.534 22.5601 109.426 21.668 109.827 21.667C110.132 21.666 110.727 22.0097 111.408 22.5805C112.006 23.0817 112.628 23.3332 113.269 23.3332C113.848 23.3332 113.883 23.3148 114.048 22.9202C114.841 21.0229 113.106 18.6422 110.394 17.9056C109.44 17.6464 107.631 17.5878 106.756 17.7878ZM37.9443 18.6171C37.1403 18.9995 35.9521 20.2385 35.5562 21.1074C33.9813 24.5633 37.557 28.6776 40.7694 27.1058C41.6994 26.6509 42.8979 25.3611 43.241 24.4461C43.6145 23.4501 43.5529 21.8917 43.1019 20.9255C42.1094 18.7992 39.7664 17.7504 37.9443 18.6171ZM64.0616 20.9566C60.372 21.3869 57.8368 23.8731 56.9919 27.89C56.7636 28.9749 56.7717 31.2081 57.008 32.3519C57.8661 36.5065 60.7693 39.7936 64.525 40.863C65.8666 41.2451 67.9594 41.2419 69.205 40.8559C71.2018 40.2372 72.4814 39.3104 73.4641 37.771C75.149 35.1316 75.5567 32.1156 74.6733 28.8262C73.8018 25.5811 71.1725 22.5861 68.2413 21.4996C67.5035 21.2261 65.3662 20.7999 64.9774 20.8487C64.9119 20.8569 64.4998 20.9055 64.0616 20.9566ZM83.4361 21.953C80.9382 22.4402 79.2704 23.6998 77.9823 26.0723C75.7518 30.1805 76.683 36.0084 80.1067 39.3682C82.0328 41.2582 84.1429 42.1492 86.6927 42.1492C90.1102 42.1492 92.5261 40.6035 93.9527 37.5045C95.2812 34.6183 95.3438 31.4984 94.1336 28.4734C92.8857 25.3539 90.3456 22.9604 87.4224 22.1491C86.2653 21.828 84.518 21.7421 83.4361 21.953ZM65.2156 26.5348C64.4981 26.7232 63.8758 27.1431 63.1082 27.9568C62.054 29.0742 61.7864 29.7713 61.8413 31.2557C61.8756 32.1835 61.9344 32.439 62.271 33.1221C63.3034 35.2174 65.5587 36.1527 67.382 35.2416C68.2638 34.801 69.3465 33.6958 69.7414 32.8331C70.9685 30.1529 69.0821 26.7535 66.2267 26.4992C65.8671 26.4672 65.4121 26.4832 65.2156 26.5348ZM85.2484 27.5087C84.1038 27.787 82.7336 28.9306 82.1681 30.0794C81.292 31.859 81.7189 34.1042 83.1914 35.4614C83.9711 36.1801 84.6103 36.4618 85.6107 36.527C86.3972 36.5785 86.5424 36.5504 87.2184 36.2162C88.1548 35.7534 89.2205 34.7176 89.6376 33.8648C90.7086 31.676 89.5584 28.6533 87.2949 27.7077C86.7144 27.4651 85.7951 27.3758 85.2484 27.5087Z" fill="white"/>
</g>
<path d="M118.497 16.0688C119.587 16.0688 120.5 16.9315 120.5 18.0663C120.5 19.2193 119.587 20.0823 118.497 20.0823C117.404 20.0823 116.483 19.2188 116.483 18.0663C116.483 16.9315 117.404 16.0688 118.497 16.0688ZM118.497 19.7894C119.42 19.7894 120.137 19.048 120.137 18.067C120.137 17.1032 119.42 16.3627 118.497 16.3627C117.563 16.3627 116.847 17.1032 116.847 18.067C116.847 19.0477 117.563 19.7894 118.497 19.7894ZM117.716 16.9008H118.621C119.175 16.9008 119.436 17.1213 119.436 17.5708C119.436 17.9948 119.172 18.1721 118.825 18.2089L119.491 19.2463H119.1L118.465 18.2371H118.081V19.2463H117.717L117.716 16.9008ZM118.081 17.9428H118.46C118.78 17.9428 119.074 17.9269 119.074 17.5551C119.074 17.2432 118.807 17.1942 118.562 17.1942H118.081L118.081 17.9428Z" fill="#323886"/>
</g>
<defs>
<filter id="filter0_d_758_12009" x="29.8282" y="5.125" width="84.9803" height="37.6199" filterUnits="userSpaceOnUse" color-interpolation-filters="sRGB">
<feFlood flood-opacity="0" result="BackgroundImageFix"/>
<feColorMatrix in="SourceAlpha" type="matrix" values="0 0 0 0 0 0 0 0 0 0 0 0 0 0 0 0 0 0 127 0" result="hardAlpha"/>
<feOffset dx="-0.357265" dy="0.595442"/>
<feComposite in2="hardAlpha" operator="out"/>
<feColorMatrix type="matrix" values="0 0 0 0 0.00784314 0 0 0 0 0.423529 0 0 0 0 0.705882 0 0 0 1 0"/>
<feBlend mode="normal" in2="BackgroundImageFix" result="effect1_dropShadow_758_12009"/>
<feBlend mode="normal" in="SourceGraphic" in2="effect1_dropShadow_758_12009" result="shape"/>
</filter>
</defs>
</svg>
