<svg width="190" height="195" viewBox="0 0 190 195" fill="none" xmlns="http://www.w3.org/2000/svg">
<mask id="mask0_749_4261" style="mask-type:alpha" maskUnits="userSpaceOnUse" x="0" y="0" width="190" height="195">
<rect width="190" height="195" fill="#D9D9D9"/>
</mask>
<g mask="url(#mask0_749_4261)">
<g filter="url(#filter0_d_749_4261)">
<circle cx="95" cy="95" r="80" fill="white"/>
</g>
<path d="M102.069 63.5794C102.266 63.7622 103.025 64.9718 103.757 66.2939C105.008 68.5443 105.121 68.685 105.487 68.6569C105.698 68.6428 106.331 68.5865 106.893 68.5303C108.848 68.3474 110.62 68.9522 112.35 70.415C112.885 70.8651 114.334 71.7934 115.557 72.4825C116.781 73.1577 117.906 73.875 118.047 74.0719C118.398 74.5079 118.398 74.7892 118.033 77.0115C117.54 80.0777 117.076 80.7387 114.207 82.3843C113.222 82.961 112.421 83.4392 112.421 83.4673C112.421 83.4955 112.927 84.2972 113.56 85.2395C116.373 89.5012 117.765 93.9177 117.765 98.6013V99.9797H121.211C123.223 99.9797 124.953 100.05 125.389 100.134C126.936 100.472 128.455 101.569 129.271 102.947C130.002 104.171 130.241 106.689 129.721 107.715C129.566 108.011 129.243 108.405 128.989 108.587L128.525 108.911L121.957 108.953L115.403 108.995L115.248 109.656C114.924 111.035 114.812 112.371 114.812 114.903C114.812 117.688 114.812 117.702 115.487 117.702C115.937 117.702 117.47 118.531 118.103 119.122C119.355 120.261 120.114 122.484 119.735 123.876C119.538 124.636 118.75 125.508 117.99 125.789C117.484 125.986 116.781 126.014 113.054 125.972L108.693 125.93L107.948 125.508C107.118 125.058 106.668 124.579 106.19 123.693C105.895 123.131 105.88 122.962 105.838 117.884C105.81 115.001 105.768 112.638 105.726 112.638C105.698 112.638 105.205 113.032 104.643 113.496C102.336 115.465 98.7917 117.505 95.7255 118.63L94.2909 119.15L94.9238 119.797C96.1194 121.007 96.8085 122.638 96.8085 124.284C96.8085 125.086 96.7663 125.226 96.4007 125.592L95.9928 126H87.9757C81.5621 126 79.7336 125.958 78.7912 125.789C73.0949 124.804 68.6222 120.712 67.0329 115.1C66.7375 114.045 66.6672 113.454 66.625 111.583L66.5687 109.347L65.2466 107.997C61.0552 103.693 58.7626 98.9811 58.1438 93.341C57.7359 89.6981 58.186 86.7867 59.6206 83.819C60.4504 82.0749 61.2662 80.9497 62.9259 79.2197C64.4168 77.6866 64.7122 77.0959 64.5293 75.9988C64.3746 75.0002 63.8542 74.311 62.7852 73.6921C62.2508 73.3827 61.6178 72.8904 61.3647 72.5951C59.4518 70.4291 60.0988 67.1238 62.6868 65.8017C63.5166 65.3797 63.7698 65.3234 64.6418 65.3234C65.4857 65.3234 65.8092 65.3938 66.5969 65.7595C69.7756 67.2504 72.1385 70.1196 73.0527 73.6077C73.4465 75.169 73.4465 77.6725 73.0527 79.2338C72.7151 80.4996 72.0119 82.0749 71.3227 83.0595C71.0695 83.4392 70.2256 84.3956 69.438 85.2255C67.2439 87.504 66.7516 88.7136 66.8922 91.611C67.0469 94.9163 68.2987 98.1372 70.3522 100.542L70.7601 101.035L71.379 100.458C72.8558 99.0655 73.6997 98.5732 78.088 96.6181C81.5621 95.0569 82.0684 94.9303 82.6732 95.5351C83.1795 96.0415 83.2639 96.5619 82.9404 97.1526C82.7013 97.6027 82.3778 97.7855 79.171 99.2202C75.1343 101.035 73.9529 101.752 72.5886 103.215C71.3649 104.523 70.5351 105.915 69.9443 107.687C69.5505 108.827 69.4661 109.319 69.4099 110.754C69.2692 114.41 70.4788 117.434 73.0808 119.91C74.8108 121.555 77.0472 122.667 79.3679 123.032C79.9164 123.131 83.0389 123.187 87.0755 123.187H93.8549L93.5877 122.667C93.236 121.977 92.4062 121.204 91.6045 120.782C91.0278 120.472 90.7606 120.444 88.2007 120.374L85.4159 120.304L85.0361 119.91C84.7407 119.629 84.6423 119.389 84.6423 118.967C84.6423 118.461 84.7407 118.32 85.655 117.42C86.8646 116.239 87.4694 115.1 87.7085 113.623C88.0038 111.724 87.3709 109.699 86.0488 108.292C85.2612 107.448 85.0783 106.984 85.2752 106.365C85.4862 105.746 85.9081 105.465 86.6255 105.465C87.1459 105.465 87.2865 105.549 87.9616 106.225C90.6621 108.953 91.3794 113.271 89.6776 116.619C89.4947 116.998 89.3541 117.322 89.3822 117.35C89.4525 117.42 91.8295 116.872 93.1938 116.492C97.4415 115.268 101.492 112.849 104.741 109.6L105.81 108.531V107.294V106.042L105.065 105.465C103.897 104.593 103.686 103.834 104.39 103.046C105.037 102.314 105.627 102.399 107.006 103.397C108.187 104.27 109.594 105.001 110.958 105.465C112.772 106.098 113.771 106.168 120.663 106.168H127.189V105.634C127.175 104.621 126.401 103.468 125.431 103.046C125.121 102.919 123.56 102.849 119.524 102.793L114.038 102.708L112.983 102.314C112.407 102.089 111.535 101.667 111.056 101.358C110.114 100.767 108.679 99.3186 108.468 98.7279C108.117 97.7996 108.764 96.8854 109.777 96.8854C110.269 96.8854 110.423 96.9838 111.352 97.9121C112.421 98.9951 113.49 99.6421 114.46 99.7968L114.995 99.8812L114.91 97.9262C114.727 93.6645 113.701 90.5983 111.127 86.646C110.508 85.7037 109.945 84.9301 109.875 84.9301C109.805 84.9301 109.551 85.0567 109.298 85.2114C108.609 85.6334 107.85 85.5771 107.343 85.0848C106.795 84.5222 106.781 83.833 107.315 83.2564C107.54 83.0454 109.13 82.0468 110.874 81.0622C114.165 79.1775 114.587 78.8962 114.882 78.3195C115.051 77.9679 115.459 75.6753 115.36 75.5909C115.332 75.5769 114.432 75.0705 113.363 74.4657C112.294 73.8609 111.028 73.0311 110.564 72.6091C109.13 71.3292 107.568 70.9776 105.951 71.5824C104.854 72.0043 104.122 72.0606 103.743 71.7512C103.574 71.6105 102.885 70.5134 102.21 69.3179C101.548 68.1224 100.944 67.0816 100.887 67.0253C100.747 66.8565 99.8466 68.1224 99.3403 69.1913C98.2994 71.4558 98.2713 72.5247 99.1152 79.7964L99.7481 85.1411L99.4668 85.7037C98.8761 86.9414 96.2459 89.8247 94.2206 91.4703C93.658 91.9345 93.4189 92.0329 92.9266 92.0329C92.2655 92.0329 91.8436 91.7376 91.6326 91.1468C91.3935 90.4155 91.6748 89.9513 93.0251 88.7839C94.2768 87.715 96.3022 85.5349 96.6679 84.8738C96.8085 84.5925 96.7382 83.6924 96.26 79.501C95.9365 76.6458 95.6833 73.8047 95.6833 72.9748C95.6833 69.8805 96.7663 67.18 98.9042 64.9015C100.451 63.27 101.309 62.9043 102.069 63.5794ZM63.5869 68.5865C63.376 68.7834 63.1509 69.1632 63.1087 69.4304C62.954 70.204 63.3056 70.7244 64.3887 71.3714C67.1313 72.9748 68.144 76.1817 66.7797 78.9665C66.5547 79.4307 65.9077 80.2183 65.0497 81.0903C62.9259 83.2282 61.8007 85.1551 61.1256 87.8556C60.7599 89.2903 60.8021 92.9612 61.21 94.9163C62.0398 98.8264 63.6995 102.118 66.4703 105.24C66.9204 105.746 67.3282 106.168 67.3845 106.168C67.4408 106.168 67.6095 105.873 67.7502 105.493C67.9049 105.127 68.2284 104.466 68.4816 104.03L68.9457 103.229L68.3128 102.483C65.4717 99.178 63.9104 94.7475 64.0652 90.5139C64.1917 87.5181 65.0216 85.6474 67.2017 83.4533C68.7207 81.9483 69.0864 81.4842 69.6349 80.359C71.4071 76.8005 70.5773 72.4544 67.6377 69.7961C67.1735 69.3742 66.3437 68.8116 65.8092 68.5303C64.684 67.9677 64.2199 67.9817 63.5869 68.5865ZM108.778 122.568C109.073 123.131 109.453 123.187 113.363 123.187H117.09L116.992 122.653C116.865 121.921 116.415 121.26 115.768 120.838C115.346 120.543 114.995 120.458 114.137 120.402C113.546 120.374 112.885 120.247 112.688 120.149C111.999 119.811 111.957 119.474 112.041 114.931C112.111 111.246 112.168 110.374 112.491 109.038C112.547 108.784 112.449 108.728 111.675 108.573C111.197 108.475 110.325 108.222 109.748 108.011L108.693 107.631L108.651 114.945C108.623 120.191 108.665 122.357 108.778 122.568Z" fill="#142535"/>
<circle cx="107.635" cy="75.635" r="1.335" fill="#142535"/>
<circle cx="87.435" cy="93.9351" r="1.335" fill="#142535"/>
</g>
<defs>
<filter id="filter0_d_749_4261" x="-5" y="-1" width="200" height="200" filterUnits="userSpaceOnUse" color-interpolation-filters="sRGB">
<feFlood flood-opacity="0" result="BackgroundImageFix"/>
<feColorMatrix in="SourceAlpha" type="matrix" values="0 0 0 0 0 0 0 0 0 0 0 0 0 0 0 0 0 0 127 0" result="hardAlpha"/>
<feOffset dy="4"/>
<feGaussianBlur stdDeviation="10"/>
<feComposite in2="hardAlpha" operator="out"/>
<feColorMatrix type="matrix" values="0 0 0 0 0.243137 0 0 0 0 0.368627 0 0 0 0 0.368627 0 0 0 0.16 0"/>
<feBlend mode="normal" in2="BackgroundImageFix" result="effect1_dropShadow_749_4261"/>
<feBlend mode="normal" in="SourceGraphic" in2="effect1_dropShadow_749_4261" result="shape"/>
</filter>
</defs>
</svg>
