<svg width="61" height="63" viewBox="0 0 61 63" fill="none" xmlns="http://www.w3.org/2000/svg">
<mask id="mask0_765_7001" style="mask-type:alpha" maskUnits="userSpaceOnUse" x="0" y="0" width="61" height="63">
<rect x="0.299805" width="60" height="63" fill="#D9D9D9"/>
</mask>
<g mask="url(#mask0_765_7001)">
<rect x="3" y="6" width="55" height="55" rx="10" fill="url(#paint0_radial_765_7001)"/>
<path d="M24.3485 12.4175C24.1609 12.4979 23.8929 12.6721 23.7455 12.8061C23.5043 13.0339 23.3971 13.0473 22.9415 12.9267C22.6467 12.8463 22.0973 12.8061 21.7087 12.8463C19.6585 13.0607 18.4123 14.5213 18.3855 16.7457V17.7909L17.7021 18.0455C16.8713 18.3671 16.0941 19.0773 15.7189 19.8947C15.5179 20.3637 15.4375 20.7925 15.4375 21.6367L15.4241 22.7489L14.7943 22.9901C13.8697 23.3385 13.3471 23.7941 12.8915 24.6115C12.5297 25.2547 12.4895 25.4557 12.4895 26.4741C12.4895 27.3987 12.5431 27.7203 12.7977 28.1893L13.0925 28.7655L12.6771 28.9933C11.7525 29.5025 11.2701 29.9447 10.9083 30.6013C10.1981 31.9145 10.3053 33.5895 11.1629 34.7285C11.4175 35.0501 11.6185 35.3851 11.6185 35.4521C11.6185 35.5325 10.7475 36.4571 9.68886 37.5157L7.74586 39.4319L7.03566 39.2443C5.40086 38.8021 4.34226 39.2711 2.38586 41.2677C1.07266 42.6211 0.898462 42.8623 0.684062 43.5591C0.188262 45.2877 0.643862 46.4133 2.66726 48.4099C4.14126 49.8705 4.51646 50.0983 5.05246 49.8973C5.46786 49.7499 5.58846 49.5623 5.58846 49.0397C5.58846 48.7047 5.36066 48.4099 4.24846 47.2977C3.51146 46.5741 2.78786 45.7835 2.64046 45.5557C2.33226 45.0599 2.29206 44.4301 2.56006 43.9209C2.85486 43.3581 5.22666 41.1069 5.62866 41.0131C6.56666 40.7719 6.51306 40.7317 13.4275 47.6461L19.5197 53.7383C19.823 54.0417 19.9935 54.4531 19.9935 54.8821C19.9935 55.3193 19.8178 55.7381 19.506 56.0445L18.4391 57.0931C16.9651 58.5671 16.8579 58.6341 16.3353 58.6341C15.7055 58.6341 15.5983 58.5537 13.5213 56.5169C12.4359 55.4449 12.3689 55.4047 11.8329 55.4449C11.3907 55.4717 11.2567 55.5521 11.1093 55.8469C10.9753 56.1417 10.9753 56.2891 11.1227 56.6509C11.4175 57.3209 13.9903 59.7731 14.7809 60.1349C15.6787 60.5369 16.9383 60.5369 17.8361 60.1349C18.7473 59.7195 21.0253 57.4683 21.4943 56.5169C21.9365 55.6057 21.9901 54.4533 21.6149 53.4885L21.3603 52.8453L23.7053 50.5003C26.4523 47.7533 26.2379 47.8471 29.1055 48.0347C30.0971 48.1017 31.1557 48.1285 31.4639 48.0883L32.0133 48.0079L34.4655 50.4601L36.9311 52.9257L36.7167 53.3947C36.4085 54.1317 36.4353 55.4851 36.7971 56.2891C37.1723 57.1467 39.4235 59.4515 40.3615 59.9473C41.2861 60.4431 42.7467 60.4565 43.6713 59.9875C44.1001 59.7597 46.2039 57.7497 50.8537 53.0865C57.3795 46.5607 57.4331 46.5071 57.6475 45.7165C57.9289 44.7383 57.8619 43.7601 57.4465 42.9427C57.0177 42.0985 54.7263 39.8071 53.9089 39.4051C53.1049 39.0031 51.7113 38.9495 50.9207 39.2711L50.4249 39.4855L48.4283 37.4889L46.4317 35.4923L46.9007 34.8357C47.4903 34.0049 47.6913 33.3751 47.6779 32.3701C47.6779 30.8961 46.6863 29.4221 45.4133 29.0067C45.1319 28.9263 44.8639 28.7923 44.7835 28.7253C44.7165 28.6583 44.6763 28.2027 44.6897 27.7069C44.7701 26.0319 43.8455 24.4909 42.4921 24.0621C42.2107 23.9683 41.9159 23.8477 41.8489 23.7807C41.7819 23.7137 41.7149 23.1643 41.7149 22.5613C41.7015 21.6367 41.6345 21.3285 41.3397 20.7657C40.9377 20.0019 40.3481 19.4525 39.6245 19.1443C38.7133 18.7557 38.7535 18.8227 38.7535 17.6703C38.7401 15.3655 37.4269 13.9853 35.0551 13.8111C34.2109 13.7441 32.8709 13.5029 27.1089 12.3907C26.2781 12.2299 24.7773 12.2433 24.3485 12.4175ZM29.0385 14.6285C30.4053 14.8965 31.5979 15.1779 31.6783 15.2583C31.8123 15.3923 31.5175 15.7541 30.2713 17.0003L28.6901 18.5815L27.8593 18.0321C26.1441 16.8931 24.6701 14.7893 25.1659 14.1997C25.3669 13.9451 25.5277 13.9719 29.0385 14.6285ZM22.9817 14.9099C23.1291 15.0439 23.3435 15.4191 23.4641 15.7407C24.1341 17.4827 26.2915 19.6133 28.1005 20.3101C28.7571 20.5647 28.8643 20.6719 29.0519 21.2079C29.5075 22.6149 27.5645 24.1291 26.3585 23.2983C25.8359 22.9499 21.0119 18.1661 20.5831 17.5765C19.9801 16.7725 20.1007 15.8479 20.8913 15.1377C21.2799 14.7759 21.4809 14.7089 22.1509 14.6955C22.5127 14.6821 22.8075 14.7625 22.9817 14.9099ZM36.1003 16.0221C36.8775 16.6385 37.1589 17.5095 36.7971 18.2063C36.7167 18.3671 36.0467 19.1041 35.3231 19.8545C34.3047 20.8997 33.9965 21.2883 33.9965 21.5697C33.9965 22.1057 34.2109 22.4273 34.6531 22.5211C35.1623 22.6283 35.6447 22.3737 36.4085 21.5831C37.4001 20.5647 37.9093 20.3905 38.7803 20.7925C39.4235 21.1007 39.8925 21.8377 39.8925 22.5479C39.8925 23.1777 39.6781 23.4859 38.0701 25.0671C37.6145 25.5093 37.1723 26.0051 37.0919 26.1793C36.8775 26.5813 37.0249 27.2379 37.3465 27.4121C37.9093 27.7203 38.2845 27.5729 39.2225 26.6751C40.5089 25.4289 41.2459 25.2815 42.2241 26.0989C42.8003 26.5679 43.0281 27.2781 42.8405 27.9481C42.7601 28.2295 42.2509 28.8593 41.4335 29.6901C40.3079 30.8425 40.1605 31.0435 40.1605 31.4723C40.1605 31.8207 40.2409 32.0083 40.4553 32.1557C40.9779 32.5175 41.3129 32.4103 42.2643 31.5661C43.5507 30.4137 44.2475 30.2931 45.1721 31.0569C45.7081 31.4991 46.0029 32.2763 45.8689 32.8525C45.8153 33.0535 45.0917 33.9111 44.1671 34.8625C42.7467 36.3231 42.5725 36.5643 42.5725 36.9797C42.5725 37.9713 43.5507 38.1857 44.4351 37.3951C44.7165 37.1405 44.9845 36.9261 45.0381 36.9261C45.1453 36.9261 48.8705 40.6379 48.8705 40.7585C48.8705 40.8523 38.2577 51.3981 38.1505 51.3981C38.1103 51.3981 37.2125 50.5271 36.1539 49.4685L34.2243 47.5255L35.2427 46.5473C36.1137 45.7165 36.2745 45.5021 36.2745 45.1269C36.2745 44.5775 35.8725 44.1621 35.3231 44.1621C35.0015 44.1621 34.7335 44.3363 34.0903 44.9527C32.6967 46.2659 32.8173 46.2391 29.0385 46.2391C25.8493 46.2391 25.7421 46.2525 25.1525 46.5607C24.8041 46.7349 23.5713 47.8471 22.2715 49.1335L19.9935 51.3981L14.6335 46.0381L9.27346 40.6781L11.2165 38.7351L13.1595 36.8055L13.9635 37.0869C16.2281 37.8641 18.6133 36.5107 18.9349 34.2461C19.0421 33.4957 19.1895 33.3081 19.6719 33.3081C19.8863 33.3081 20.3151 33.2143 20.6233 33.0803C21.8829 32.5979 22.5261 31.8341 22.8879 30.3601C23.0621 29.6365 23.1559 29.4757 23.4239 29.3953C25.1793 28.9129 25.3401 28.8459 25.8895 28.2831C26.4523 27.7203 26.4925 27.6399 27.0017 25.8175C27.0821 25.5629 27.2563 25.4557 27.9799 25.2815C29.4539 24.9063 30.3115 24.1693 30.7537 22.8695C31.0083 22.1459 30.9413 20.8595 30.6331 20.1895L30.3651 19.5865L32.1473 17.7909C33.1255 16.7993 34.1171 15.9149 34.3315 15.8077C34.8541 15.5531 35.6313 15.6469 36.1003 16.0221ZM19.8997 19.8277C20.3285 20.0555 24.7907 24.5445 25.0051 24.9599C25.2597 25.4557 25.1793 26.1257 24.8175 26.6215C24.2011 27.4657 23.2631 27.7605 22.4993 27.3585C22.2983 27.2513 21.0387 26.0587 19.6987 24.6919L17.2465 22.2263V21.5161C17.2465 20.8595 17.2867 20.7657 17.8361 20.2297C18.3319 19.7205 18.4927 19.6401 18.9751 19.6401C19.2833 19.6401 19.6987 19.7205 19.8997 19.8277ZM19.0153 26.8359L21.1325 28.9665V29.5963C21.1325 30.1323 21.0655 30.3065 20.6501 30.7621C20.0873 31.3785 19.4575 31.6063 18.8143 31.4187C18.1845 31.2445 14.5129 27.6131 14.2985 26.9431C14.0975 26.3267 14.2851 25.7237 14.8747 25.1743C15.4241 24.6517 15.5849 24.5981 16.2951 24.6517C16.8579 24.7053 16.9785 24.7991 19.0153 26.8359ZM16.0673 31.8073C17.0991 32.8659 17.1125 32.8793 17.1125 33.5761C17.1125 34.2327 17.0723 34.3265 16.5229 34.8625C16.0271 35.3717 15.8663 35.4521 15.3839 35.4521C14.6067 35.4521 14.2181 35.2243 13.1863 34.1255C12.3287 33.2143 12.2885 33.1473 12.2885 32.5041C12.2885 31.9279 12.3555 31.7671 12.7709 31.2981C13.7759 30.1859 14.6201 30.3199 16.0673 31.8073ZM52.7833 40.9327C53.0781 41.0533 54.6593 42.5407 55.5437 43.5457C56.0261 44.0951 56.1065 44.7249 55.7849 45.3413C55.5437 45.7835 43.1621 58.1383 42.7467 58.3527C42.3715 58.5403 41.7015 58.5403 41.3263 58.3527C40.8975 58.1383 38.6999 55.9541 38.4721 55.5253C38.2309 55.0697 38.2309 54.5605 38.4721 54.1049C38.6865 53.7029 51.2021 41.1873 51.6175 40.9595C51.9525 40.7853 52.3679 40.7719 52.7833 40.9327Z" fill="#142535"/>
<path d="M30.6724 3.9574C30.6724 3.40511 30.2246 2.9574 29.6724 2.9574C29.1201 2.9574 28.6724 3.40511 28.6724 3.9574V8.9574C28.6724 9.50968 29.1201 9.9574 29.6724 9.9574C30.2246 9.9574 30.6724 9.50968 30.6724 8.9574V3.9574Z" fill="#142535"/>
<path d="M49.0983 4.28859C49.4714 3.8814 49.4438 3.24884 49.0366 2.87572C48.6294 2.50261 47.9968 2.53022 47.6237 2.93741L43.5702 7.36108C43.1971 7.76826 43.2247 8.40082 43.6319 8.77394C44.0391 9.14706 44.6716 9.11944 45.0447 8.71226L49.0983 4.28859Z" fill="#142535"/>
<path d="M11.8225 2.93731C11.4494 2.53012 10.8168 2.5025 10.4096 2.87562C10.0025 3.24874 9.97484 3.8813 10.348 4.28849L14.4015 8.71215C14.7746 9.11934 15.4072 9.14696 15.8144 8.77384C16.2215 8.40072 16.2492 7.76816 15.876 7.36097L11.8225 2.93731Z" fill="#142535"/>
<circle cx="8" cy="52.2" r="1" fill="#142535"/>
</g>
<defs>
<radialGradient id="paint0_radial_765_7001" cx="0" cy="0" r="1" gradientUnits="userSpaceOnUse" gradientTransform="translate(30.5 33.5) rotate(90) scale(27.5)">
<stop stop-color="#ADEEEE"/>
<stop offset="1" stop-color="#DBF4F4" stop-opacity="0"/>
</radialGradient>
</defs>
</svg>
