<svg width="60" height="63" viewBox="0 0 60 63" fill="none" xmlns="http://www.w3.org/2000/svg">
<mask id="mask0_765_7004" style="mask-type:alpha" maskUnits="userSpaceOnUse" x="0" y="0" width="60" height="63">
<rect width="60" height="63" fill="#D9D9D9"/>
</mask>
<g mask="url(#mask0_765_7004)">
<rect x="-5" y="1" width="55" height="55" rx="10" fill="url(#paint0_radial_765_7004)"/>
<path d="M22.9107 0.676457C21.8807 1.21649 22.2407 2.68659 23.4108 2.68659C23.8308 2.68659 24.1508 2.51658 24.3408 2.18655C24.7008 1.59652 24.4608 0.906473 23.8108 0.646456C23.3108 0.446444 23.3308 0.446442 22.9107 0.676457Z" fill="#142535"/>
<path d="M17.4102 1.29654C15.34 1.85658 13.2299 2.71664 11.7098 3.6467C11.4097 3.82671 11.0297 4.04672 10.8697 4.13672C9.77963 4.76676 7.85949 6.34687 6.60941 7.64695C3.33918 11.0572 1.06902 15.6475 0.418976 20.1878C0.128956 22.1379 0.128958 24.9681 0.408977 27.0882C0.658994 28.9583 1.43905 31.5885 2.30911 33.4786C3.22917 35.4587 3.6292 36.0988 6.04937 39.439C7.75949 41.7991 10.0196 44.9093 10.2497 45.2394C10.3297 45.3494 10.6797 45.8294 11.0297 46.3094C11.3797 46.7895 11.8598 47.4595 12.1098 47.8095C12.3598 48.1495 12.7198 48.6496 12.9098 48.9096C13.0999 49.1796 13.5499 49.7996 13.9099 50.2897C14.2699 50.7897 14.72 51.4097 14.91 51.6698C15.1 51.9298 15.46 52.4298 15.71 52.7698C15.9601 53.1199 16.5201 53.8899 16.9601 54.4999C17.9002 55.78 18.2902 56.3301 20.6104 59.5403C21.5604 60.8604 22.4905 62.0904 22.6805 62.2804C23.0005 62.5805 23.0806 62.6105 23.4806 62.5605C23.9506 62.5105 24.2106 62.3304 24.5507 61.8204C24.6607 61.6504 25.3207 60.7303 26.0108 59.7903C26.7008 58.8402 27.3808 57.8902 27.5409 57.6701C27.6909 57.4601 28.0909 56.9001 28.4409 56.4401C28.7809 55.98 29.711 54.69 30.5111 53.5799C31.3111 52.4698 32.3012 51.0997 32.7112 50.5397C34.2113 48.4796 35.6714 46.4694 36.1115 45.8494C36.3615 45.4994 37.1215 44.4393 37.8116 43.4992C38.5016 42.5492 39.1517 41.6491 39.2617 41.4891C39.3717 41.3391 39.7317 40.8391 40.0617 40.389C40.3918 39.939 40.7518 39.439 40.8618 39.289C40.9718 39.139 41.3318 38.6389 41.6618 38.1889C44.542 34.2487 46.1122 30.2884 46.5222 25.9481C46.6522 24.528 46.5922 21.3778 46.4122 20.2878C46.1522 18.6877 45.5321 16.3675 45.0621 15.2374C43.442 11.3372 41.3018 8.377 38.3216 5.89684C35.6914 3.7167 32.6312 2.1266 29.531 1.33655C28.4509 1.06653 27.8109 1.40655 27.8109 2.27661C27.8109 2.95665 28.2209 3.28667 29.461 3.59669C30.8211 3.92671 33.4313 5.11679 34.8514 6.06685C37.1415 7.56694 39.2617 9.65708 40.8418 11.9672C41.3318 12.6773 42.4119 14.5274 42.4119 14.6574C42.4119 14.6774 42.5419 14.9774 42.7019 15.3174C44.442 19.0477 44.9021 24.248 43.862 28.5383C43.1219 31.5685 42.0819 33.8086 40.1817 36.4288C39.5017 37.3589 39.1517 37.8489 38.6716 38.5389C38.5516 38.6989 38.1416 39.269 37.7616 39.789C37.3715 40.309 36.9815 40.8491 36.8815 40.9891C36.7915 41.1291 36.4315 41.6291 36.0915 42.0992C34.9414 43.6793 34.2613 44.6093 34.0613 44.8893C33.9513 45.0393 33.5913 45.5394 33.2613 45.9894C32.9312 46.4394 32.5712 46.9395 32.4612 47.0895C32.3512 47.2495 31.7011 48.1495 31.0111 49.0896C30.3211 50.0397 29.581 51.0697 29.371 51.3798C29.151 51.6898 28.7409 52.2398 28.4709 52.6098C28.1909 52.9799 27.8609 53.4299 27.7309 53.6099C27.6009 53.7899 27.3308 54.1699 27.1308 54.4499C26.7008 55.04 26.6608 55.09 25.6007 56.5401C25.1607 57.1401 24.7207 57.7502 24.6307 57.8902C24.1006 58.6702 23.4806 59.4403 23.3806 59.4403C23.3206 59.4403 23.1506 59.2803 23.0105 59.0802C22.1405 57.8402 21.5604 57.0301 21.5104 56.9901C21.4804 56.9601 21.1804 56.5601 20.8604 56.1C19.9703 54.86 19.9103 54.78 19.2603 53.8899C18.9303 53.4399 18.5902 52.9698 18.5102 52.8498C18.4302 52.7398 17.0901 50.8797 15.54 48.7396C11.9298 43.7493 11.6998 43.4292 11.4697 43.1192C11.2897 42.8792 8.72955 39.349 7.78949 38.0389C7.26945 37.3288 6.72942 36.5888 6.31939 36.0388C5.76935 35.2887 5.20931 34.3387 4.56927 33.0386C3.78921 31.4685 3.6392 31.0785 2.94915 28.7383C2.71913 27.9483 2.40911 25.6581 2.34911 24.238C2.2391 21.9679 2.75914 18.7777 3.6292 16.4475C4.58926 13.8273 6.4294 10.9772 8.51954 8.85703C10.8397 6.50688 14.4299 4.35674 17.2201 3.63669C17.5702 3.54669 18.0702 3.37668 18.3302 3.26667C18.7302 3.09666 18.8303 2.99665 18.9303 2.67663C19.1103 2.05659 18.9103 1.54656 18.4102 1.34655C17.9602 1.16654 17.9102 1.16654 17.4102 1.29654Z" fill="#142535"/>
<path d="M21.6101 6.08682C20.36 6.24683 18.8499 6.57685 17.7798 6.92687C16.7498 7.2669 14.8496 8.12695 14.3096 8.48698C14.1696 8.57698 13.7895 8.837 13.4595 9.04701C12.7595 9.50704 12.6795 9.56704 11.8194 10.2971C9.97928 11.8572 8.38917 13.9373 7.3991 16.0775C7.17908 16.5475 6.94907 17.0275 6.89907 17.1375C6.62905 17.7076 6.08901 19.6377 5.889 20.7578C5.57898 22.5279 5.57897 25.098 5.899 26.8381C6.67905 31.1184 8.7692 34.7187 12.1594 37.5788C13.3195 38.5589 15.1096 39.579 17.1598 40.419C19.4499 41.3691 23.0402 41.7491 25.9604 41.3491C31.6708 40.579 36.7811 36.8588 39.3413 31.6385C40.5414 29.1783 41.1214 26.6281 41.1214 23.778C41.1214 20.7778 40.5214 18.2476 39.2013 15.6674C38.7513 14.7974 38.4113 14.2573 37.4412 12.8273C37.0712 12.2872 35.5211 10.7071 34.721 10.0671C32.3308 8.13695 29.5106 6.83687 26.5104 6.28683C25.2303 6.04682 22.6802 5.94681 21.6101 6.08682ZM26.7604 8.57698C29.5706 9.23702 31.7508 10.3771 33.8609 12.2872C35.8711 14.1173 37.4812 16.6275 38.3012 19.1977C38.8713 21.0278 39.1413 23.6879 38.9113 25.3181C38.5913 27.5582 38.2412 28.8083 37.5112 30.3284C37.0712 31.2384 36.8111 31.6785 35.8711 33.0986C35.5011 33.6586 33.2909 35.8687 32.7609 36.2188C32.5408 36.3588 32.1008 36.6588 31.7808 36.8788C30.9807 37.4388 29.1306 38.3089 28.0105 38.6689C25.9104 39.3389 23.0002 39.529 20.81 39.1489C19.79 38.9689 17.8098 38.3989 17.3098 38.1389C17.1698 38.0589 16.7698 37.8589 16.4097 37.6888C14.9996 36.9988 13.4495 35.8287 12.0894 34.4286C10.0593 32.3285 8.74919 29.7983 8.09915 26.7381C7.89914 25.7981 7.85913 25.3581 7.85913 23.738C7.86913 22.0278 7.88914 21.7178 8.13915 20.6178C8.8792 17.3675 10.2593 14.8874 12.6095 12.5972C14.6496 10.6071 17.1698 9.22702 19.96 8.57698C21.3501 8.25696 22.0301 8.19696 23.8102 8.23696C25.2203 8.26696 25.6504 8.30696 26.7604 8.57698Z" fill="#142535"/>
<path d="M20.4603 14.9274C19.9603 15.1374 19.9103 15.3974 19.9103 17.5175C19.9103 18.8876 19.8803 19.4777 19.7903 19.5677C19.7203 19.6377 19.3802 19.6877 18.9902 19.6877C18.1602 19.6877 17.7701 19.8577 17.6201 20.3077C17.5501 20.4877 17.3901 21.3778 17.2601 22.2878C17.1201 23.1979 16.8801 24.818 16.7201 25.8881C15.77 32.0785 15.79 31.9084 16.05 32.3085C16.14 32.4485 16.33 32.6085 16.47 32.6685C16.65 32.7585 18.5702 32.7885 23.4205 32.7885C29.5409 32.7885 30.151 32.7785 30.421 32.6185C31.0211 32.2685 31.031 31.8584 30.511 28.6882C30.351 27.7282 30.201 26.6881 30.161 26.3881C30.121 26.0881 29.991 25.188 29.861 24.388C29.731 23.5879 29.5509 22.4178 29.4609 21.7878C29.1709 19.8677 29.0309 19.6877 27.8308 19.6877C27.4308 19.6877 27.1008 19.6377 27.0308 19.5677C26.9408 19.4777 26.9108 18.8876 26.9108 17.5175C26.9108 16.2974 26.8708 15.5074 26.8008 15.3474C26.5607 14.8374 26.2607 14.7874 23.3905 14.7874C21.4404 14.7974 20.6803 14.8274 20.4603 14.9274ZM24.6906 18.1376C24.7306 19.7977 24.8206 19.6877 23.4305 19.6877C22.6505 19.6877 22.2104 19.6477 22.1304 19.5677C21.9604 19.3976 21.9704 17.2675 22.1304 17.1075C22.2204 17.0175 22.6105 16.9875 23.4605 17.0075L24.6606 17.0375L24.6906 18.1376ZM27.1908 21.9078C27.2908 22.0378 27.3408 22.3578 27.9108 26.0881C28.0608 27.1081 28.2709 28.4582 28.3609 29.0983C28.4609 29.7383 28.5109 30.3383 28.4809 30.4284C28.4209 30.5784 27.9608 30.5884 23.4305 30.5884C20.1103 30.5884 18.4202 30.5584 18.3502 30.4884C18.2802 30.4184 18.2702 30.1983 18.3202 29.8583C18.3702 29.5683 18.5402 28.4182 18.7102 27.2882C19.2502 23.6579 19.5302 22.0378 19.6303 21.9078C19.7103 21.8178 20.5903 21.7878 23.4105 21.7878C26.2307 21.7878 27.1108 21.8178 27.1908 21.9078Z" fill="#142535"/>
</g>
<defs>
<radialGradient id="paint0_radial_765_7004" cx="0" cy="0" r="1" gradientUnits="userSpaceOnUse" gradientTransform="translate(22.5 28.5) rotate(90) scale(27.5)">
<stop stop-color="#ADEEEE"/>
<stop offset="1" stop-color="#DBF4F4" stop-opacity="0"/>
</radialGradient>
</defs>
</svg>
